<svg width="45" height="45" viewBox="0 0 45 45" fill="none" xmlns="http://www.w3.org/2000/svg">
<rect width="45" height="45" rx="22.5" fill="#F2F2F2"/>
<path d="M22.5 16.75C22.9142 16.75 23.25 17.0858 23.25 17.5V23.5C23.25 23.9142 22.9142 24.25 22.5 24.25C22.0858 24.25 21.75 23.9142 21.75 23.5V17.5C21.75 17.0858 22.0858 16.75 22.5 16.75Z" fill="#020659"/>
<path d="M23.5 26.5C23.5 27.0523 23.0523 27.5 22.5 27.5C21.9477 27.5 21.5 27.0523 21.5 26.5C21.5 25.9477 21.9477 25.5 22.5 25.5C23.0523 25.5 23.5 25.9477 23.5 26.5Z" fill="#020659"/>
<path fill-rule="evenodd" clip-rule="evenodd" d="M22.5574 11.75H22.4426C20.1342 11.75 18.3252 11.75 16.9137 11.9397C15.469 12.134 14.3289 12.5393 13.4341 13.4341C12.5393 14.3289 12.134 15.469 11.9397 16.9137C11.75 18.3252 11.75 20.1342 11.75 22.4426V22.5574C11.75 24.8658 11.75 26.6748 11.9397 28.0863C12.134 29.531 12.5393 30.6711 13.4341 31.5659C14.3289 32.4607 15.469 32.866 16.9137 33.0603C18.3252 33.25 20.1342 33.25 22.4426 33.25H22.5574C24.8658 33.25 26.6748 33.25 28.0863 33.0603C29.531 32.866 30.6711 32.4607 31.5659 31.5659C32.4607 30.6711 32.866 29.531 33.0603 28.0863C33.25 26.6748 33.25 24.8658 33.25 22.5574V22.4426C33.25 20.1342 33.25 18.3252 33.0603 16.9137C32.866 15.469 32.4607 14.3289 31.5659 13.4341C30.6711 12.5393 29.531 12.134 28.0863 11.9397C26.6748 11.75 24.8658 11.75 22.5574 11.75ZM14.4948 14.4948C15.0645 13.9251 15.8352 13.5982 17.1136 13.4264C18.4136 13.2516 20.1218 13.25 22.5 13.25C24.8782 13.25 26.5864 13.2516 27.8864 13.4264C29.1648 13.5982 29.9355 13.9251 30.5052 14.4948C31.0749 15.0645 31.4018 15.8352 31.5736 17.1136C31.7484 18.4136 31.75 20.1218 31.75 22.5C31.75 24.8782 31.7484 26.5864 31.5736 27.8864C31.4018 29.1648 31.0749 29.9355 30.5052 30.5052C29.9355 31.0749 29.1648 31.4018 27.8864 31.5736C26.5864 31.7484 24.8782 31.75 22.5 31.75C20.1218 31.75 18.4136 31.7484 17.1136 31.5736C15.8352 31.4018 15.0645 31.0749 14.4948 30.5052C13.9251 29.9355 13.5982 29.1648 13.4264 27.8864C13.2516 26.5864 13.25 24.8782 13.25 22.5C13.25 20.1218 13.2516 18.4136 13.4264 17.1136C13.5982 15.8352 13.9251 15.0645 14.4948 14.4948Z" fill="#020659"/>
</svg>
