<svg width="45" height="45" viewBox="0 0 45 45" fill="none" xmlns="http://www.w3.org/2000/svg">
<rect width="45" height="45" rx="22.5" fill="#F2F2F2"/>
<path fill-rule="evenodd" clip-rule="evenodd" d="M28.5035 11.9998C28.7797 11.6912 29.2539 11.6649 29.5625 11.9412C31.8246 13.9658 33.25 16.9104 33.25 20.187C33.25 25.9384 28.8612 30.6647 23.25 31.1996V31.75H24.5C24.9142 31.75 25.25 32.0858 25.25 32.5C25.25 32.9142 24.9142 33.25 24.5 33.25H20.5C20.0858 33.25 19.75 32.9142 19.75 32.5C19.75 32.0858 20.0858 31.75 20.5 31.75H21.75V31.2415C18.6492 31.121 15.8754 29.7236 13.9412 27.5625C13.6649 27.2539 13.6912 26.7797 13.9998 26.5035C14.3085 26.2272 14.7826 26.2535 15.0589 26.5622C16.811 28.5198 19.3548 29.75 22.187 29.75C27.4685 29.75 31.75 25.4685 31.75 20.187C31.75 17.3548 30.5198 14.811 28.5622 13.0589C28.2535 12.7826 28.2272 12.3085 28.5035 11.9998ZM17.7218 16.471C16.8035 17.5589 16.25 18.9648 16.25 20.5C16.25 23.9518 19.0482 26.75 22.5 26.75C22.5963 26.75 22.692 26.7478 22.7872 26.7435C22.7005 26.1345 22.7439 25.3905 23.1285 24.6657C23.6159 23.7472 24.6093 23.3691 25.2862 23.2027C25.6485 23.1137 25.9829 23.07 26.2251 23.0483C26.3471 23.0373 26.448 23.0317 26.5202 23.0289C26.5564 23.0274 26.5855 23.0267 26.6067 23.0263L26.6324 23.0259L26.6377 23.0259C27.3873 23.0181 27.8089 22.8432 28.0563 22.6648C28.3046 22.4857 28.4513 22.2499 28.5576 21.985C28.5669 21.9618 28.5772 21.9394 28.5885 21.9176C28.6942 21.4622 28.75 20.9876 28.75 20.5C28.75 18.816 28.084 17.2876 27.0011 16.1638C26.8786 16.5208 26.7225 16.8565 26.5597 17.1127C26.3488 17.4446 25.9509 17.7668 25.643 17.9962C25.4312 18.154 25.2121 18.287 25.0199 18.4019C24.9965 18.4159 24.9736 18.4296 24.951 18.443C24.7793 18.5454 24.6309 18.634 24.4881 18.7318C24.1814 18.9419 23.9566 19.1588 23.8044 19.4844C23.7636 19.5716 23.7596 19.6586 23.7878 19.7651C23.8463 19.9863 23.8867 20.2365 23.8873 20.4932C23.8901 21.6142 22.8502 22.2596 21.9915 22.2499C20.0067 22.2274 18.8364 20.5614 18.6839 18.8015C18.6115 17.9662 18.1814 17.1229 17.7218 16.471ZM18.8284 15.4416C19.4181 16.2376 20.0682 17.4014 20.1783 18.6721C20.2884 19.9426 21.0469 20.7391 22.0085 20.75C22.1091 20.7511 22.2211 20.711 22.3005 20.6446C22.3744 20.5828 22.3874 20.53 22.3873 20.4969C22.387 20.3905 22.3696 20.2693 22.3377 20.149C22.2401 19.7804 22.2249 19.3208 22.4456 18.8489C22.7508 18.1964 23.2046 17.7929 23.6403 17.4944C23.825 17.3679 24.0165 17.2537 24.1839 17.154C24.2065 17.1405 24.2287 17.1273 24.2503 17.1144C24.4415 17.0001 24.6022 16.9011 24.7468 16.7933C25.0712 16.5516 25.2501 16.3768 25.2936 16.3083C25.4625 16.0425 25.6509 15.5602 25.7218 15.1433C24.781 14.5762 23.6786 14.25 22.5 14.25C21.128 14.25 19.8592 14.6921 18.8284 15.4416ZM27.3186 24.4807C27.1101 24.5081 26.8885 24.5234 26.6533 24.5258L26.6455 24.5259L26.6347 24.526C26.6233 24.5263 26.6046 24.5267 26.5795 24.5277C26.5291 24.5297 26.4533 24.5338 26.3591 24.5423C26.1691 24.5593 25.9133 24.5932 25.6443 24.6594C25.0587 24.8033 24.6248 25.0459 24.4535 25.3688C24.2528 25.747 24.2256 26.1562 24.267 26.4967C25.4773 26.1407 26.535 25.4282 27.3186 24.4807ZM14.75 20.5C14.75 16.2198 18.2198 12.75 22.5 12.75C26.7802 12.75 30.25 16.2198 30.25 20.5C30.25 24.7802 26.7802 28.25 22.5 28.25C18.2198 28.25 14.75 24.7802 14.75 20.5Z" fill="#020659"/>
</svg>
