<svg width="25" height="25" viewBox="0 0 25 25" fill="none" xmlns="http://www.w3.org/2000/svg">
<path d="M2.5 3.5L2.76491 3.5883C4.08495 4.02832 4.74497 4.24832 5.12248 4.7721C5.5 5.29587 5.5 5.99159 5.5 7.38304V10C5.5 12.8284 5.5 14.2426 6.37868 15.1213C7.25736 16 8.67157 16 11.5 16H19.5" stroke="#020659" stroke-width="1.5" stroke-linecap="round"/>
<path d="M8 18.5C8.82843 18.5 9.5 19.1716 9.5 20C9.5 20.8284 8.82843 21.5 8 21.5C7.17157 21.5 6.5 20.8284 6.5 20C6.5 19.1716 7.17157 18.5 8 18.5Z" stroke="#020659" stroke-width="1.5"/>
<path d="M17 18.5001C17.8284 18.5001 18.5 19.1716 18.5 20.0001C18.5 20.8285 17.8284 21.5001 17 21.5001C16.1716 21.5001 15.5 20.8285 15.5 20.0001C15.5 19.1716 16.1716 18.5001 17 18.5001Z" stroke="#020659" stroke-width="1.5"/>
<path d="M11.5 9.5H8.5" stroke="#020659" stroke-width="1.5" stroke-linecap="round"/>
<path d="M5.5 6.5H16.9504C19.0054 6.5 20.0328 6.5 20.4775 7.17426C20.9221 7.84853 20.5173 8.79294 19.7078 10.6818L19.2792 11.6818C18.9013 12.5636 18.7123 13.0045 18.3366 13.2523C17.9609 13.5 17.4812 13.5 16.5218 13.5H5.5" stroke="#020659" stroke-width="1.5"/>
</svg>
