<svg width="45" height="45" viewBox="0 0 45 45" fill="none" xmlns="http://www.w3.org/2000/svg">
<rect width="45" height="45" rx="22.5" fill="#F2F2F2"/>
<path d="M12.5 13.5L12.7649 13.5883C14.0849 14.0283 14.745 14.2483 15.1225 14.7721C15.5 15.2959 15.5 15.9916 15.5 17.383V20C15.5 22.8284 15.5 24.2426 16.3787 25.1213C17.2574 26 18.6716 26 21.5 26H29.5" stroke="#020659" stroke-width="1.5" stroke-linecap="round"/>
<path d="M18 28.5C18.8284 28.5 19.5 29.1716 19.5 30C19.5 30.8284 18.8284 31.5 18 31.5C17.1716 31.5 16.5 30.8284 16.5 30C16.5 29.1716 17.1716 28.5 18 28.5Z" stroke="#020659" stroke-width="1.5"/>
<path d="M27 28.5001C27.8284 28.5001 28.5 29.1716 28.5 30.0001C28.5 30.8285 27.8284 31.5001 27 31.5001C26.1716 31.5001 25.5 30.8285 25.5 30.0001C25.5 29.1716 26.1716 28.5001 27 28.5001Z" stroke="#020659" stroke-width="1.5"/>
<path d="M21.5 19.5H18.5" stroke="#020659" stroke-width="1.5" stroke-linecap="round"/>
<path d="M15.5 16.5H26.9504C29.0054 16.5 30.0328 16.5 30.4775 17.1743C30.9221 17.8485 30.5173 18.7929 29.7078 20.6818L29.2792 21.6818C28.9013 22.5636 28.7123 23.0045 28.3366 23.2523C27.9609 23.5 27.4812 23.5 26.5218 23.5H15.5" stroke="#020659" stroke-width="1.5"/>
</svg>
