<svg width="25" height="24" viewBox="0 0 25 24" fill="none" xmlns="http://www.w3.org/2000/svg">
<path d="M14.25 8.99996C14.25 8.58575 13.9142 8.24996 13.5 8.24996C13.0858 8.24996 12.75 8.58575 12.75 8.99996V10.25H11.5C11.0858 10.25 10.75 10.5857 10.75 11C10.75 11.4142 11.0858 11.75 11.5 11.75H12.75V13C12.75 13.4142 13.0858 13.75 13.5 13.75C13.9142 13.75 14.25 13.4142 14.25 13V11.75H15.5C15.9142 11.75 16.25 11.4142 16.25 11C16.25 10.5857 15.9142 10.25 15.5 10.25H14.25V8.99996Z" fill="white"/>
<path fill-rule="evenodd" clip-rule="evenodd" d="M1.79246 2.7512C1.92985 2.36044 2.358 2.15503 2.74876 2.29242L3.05016 2.39838C3.66669 2.61511 4.19032 2.79919 4.60241 3.00139C5.04304 3.21759 5.42089 3.48393 5.70507 3.89979C5.98705 4.31243 6.10347 4.76515 6.1572 5.26153C6.16105 5.29706 6.1646 5.33321 6.16789 5.36996L17.6201 5.36996C18.4387 5.36995 19.2733 5.36993 19.9604 5.44674C20.3101 5.48584 20.6567 5.54814 20.9632 5.65583C21.2637 5.76141 21.594 5.93432 21.829 6.23974C22.2108 6.73613 22.2775 7.31414 22.2414 7.90034C22.2069 8.45845 22.0684 9.15234 21.9037 9.97723L21.8933 10.0295L21.8923 10.0341L21.3834 12.5033C21.2337 13.2298 21.1077 13.841 20.9453 14.3231C20.7729 14.8346 20.5339 15.2842 20.1074 15.6318C19.6809 15.9793 19.1923 16.1226 18.6566 16.1882C18.1516 16.25 17.5276 16.25 16.786 16.25L11.3802 16.25C10.0344 16.25 8.94459 16.25 8.08636 16.1283C7.19012 16.0012 6.43732 15.7285 5.84346 15.1022C5.29722 14.526 5.00509 13.9144 4.85877 13.0601C4.72171 12.2598 4.70809 11.2125 4.70809 9.75996V7.03832C4.70809 6.29837 4.70707 5.80316 4.66591 5.42295C4.62658 5.0596 4.55688 4.87818 4.46662 4.74609C4.37856 4.61723 4.24489 4.4968 3.94166 4.34802C3.61882 4.18961 3.18007 4.03406 2.51246 3.79934L2.25125 3.7075C1.86048 3.57012 1.65508 3.14197 1.79246 2.7512ZM6.20808 6.86996L6.20809 9.75996C6.20809 11.249 6.22608 12.1578 6.33724 12.8068C6.43914 13.4018 6.61182 13.7324 6.93199 14.0701C7.20453 14.3576 7.58215 14.5418 8.29697 14.6432C9.03763 14.7482 10.0207 14.75 11.4375 14.75H16.7404C17.5397 14.75 18.0712 14.7487 18.4744 14.6993C18.8571 14.6525 19.0346 14.571 19.1598 14.469C19.2851 14.3669 19.4007 14.2095 19.5238 13.8441C19.6535 13.4592 19.7621 12.9389 19.9235 12.156L20.4223 9.73591L20.4227 9.73369C20.6004 8.84376 20.7168 8.2515 20.7442 7.80793C20.7702 7.38648 20.7041 7.23927 20.6427 7.15786C20.6365 7.15259 20.5929 7.11565 20.4659 7.07101C20.3105 7.01639 20.0893 6.97049 19.7937 6.93745C19.1989 6.87096 18.4452 6.86996 17.5888 6.86996H6.20808Z" fill="white"/>
<path fill-rule="evenodd" clip-rule="evenodd" d="M5.75001 19.5C5.75001 20.7426 6.75737 21.75 8.00001 21.75C9.24265 21.75 10.25 20.7426 10.25 19.5C10.25 18.2573 9.24265 17.25 8.00001 17.25C6.75737 17.25 5.75001 18.2573 5.75001 19.5ZM8.00001 20.25C7.58579 20.25 7.25001 19.9142 7.25001 19.5C7.25001 19.0857 7.58579 18.75 8.00001 18.75C8.41422 18.75 8.75001 19.0857 8.75001 19.5C8.75001 19.9142 8.41422 20.25 8.00001 20.25Z" fill="white"/>
<path fill-rule="evenodd" clip-rule="evenodd" d="M14.75 19.5C14.75 20.7427 15.7574 21.75 17 21.75C18.2426 21.75 19.25 20.7427 19.25 19.5C19.25 18.2574 18.2426 17.25 17 17.25C15.7574 17.25 14.75 18.2574 14.75 19.5ZM17 20.25C16.5858 20.25 16.25 19.9142 16.25 19.5C16.25 19.0858 16.5858 18.75 17 18.75C17.4142 18.75 17.75 19.0858 17.75 19.5C17.75 19.9142 17.4142 20.25 17 20.25Z" fill="white"/>
</svg>
