<svg width="45" height="45" viewBox="0 0 45 45" fill="none" xmlns="http://www.w3.org/2000/svg">
<rect width="45" height="45" rx="22.5" fill="#F2F2F2"/>
<path fill-rule="evenodd" clip-rule="evenodd" d="M22.5 13.25C17.3914 13.25 13.25 17.3914 13.25 22.5C13.25 23.9811 13.5975 25.3788 14.2148 26.6181C14.4625 27.1155 14.5579 27.7103 14.4016 28.2945L13.806 30.5205C13.6966 30.9293 14.0707 31.3034 14.4795 31.194L16.7055 30.5984C17.2897 30.4421 17.8845 30.5375 18.3819 30.7852C19.6212 31.4025 21.0189 31.75 22.5 31.75C27.6086 31.75 31.75 27.6086 31.75 22.5C31.75 17.3914 27.6086 13.25 22.5 13.25ZM11.75 22.5C11.75 16.5629 16.5629 11.75 22.5 11.75C28.4371 11.75 33.25 16.5629 33.25 22.5C33.25 28.4371 28.4371 33.25 22.5 33.25C20.7817 33.25 19.1555 32.8463 17.7131 32.1279C17.4979 32.0207 17.2781 31.9979 17.0932 32.0474L14.8672 32.643C13.3434 33.0507 11.9493 31.6566 12.357 30.1328L12.9526 27.9068C13.0021 27.7219 12.9793 27.5021 12.8721 27.2869C12.1537 25.8445 11.75 24.2183 11.75 22.5ZM17.75 21C17.75 20.5858 18.0858 20.25 18.5 20.25H26.5C26.9142 20.25 27.25 20.5858 27.25 21C27.25 21.4142 26.9142 21.75 26.5 21.75H18.5C18.0858 21.75 17.75 21.4142 17.75 21ZM17.75 24.5C17.75 24.0858 18.0858 23.75 18.5 23.75H24C24.4142 23.75 24.75 24.0858 24.75 24.5C24.75 24.9142 24.4142 25.25 24 25.25H18.5C18.0858 25.25 17.75 24.9142 17.75 24.5Z" fill="#020659"/>
</svg>
