<svg width="45" height="45" viewBox="0 0 45 45" fill="none" xmlns="http://www.w3.org/2000/svg">
<rect width="45" height="45" rx="22.5" fill="#F2F2F2"/>
<path fill-rule="evenodd" clip-rule="evenodd" d="M15.75 18.2003C15.75 14.6022 18.8088 11.75 22.5 11.75C26.108 11.75 29.1116 14.4749 29.2454 17.9579L29.7231 18.1171C30.1863 18.2715 30.5922 18.4068 30.9142 18.5566C31.2623 18.7185 31.5814 18.9271 31.8253 19.2655C32.0692 19.6039 32.1662 19.9726 32.2098 20.3541C32.2501 20.707 32.25 21.1348 32.25 21.623V27.3712C32.25 27.9806 32.2501 28.5005 32.2028 28.9176C32.153 29.3563 32.0418 29.7875 31.7404 30.1553C31.5674 30.3665 31.3573 30.5445 31.1205 30.6805C30.7081 30.9173 30.2645 30.9561 29.8236 30.933C29.4044 30.9111 28.8915 30.8256 28.2904 30.7254L28.2488 30.7185C26.956 30.503 26.4351 30.4216 25.9274 30.4641C25.7417 30.4796 25.5571 30.5074 25.375 30.5471C24.8774 30.6558 24.3988 30.8891 23.216 31.4805C23.1749 31.5011 23.1342 31.5214 23.094 31.5415C21.7114 32.2331 20.8595 32.6592 19.9403 32.7923C19.6638 32.8323 19.3848 32.8522 19.1055 32.8516C18.1767 32.8499 17.28 32.5508 15.8254 32.0657C15.7833 32.0517 15.7407 32.0375 15.6977 32.0231L15.3142 31.8953L15.2768 31.8828C14.8137 31.7285 14.4078 31.5932 14.0858 31.4434C13.7377 31.2815 13.4186 31.0729 13.1747 30.7345C12.9308 30.3961 12.8338 30.0274 12.7902 29.6459C12.7499 29.293 12.75 28.8652 12.75 28.377L12.75 23.3572C12.75 22.5711 12.7499 21.9085 12.8173 21.3895C12.8876 20.8478 13.0465 20.3181 13.4826 19.9198C13.6108 19.8027 13.7521 19.7009 13.9038 19.6163C14.4195 19.3285 14.9723 19.3452 15.5084 19.4498C15.6172 19.471 15.7311 19.4972 15.8502 19.5275C15.7841 19.0817 15.75 18.6372 15.75 18.2003ZM16.2487 21.2093C15.8207 21.0713 15.4922 20.975 15.2211 20.9221C14.826 20.845 14.6965 20.8917 14.6346 20.9262C14.584 20.9544 14.5369 20.9883 14.4942 21.0274C14.4419 21.0751 14.3566 21.1833 14.3048 21.5825C14.2515 21.9933 14.25 22.5575 14.25 23.408V28.3377C14.25 28.8768 14.2511 29.2181 14.2806 29.4758C14.3078 29.7143 14.3523 29.803 14.3916 29.8574C14.4308 29.9118 14.5008 29.9821 14.7185 30.0834C14.9536 30.1928 15.2771 30.3018 15.7885 30.4723L16.1721 30.6001C17.7956 31.1413 18.4509 31.3504 19.1083 31.3516C19.3148 31.352 19.521 31.3374 19.7254 31.3078C20.3758 31.2136 21.0009 30.911 22.5452 30.1389C22.5765 30.1232 22.6074 30.1078 22.638 30.0925C23.6987 29.562 24.352 29.2352 25.055 29.0817C25.3014 29.0279 25.551 28.9903 25.8023 28.9693C26.5193 28.9093 27.2344 29.0286 28.3945 29.2221C28.4278 29.2276 28.4614 29.2332 28.4954 29.2389C29.1497 29.3479 29.5779 29.4181 29.9019 29.4351C30.2138 29.4514 30.321 29.4098 30.3735 29.3797C30.4524 29.3344 30.5225 29.275 30.5801 29.2046C30.6185 29.1578 30.6771 29.0589 30.7123 28.7486C30.7489 28.4262 30.75 27.9923 30.75 27.329V21.6623C30.75 21.1232 30.7489 20.7819 30.7195 20.5242C30.6922 20.2857 30.6477 20.197 30.6084 20.1426C30.5692 20.0882 30.4992 20.0179 30.2815 19.9166C30.0464 19.8072 29.7229 19.6982 29.2115 19.5277L29.1527 19.5081C28.9625 20.8095 28.4996 22.1233 27.8173 23.2959C26.9048 24.864 25.5697 26.2299 23.8971 26.9595C23.0094 27.3468 21.9906 27.3468 21.1029 26.9595C19.4303 26.2299 18.0952 24.864 17.1827 23.2959C16.7987 22.636 16.4842 21.9313 16.2487 21.2093ZM22.5 13.25C19.5638 13.25 17.25 15.5021 17.25 18.2003C17.25 19.6177 17.6874 21.1808 18.4792 22.5415C19.2712 23.9026 20.3875 25.0109 21.7027 25.5847C22.208 25.8051 22.792 25.8051 23.2973 25.5847C24.6125 25.0109 25.7288 23.9026 26.5208 22.5415C27.3126 21.1808 27.75 19.6177 27.75 18.2003C27.75 15.5021 25.4362 13.25 22.5 13.25ZM22.5 17.25C21.8096 17.25 21.25 17.8096 21.25 18.5C21.25 19.1904 21.8096 19.75 22.5 19.75C23.1904 19.75 23.75 19.1904 23.75 18.5C23.75 17.8096 23.1904 17.25 22.5 17.25ZM19.75 18.5C19.75 16.9812 20.9812 15.75 22.5 15.75C24.0188 15.75 25.25 16.9812 25.25 18.5C25.25 20.0188 24.0188 21.25 22.5 21.25C20.9812 21.25 19.75 20.0188 19.75 18.5Z" fill="#020659"/>
</svg>
