<svg width="45" height="45" viewBox="0 0 45 45" fill="none" xmlns="http://www.w3.org/2000/svg">
<rect width="45" height="45" rx="22.5" fill="#F2F2F2"/>
<path fill-rule="evenodd" clip-rule="evenodd" d="M21.0936 12.8188C21.983 12.3937 23.017 12.3937 23.9064 12.8188C24.2928 13.0035 24.6468 13.3055 25.1371 13.7237C25.1625 13.7454 25.1883 13.7674 25.2146 13.7897C25.4526 13.9926 25.5276 14.055 25.6035 14.1059C25.7965 14.2352 26.0132 14.325 26.2411 14.3699C26.3307 14.3876 26.4278 14.3965 26.7396 14.4214C26.7739 14.4242 26.8078 14.4268 26.8411 14.4295C27.4834 14.4805 27.9473 14.5173 28.3511 14.6599C29.2807 14.9882 30.0118 15.7193 30.3401 16.6489C30.4827 17.0527 30.5195 17.5166 30.5705 18.1589C30.5732 18.1922 30.5758 18.2261 30.5786 18.2604C30.6035 18.5722 30.6124 18.6693 30.6301 18.7589C30.675 18.9868 30.7648 19.2036 30.8941 19.3965C30.945 19.4724 31.0074 19.5474 31.2103 19.7854C31.2326 19.8117 31.2546 19.8375 31.2763 19.8629C31.6945 20.3532 31.9965 20.7072 32.1812 21.0936C32.6063 21.983 32.6063 23.017 32.1812 23.9064C31.9965 24.2928 31.6945 24.6468 31.2764 25.1371C31.2546 25.1625 31.2326 25.1883 31.2103 25.2146C31.0074 25.4526 30.945 25.5276 30.8941 25.6035C30.7648 25.7965 30.675 26.0132 30.6301 26.2411C30.6124 26.3307 30.6035 26.4278 30.5786 26.7396C30.5758 26.7739 30.5732 26.8078 30.5705 26.8411C30.5195 27.4834 30.4827 27.9473 30.3401 28.3511C30.0118 29.2807 29.2807 30.0118 28.3511 30.3401C27.9473 30.4827 27.4834 30.5195 26.8411 30.5705C26.8078 30.5732 26.7739 30.5758 26.7396 30.5786C26.4278 30.6035 26.3307 30.6124 26.2411 30.6301C26.0132 30.675 25.7965 30.7648 25.6035 30.8941C25.5276 30.945 25.4526 31.0074 25.2146 31.2103C25.1883 31.2326 25.1625 31.2546 25.1371 31.2763C24.6468 31.6945 24.2928 31.9965 23.9064 32.1812C23.017 32.6063 21.983 32.6063 21.0936 32.1812C20.7072 31.9965 20.3531 31.6945 19.8629 31.2763C19.8375 31.2546 19.8116 31.2326 19.7854 31.2103C19.5474 31.0074 19.4724 30.945 19.3965 30.8941C19.2036 30.7648 18.9868 30.675 18.7589 30.6301C18.6693 30.6124 18.5722 30.6035 18.2604 30.5786C18.2261 30.5758 18.1922 30.5732 18.1589 30.5705C17.5166 30.5195 17.0527 30.4827 16.6489 30.3401C15.7193 30.0118 14.9882 29.2807 14.6599 28.3511C14.5173 27.9473 14.4805 27.4834 14.4295 26.8411C14.4268 26.8078 14.4242 26.7739 14.4214 26.7396C14.3965 26.4278 14.3876 26.3307 14.3699 26.2411C14.325 26.0132 14.2352 25.7965 14.1059 25.6035C14.055 25.5276 13.9926 25.4526 13.7897 25.2146C13.7674 25.1884 13.7454 25.1625 13.7237 25.1371C13.3055 24.6468 13.0035 24.2928 12.8188 23.9064C12.3937 23.017 12.3937 21.983 12.8188 21.0936C13.0035 20.7072 13.3055 20.3532 13.7237 19.8629C13.7454 19.8375 13.7674 19.8117 13.7897 19.7854C13.9926 19.5474 14.055 19.4724 14.1059 19.3965C14.2352 19.2036 14.325 18.9868 14.3699 18.7589C14.3876 18.6693 14.3965 18.5722 14.4214 18.2604C14.4242 18.2261 14.4268 18.1922 14.4295 18.1589C14.4805 17.5166 14.5173 17.0527 14.6599 16.6489C14.9882 15.7193 15.7193 14.9882 16.6489 14.6599C17.0527 14.5173 17.5166 14.4805 18.1589 14.4295C18.1922 14.4268 18.2261 14.4242 18.2604 14.4214C18.5722 14.3965 18.6693 14.3876 18.7589 14.3699C18.9868 14.325 19.2036 14.2352 19.3965 14.1059C19.4724 14.055 19.5474 13.9926 19.7854 13.7897C19.8117 13.7674 19.8375 13.7454 19.8629 13.7237C20.3532 13.3055 20.7072 13.0035 21.0936 12.8188ZM23.2573 14.1769C22.7784 13.948 22.2216 13.948 21.7427 14.1769C21.5576 14.2654 21.3624 14.4235 20.7618 14.9354C20.7519 14.9438 20.7422 14.9521 20.7326 14.9603C20.5354 15.1283 20.3916 15.251 20.2346 15.3562C19.8762 15.5964 19.4737 15.7631 19.0505 15.8467C18.8651 15.8833 18.6766 15.8983 18.4184 15.9188C18.4058 15.9198 18.393 15.9208 18.3801 15.9219C17.5935 15.9846 17.3437 16.0108 17.1502 16.0792C16.6497 16.256 16.256 16.6497 16.0792 17.1502C16.0108 17.3437 15.9846 17.5935 15.9219 18.3801C15.9208 18.393 15.9198 18.4058 15.9188 18.4184C15.8983 18.6766 15.8833 18.8651 15.8467 19.0505C15.7631 19.4737 15.5964 19.8762 15.3562 20.2346C15.251 20.3916 15.1283 20.5354 14.9603 20.7326C14.9521 20.7422 14.9438 20.7519 14.9354 20.7618C14.4235 21.3624 14.2654 21.5576 14.1769 21.7427C13.948 22.2216 13.948 22.7784 14.1769 23.2573C14.2654 23.4424 14.4235 23.6376 14.9354 24.2382C14.9438 24.2481 14.9521 24.2578 14.9603 24.2674C15.1283 24.4646 15.251 24.6084 15.3562 24.7654C15.5964 25.1238 15.7631 25.5263 15.8467 25.9495C15.8833 26.1349 15.8983 26.3234 15.9188 26.5816C15.9198 26.5942 15.9208 26.607 15.9219 26.6199C15.9846 27.4065 16.0108 27.6563 16.0792 27.8498C16.256 28.3503 16.6497 28.744 17.1502 28.9208C17.3437 28.9892 17.5935 29.0154 18.3801 29.0781L18.4184 29.0812C18.6766 29.1017 18.8651 29.1167 19.0505 29.1533C19.4737 29.2369 19.8762 29.4036 20.2346 29.6438C20.3916 29.749 20.5354 29.8717 20.7326 30.0397L20.7618 30.0646C21.3624 30.5765 21.5576 30.7346 21.7427 30.8231C22.2216 31.052 22.7784 31.052 23.2573 30.8231C23.4424 30.7346 23.6376 30.5765 24.2382 30.0646L24.2675 30.0397C24.4646 29.8717 24.6084 29.749 24.7654 29.6438C25.1238 29.4036 25.5263 29.2369 25.9495 29.1533C26.1349 29.1167 26.3234 29.1017 26.5816 29.0812L26.6199 29.0781C27.4065 29.0154 27.6563 28.9892 27.8498 28.9208C28.3503 28.744 28.744 28.3503 28.9208 27.8498C28.9892 27.6563 29.0154 27.4065 29.0781 26.6199L29.0812 26.5816C29.1017 26.3234 29.1167 26.1349 29.1533 25.9495C29.2369 25.5263 29.4036 25.1238 29.6438 24.7654C29.749 24.6084 29.8717 24.4646 30.0397 24.2675L30.0646 24.2382C30.5765 23.6376 30.7346 23.4424 30.8231 23.2573C31.052 22.7784 31.052 22.2216 30.8231 21.7427C30.7346 21.5576 30.5765 21.3624 30.0646 20.7618L30.0397 20.7325C29.8717 20.5354 29.749 20.3916 29.6438 20.2346C29.4036 19.8762 29.2369 19.4737 29.1533 19.0505C29.1167 18.8651 29.1017 18.6766 29.0812 18.4184L29.0781 18.3801C29.0154 17.5935 28.9892 17.3437 28.9208 17.1502C28.744 16.6497 28.3503 16.256 27.8498 16.0792C27.6563 16.0108 27.4065 15.9846 26.6199 15.9219C26.607 15.9208 26.5942 15.9198 26.5816 15.9188C26.3234 15.8983 26.1349 15.8833 25.9495 15.8467C25.5263 15.7631 25.1238 15.5964 24.7654 15.3562C24.6084 15.251 24.4646 15.1283 24.2674 14.9603C24.2578 14.9521 24.2481 14.9438 24.2382 14.9354C23.6376 14.4235 23.4424 14.2654 23.2573 14.1769Z" fill="#020659"/>
<path fill-rule="evenodd" clip-rule="evenodd" d="M26.0426 18.9574C26.3365 19.2513 26.3365 19.7278 26.0426 20.0217L20.0217 26.0426C19.7278 26.3365 19.2513 26.3365 18.9574 26.0426C18.6635 25.7487 18.6635 25.2722 18.9574 24.9783L24.9783 18.9574C25.2722 18.6635 25.7487 18.6635 26.0426 18.9574Z" fill="#020659"/>
<path d="M26.0122 25.0087C26.0122 25.5629 25.5629 26.0122 25.0087 26.0122C24.4545 26.0122 24.0052 25.5629 24.0052 25.0087C24.0052 24.4545 24.4545 24.0052 25.0087 24.0052C25.5629 24.0052 26.0122 24.4545 26.0122 25.0087Z" fill="#020659"/>
<path d="M20.9948 19.9913C20.9948 20.5455 20.5455 20.9948 19.9913 20.9948C19.4371 20.9948 18.9878 20.5455 18.9878 19.9913C18.9878 19.4371 19.4371 18.9878 19.9913 18.9878C20.5455 18.9878 20.9948 19.4371 20.9948 19.9913Z" fill="#020659"/>
</svg>
