<svg width="24" height="24" viewBox="0 0 24 24" fill="none" xmlns="http://www.w3.org/2000/svg">
<path d="M24 11.9996C23.9858 9.69536 23.3166 7.44333 22.0715 5.50942C20.8263 3.5755 19.0572 2.04047 16.973 1.08557C14.8888 0.13067 12.5765 -0.204211 10.3092 0.120467C8.04198 0.445145 5.9144 1.41582 4.17771 2.91788C2.44103 4.41994 1.16778 6.39066 0.508309 8.59732C-0.151161 10.804 -0.169311 13.1544 0.456003 15.3711C1.08132 17.5878 2.32398 19.5782 4.03726 21.1073C5.75053 22.6363 7.86287 23.6401 10.1249 24.0002V15.5114H7.07983V11.9996H10.1267V9.32333C10.1267 6.2788 11.9183 4.59685 14.6591 4.59685C15.5592 4.61026 16.4571 4.69098 17.3453 4.83834V7.82732H15.8303C14.3393 7.82732 13.8749 8.76368 13.8749 9.72479V12.0038H17.2025L16.6709 15.5156H13.8737V24.0002C16.7044 23.5388 19.2788 22.0771 21.1348 19.8776C22.9908 17.6781 24.0066 14.8849 24 11.9996Z" fill="#1877F2"/>
</svg>
