<svg width="40" height="40" viewBox="0 0 40 40" fill="none" xmlns="http://www.w3.org/2000/svg">
<path d="M40 20.122C39.9764 16.3053 38.8611 12.575 36.7859 9.37161C34.7106 6.16825 31.7621 3.62559 28.2884 2.04388C24.8148 0.462172 20.9611 -0.0925309 17.1823 0.445271C13.4036 0.983073 9.85761 2.59092 6.96316 5.07896C4.06872 7.56699 1.94665 10.8313 0.847542 14.4865C-0.251567 18.1416 -0.281816 22.0349 0.760365 25.7067C1.80255 29.3785 3.87363 32.6754 6.72907 35.2081C9.58451 37.7408 13.105 39.4036 16.875 40V25.939H11.8V20.122H16.878V15.689C16.878 10.646 19.864 7.86003 24.432 7.86003C25.9322 7.88224 27.4286 8.01594 28.909 8.26003V13.211H26.384C23.899 13.211 23.125 14.762 23.125 16.354V20.129H28.671L27.785 25.946H23.123V40C27.8407 39.2357 32.1315 36.8145 35.2247 33.1712C38.318 29.528 40.0111 24.9013 40 20.122Z" fill="#1877F2"/>
</svg>
