<svg width="45" height="45" viewBox="0 0 45 45" fill="none" xmlns="http://www.w3.org/2000/svg">
<rect width="45" height="45" rx="22.5" fill="#F2F2F2"/>
<path fill-rule="evenodd" clip-rule="evenodd" d="M26.083 11.92C27.395 12.3615 28.2501 13.596 28.2501 15.2145C28.2501 16.2321 27.6716 17.1687 27.027 17.9159C26.3644 18.684 25.5257 19.3733 24.7921 19.9081C24.7607 19.931 24.7295 19.9537 24.6986 19.9763C23.9866 20.4966 23.3992 20.9258 22.5001 20.9258C21.6009 20.9258 21.0135 20.4966 20.3015 19.9763C20.2706 19.9537 20.2394 19.931 20.208 19.908C19.4744 19.3733 18.6357 18.684 17.9731 17.9159C17.3285 17.1687 16.7501 16.2321 16.7501 15.2146C16.7501 13.596 17.6051 12.3615 18.9171 11.92C20.0362 11.5434 21.3388 11.7919 22.5001 12.6372C23.6613 11.7919 24.9639 11.5434 26.083 11.92ZM25.6046 13.3416C24.9525 13.1222 23.9802 13.2641 23.0076 14.1581C22.7206 14.4219 22.2795 14.4219 21.9925 14.1581C21.0199 13.2641 20.0476 13.1222 19.3956 13.3416C18.7701 13.5521 18.2501 14.1559 18.2501 15.2146C18.2501 15.6821 18.5346 16.2703 19.1089 16.9361C19.6652 17.5809 20.4014 18.1928 21.0916 18.6959C21.9347 19.3105 22.1351 19.4258 22.5001 19.4258C22.865 19.4258 23.0654 19.3105 23.9085 18.6959C24.5987 18.1928 25.3349 17.5809 25.8912 16.9361C26.4655 16.2703 26.7501 15.6821 26.7501 15.2145C26.7501 14.1559 26.23 13.5521 25.6046 13.3416ZM19.184 24.948C21.0498 24.5865 23.0471 24.6676 24.6633 25.6316C24.8903 25.767 25.1031 25.9357 25.2888 26.1442C25.6646 26.5664 25.8588 27.0911 25.8679 27.6172C26.0592 27.4938 26.2508 27.3568 26.4454 27.2098L28.2526 25.8446C29.1572 25.1613 30.4718 25.1612 31.3765 25.8443C32.2125 26.4755 32.5457 27.6083 31.9473 28.5675C31.522 29.2493 30.8815 30.1922 30.2296 30.796C29.5707 31.4063 28.6329 31.9194 27.9236 32.2618C27.0621 32.6776 26.1316 32.9075 25.2269 33.0539C23.3777 33.3532 21.4535 33.3074 19.6251 32.9308C18.6906 32.7382 17.7196 32.6382 16.76 32.6382H14.5001C14.0858 32.6382 13.7501 32.3024 13.7501 31.8882C13.7501 31.474 14.0858 31.1382 14.5001 31.1382H16.76C17.8221 31.1382 18.8945 31.2487 19.9277 31.4616C21.5798 31.802 23.3202 31.843 24.9872 31.5732C25.8161 31.439 26.5901 31.2398 27.2715 30.9109C27.9549 30.581 28.7233 30.1466 29.2104 29.6955C29.7029 29.2393 30.2541 28.4477 30.6747 27.7736C30.8016 27.5701 30.784 27.2765 30.4727 27.0414C30.1029 26.7622 29.5264 26.7623 29.1567 27.0415L27.3496 28.4067C26.6281 28.9516 25.7402 29.5347 24.6388 29.7103C24.5276 29.7281 24.4119 29.7443 24.2918 29.7586C24.2345 29.7689 24.1749 29.7758 24.1133 29.7781C23.551 29.834 22.8998 29.847 22.1813 29.7791C21.7689 29.7402 21.4662 29.3743 21.5051 28.9619C21.5441 28.5495 21.91 28.2468 22.3223 28.2858C22.9498 28.345 23.5127 28.3319 23.9903 28.2829C24 28.2819 24.0096 28.2809 24.0192 28.2799C24.0392 28.2683 24.0697 28.2472 24.1096 28.2122C24.4291 27.9334 24.4576 27.4665 24.1684 27.1416C24.0951 27.0593 24.0049 26.9854 23.8949 26.9198C22.7138 26.2153 21.1363 26.0976 19.4693 26.4206C17.8117 26.7417 16.165 27.4815 14.9339 28.3545C14.596 28.5941 14.1279 28.5144 13.8883 28.1766C13.6487 27.8387 13.7283 27.3706 14.0662 27.1309C15.4646 26.1393 17.3087 25.3113 19.184 24.948Z" fill="#020659"/>
</svg>
