<svg width="45" height="45" viewBox="0 0 45 45" fill="none" xmlns="http://www.w3.org/2000/svg">
<rect width="45" height="45" rx="22.5" fill="#F2F2F2"/>
<path fill-rule="evenodd" clip-rule="evenodd" d="M21.7383 13.2989C21.1243 13.38 20.366 13.5542 19.2874 13.8031L18.0592 14.0865C17.1482 14.2968 16.5208 14.4425 16.0416 14.607C15.579 14.7658 15.3173 14.9223 15.1198 15.1198C14.9223 15.3173 14.7658 15.579 14.607 16.0416C14.4425 16.5208 14.2968 17.1482 14.0865 18.0592L13.8031 19.2874C13.5542 20.366 13.38 21.1243 13.2989 21.7383C13.2198 22.3365 13.2381 22.7413 13.3436 23.1092C13.4491 23.4772 13.6482 23.8301 14.0323 24.2954C14.4265 24.7731 14.9761 25.3238 15.7588 26.1066L17.5885 27.9362C18.9479 29.2957 19.9153 30.2608 20.747 30.8954C21.5614 31.5167 22.1569 31.75 22.7623 31.75C23.3678 31.75 23.9633 31.5167 24.7776 30.8954C25.6093 30.2608 26.5767 29.2957 27.9362 27.9362C29.2957 26.5767 30.2608 25.6093 30.8954 24.7776C31.5167 23.9633 31.75 23.3678 31.75 22.7623C31.75 22.1569 31.5167 21.5614 30.8954 20.747C30.2608 19.9153 29.2957 18.9479 27.9362 17.5885L26.1066 15.7588C25.3238 14.9761 24.7731 14.4265 24.2954 14.0323C23.8301 13.6482 23.4772 13.4491 23.1092 13.3436C22.7413 13.2381 22.3365 13.2198 21.7383 13.2989ZM21.5418 11.8118C22.2591 11.717 22.8881 11.7197 23.5227 11.9017C24.1574 12.0837 24.6922 12.4148 25.2502 12.8754C25.7897 13.3206 26.3905 13.9214 27.141 14.672L29.0368 16.5677C30.3474 17.8783 31.3851 18.916 32.0879 19.8371C32.811 20.7849 33.25 21.697 33.25 22.7623C33.25 23.8276 32.811 24.7397 32.0879 25.6875C31.3851 26.6087 30.3474 27.6463 29.0368 28.9569L28.9569 29.0368C27.6463 30.3474 26.6087 31.3851 25.6875 32.0879C24.7397 32.811 23.8276 33.25 22.7623 33.25C21.697 33.25 20.7849 32.811 19.8371 32.0879C18.916 31.3851 17.8783 30.3474 16.5677 29.0368L14.672 27.141C13.9214 26.3905 13.3206 25.7897 12.8754 25.2502C12.4148 24.6922 12.0837 24.1574 11.9017 23.5227C11.7197 22.8881 11.717 22.2591 11.8118 21.5418C11.9034 20.8484 12.0945 20.0205 12.3332 18.9862L12.6339 17.6833C12.833 16.8202 12.9954 16.1164 13.1882 15.5547C13.3895 14.9681 13.6431 14.4751 14.0591 14.0591C14.4751 13.6431 14.9681 13.3895 15.5547 13.1882C16.1164 12.9954 16.8202 12.833 17.6833 12.6339L18.9862 12.3332C20.0205 12.0945 20.8484 11.9034 21.5418 11.8118ZM19.9909 18.4951C19.5028 18.007 18.7113 18.007 18.2232 18.4951C17.735 18.9833 17.735 19.7748 18.2232 20.2629C18.7113 20.7511 19.5028 20.7511 19.9909 20.2629C20.4791 19.7748 20.4791 18.9833 19.9909 18.4951ZM17.1625 17.4345C18.2365 16.3605 19.9777 16.3605 21.0516 17.4345C22.1255 18.5084 22.1255 20.2496 21.0516 21.3236C19.9777 22.3975 18.2365 22.3975 17.1625 21.3236C16.0886 20.2496 16.0886 18.5084 17.1625 17.4345ZM29.5511 21.4902C29.844 21.7831 29.844 22.2579 29.5511 22.5508L22.5721 29.5301C22.2792 29.823 21.8043 29.823 21.5114 29.5301C21.2185 29.2372 21.2185 28.7623 21.5114 28.4694L28.4904 21.4902C28.7833 21.1973 29.2582 21.1973 29.5511 21.4902Z" fill="#020659"/>
</svg>
