<svg width="113" height="136" viewBox="0 0 113 136" fill="none" xmlns="http://www.w3.org/2000/svg">
<g filter="url(#filter0_d_24_2131)">
<rect x="25" y="46" width="40" height="40" rx="20" fill="#F2F2F2"/>
</g>
<path d="M57.0002 66.248C57.0146 65.4215 56.9276 64.5964 56.7412 63.791H45.2412V68.251H51.9912C51.8616 69.0369 51.573 69.7881 51.1432 70.4587C50.7133 71.1293 50.1512 71.7051 49.4912 72.151L49.4682 72.3L53.1042 75.064L53.3562 75.089C54.5555 73.9576 55.5007 72.5844 56.1295 71.0603C56.7582 69.5362 57.056 67.8959 57.0032 66.248" fill="#4285F4"/>
<path d="M45.2491 78C48.223 78.0864 51.1199 77.0467 53.3601 75.089L49.4951 72.151C48.5385 72.7661 47.4556 73.1577 46.3269 73.2968C45.1982 73.4359 44.0526 73.3189 42.9753 72.9545C41.898 72.5901 40.9166 71.9876 40.1041 71.1918C39.2916 70.3961 38.6689 69.4275 38.2821 68.358L38.1381 68.37L34.3571 71.241L34.3081 71.376C35.346 73.3799 36.9167 75.0586 38.8473 76.2273C40.7778 77.396 42.9924 78.0094 45.2491 78Z" fill="#34A853"/>
<path d="M38.2811 68.377C38.0138 67.6129 37.8759 66.8095 37.8731 66C37.8783 65.1918 38.0116 64.3895 38.2681 63.623L38.2611 63.464L34.4321 60.546L34.3071 60.604C33.4485 62.2729 33.0005 64.1227 33.0005 65.9995C33.0005 67.8764 33.4485 69.7261 34.3071 71.395L38.2811 68.377Z" fill="#FBBC05"/>
<path d="M45.2451 58.647C46.9948 58.617 48.6896 59.2575 49.9821 60.437L53.4371 57.125C51.2046 55.0773 48.2743 53.9595 45.2451 54C42.989 53.9908 40.774 54.6043 38.8441 55.773C36.9142 56.9418 35.3443 58.6204 34.3071 60.624L38.2661 63.642C38.7646 62.1865 39.705 60.9229 40.9561 60.0274C42.2072 59.132 43.7066 58.6494 45.2451 58.647Z" fill="#EB4335"/>
<defs>
<filter id="filter0_d_24_2131" x="-23" y="0" width="136" height="136" filterUnits="userSpaceOnUse" color-interpolation-filters="sRGB">
<feFlood flood-opacity="0" result="BackgroundImageFix"/>
<feColorMatrix in="SourceAlpha" type="matrix" values="0 0 0 0 0 0 0 0 0 0 0 0 0 0 0 0 0 0 127 0" result="hardAlpha"/>
<feOffset dy="2"/>
<feGaussianBlur stdDeviation="24"/>
<feColorMatrix type="matrix" values="0 0 0 0 0 0 0 0 0 0 0 0 0 0 0 0 0 0 0.05 0"/>
<feBlend mode="normal" in2="BackgroundImageFix" result="effect1_dropShadow_24_2131"/>
<feBlend mode="normal" in="SourceGraphic" in2="effect1_dropShadow_24_2131" result="shape"/>
</filter>
</defs>
</svg>
