<svg width="24" height="24" viewBox="0 0 24 24" fill="none" xmlns="http://www.w3.org/2000/svg">
<path d="M24.0002 12.248C24.0146 11.4215 23.9276 10.5964 23.7412 9.79102H12.2412V14.251H18.9912C18.8616 15.0369 18.573 15.7881 18.1432 16.4587C17.7133 17.1293 17.1512 17.7051 16.4912 18.151L16.4682 18.3L20.1042 21.064L20.3562 21.089C21.5555 19.9576 22.5007 18.5844 23.1295 17.0603C23.7582 15.5362 24.056 13.8959 24.0032 12.248" fill="#4285F4"/>
<path d="M12.2491 24C15.223 24.0864 18.1199 23.0467 20.3601 21.089L16.4951 18.151C15.5385 18.7661 14.4556 19.1577 13.3269 19.2968C12.1982 19.4359 11.0526 19.3189 9.97527 18.9545C8.89796 18.5901 7.91661 17.9876 7.10411 17.1918C6.29161 16.3961 5.66886 15.4275 5.28211 14.358L5.13811 14.37L1.35711 17.241L1.30811 17.376C2.34602 19.3799 3.9167 21.0586 5.84725 22.2273C7.7778 23.396 9.99238 24.0094 12.2491 24Z" fill="#34A853"/>
<path d="M5.28114 14.377C5.01382 13.6129 4.87593 12.8095 4.87314 12C4.8783 11.1918 5.01162 10.3895 5.26814 9.62302L5.26114 9.46403L1.43214 6.54602L1.30714 6.60403C0.448451 8.27293 0.000488281 10.1227 0.000488281 11.9995C0.000488281 13.8764 0.448451 15.7261 1.30714 17.395L5.28114 14.377Z" fill="#FBBC05"/>
<path d="M12.2451 4.64703C13.9948 4.61703 15.6896 5.25746 16.9821 6.43703L20.4371 3.12503C18.2046 1.0773 15.2743 -0.0405205 12.2451 2.81872e-05C9.98897 -0.0092094 7.774 0.604311 5.84412 1.77304C3.91424 2.94176 2.34429 4.62037 1.30713 6.62403L5.26613 9.64203C5.7646 8.18649 6.70499 6.92285 7.95609 6.02742C9.20719 5.13198 10.7066 4.64941 12.2451 4.64703Z" fill="#EB4335"/>
</svg>
