<svg width="32" height="24" viewBox="0 0 32 24" fill="none" xmlns="http://www.w3.org/2000/svg">
<path d="M0 16H32V24H0V16Z" fill="#252525"/>
<path d="M0 8H32V16H0V8Z" fill="white"/>
<path d="M0 0H32V8.00002H0V0Z" fill="#CE1126"/>
<path d="M16.032 12.0962L18.772 14.6402L18.576 10.0202C18.548 9.32022 17.94 9.48022 17.496 9.73222C17.052 10.0202 16.536 10.0202 16 9.83222C15.46 10.0202 14.948 10.0202 14.504 9.73222C14.064 9.48022 13.452 9.32022 13.424 10.0202L13.228 14.6402L16.032 12.0962Z" fill="white" stroke="#C09300" stroke-width="0.329056" stroke-linejoin="round"/>
<path d="M13.74 9.86035L13.548 14.3532L13.228 14.6413L13.424 10.0204C13.5185 9.9479 13.6257 9.89363 13.74 9.86035ZM14.124 10.1804L13.964 13.9412L13.644 14.2692L13.836 9.92836C13.9 9.99238 14.088 10.1484 14.124 10.1804ZM14.472 10.4685L14.348 13.6051L14.088 13.8571L14.248 10.2804C14.312 10.3404 14.44 10.4325 14.472 10.4685ZM14.852 10.6285L14.728 13.301L14.476 13.5051L14.6 10.5325C14.664 10.5605 14.788 10.6285 14.852 10.6285ZM15.204 10.6285L15.112 12.8569L14.852 13.109L14.952 10.6565C15.012 10.6565 15.176 10.6565 15.204 10.6285Z" fill="#C09300"/>
<path d="M18.26 9.86035L18.452 14.3532L18.772 14.6413L18.576 10.0204C18.4815 9.9479 18.3743 9.89363 18.26 9.86035ZM17.876 10.1804L18.036 13.9412L18.356 14.2692L18.164 9.92836C18.1 9.99238 17.912 10.1484 17.876 10.1804ZM17.528 10.4685L17.652 13.6051L17.912 13.8571L17.752 10.2804C17.688 10.3404 17.56 10.4325 17.528 10.4685ZM17.148 10.6285L17.272 13.301L17.524 13.5051L17.4 10.5325C17.336 10.5605 17.212 10.6285 17.148 10.6285ZM16.796 10.6285L16.888 12.8569L17.148 13.109L17.048 10.6565C16.988 10.6565 16.824 10.6565 16.796 10.6285Z" fill="#C09300"/>
<path d="M16.128 12.6006L16.512 14.3529L16.384 14.481L16.252 14.3809L16.036 12.8206L16.128 14.3809L16 14.541L15.876 14.3809L15.968 12.8206L15.748 14.3809L15.616 14.481L15.488 14.3529L15.872 12.6046H16.128V12.6006Z" fill="#C09300" stroke="#C09300" stroke-width="0.278432"/>
<path d="M15.14 11.8325L14.376 14.5411L15.428 14.7011L15.872 12.6647L15.14 11.8325Z" fill="white" stroke="#C09300" stroke-width="0.303744" stroke-linejoin="round"/>
<path d="M14.8879 12.7608L14.9799 12.9809L15.4759 12.5088" stroke="#C09300" stroke-width="0.329056" stroke-linejoin="round"/>
<path d="M15.2319 12.2007L15.3359 13.1729L15.6519 12.7568M15.5239 12.9168L15.6959 13.5169M15.7639 13.2969L15.4159 13.825M15.5239 14.3531L15.4119 13.825M15.4119 13.825L15.3159 13.2889L15.0799 13.605L14.9799 13.2409L14.6519 13.577L14.8159 14.1851L15.0479 13.809L15.1719 14.1931L15.4119 13.825Z" stroke="#C09300" stroke-width="0.329056" stroke-linejoin="round"/>
<path d="M14.6001 14.4812L14.8121 14.1812L14.9481 14.6412L15.1401 14.3212L15.2641 14.7053" stroke="#C09300" stroke-width="0.329056" stroke-linejoin="round"/>
<path d="M16.86 11.8325L17.624 14.5411L16.572 14.7011L16.128 12.6647L16.86 11.8325Z" fill="white" stroke="#C09300" stroke-width="0.303744" stroke-linejoin="round"/>
<path d="M17.1121 12.7608L17.0201 12.9809L16.5241 12.5088" stroke="#C09300" stroke-width="0.329056" stroke-linejoin="round"/>
<path d="M16.7681 12.2007L16.6641 13.1729L16.3481 12.7568M16.4761 12.9168L16.3041 13.5169M16.2361 13.2969L16.5841 13.825M16.4761 14.3531L16.5881 13.825M16.5881 13.825L16.6841 13.2889L16.9201 13.605L17.0201 13.2409L17.3481 13.577L17.1841 14.1851L16.9521 13.809L16.8281 14.1931L16.5881 13.825Z" stroke="#C09300" stroke-width="0.329056" stroke-linejoin="round"/>
<path d="M17.3999 14.4812L17.1879 14.1812L17.0519 14.6412L16.8599 14.3212L16.7359 14.7053" stroke="#C09300" stroke-width="0.329056" stroke-linejoin="round"/>
<path d="M15.9998 15.752C16.7998 15.752 17.5598 15.688 18.0078 15.564C18.1958 15.5279 18.1958 15.4319 18.1958 15.3039C18.3878 15.2399 18.2918 15.0158 18.4238 15.0158C18.2878 15.0559 18.2638 14.7958 18.1038 14.8278C18.1038 14.6038 17.8758 14.5758 17.6878 14.6398C17.3078 14.7638 16.6358 14.7958 15.9998 14.7958C15.3598 14.7638 14.6958 14.7638 14.3118 14.6358C14.1238 14.5758 13.8998 14.6038 13.8998 14.8278C13.7398 14.7958 13.7118 15.0519 13.5798 15.0158C13.7118 15.0158 13.6118 15.2439 13.8038 15.3039C13.8038 15.4319 13.8038 15.5279 13.9958 15.564C14.4358 15.688 15.2038 15.752 15.9998 15.752Z" fill="white" stroke="#C09300" stroke-width="0.607489" stroke-linecap="round" stroke-linejoin="round"/>
<path d="M14.916 14.5401C15.172 14.5761 15.46 14.6041 15.684 14.5761C15.812 14.5761 15.904 14.7962 15.648 14.8282C15.428 14.8562 15.076 14.8282 14.888 14.7962C14.6405 14.7528 14.395 14.6994 14.152 14.6361C13.928 14.5401 14.088 14.3561 14.216 14.3801C14.4443 14.4532 14.6785 14.5068 14.916 14.5401ZM17.084 14.5401C16.828 14.5761 16.54 14.6041 16.324 14.5761C16.188 14.5761 16.096 14.7962 16.352 14.8282C16.576 14.8562 16.924 14.8282 17.112 14.7962C17.272 14.7641 17.624 14.7041 17.848 14.6361C18.072 14.5401 17.912 14.3561 17.784 14.3801C17.5556 14.4533 17.3214 14.5068 17.084 14.5401Z" fill="white" stroke="#C09300" stroke-width="0.329056" stroke-linecap="round" stroke-linejoin="round"/>
<path d="M14.12 14.4155C13.928 14.3795 13.84 14.6035 13.9 14.7316C13.928 14.6675 14.06 14.6675 14.088 14.6035C14.124 14.5075 14.06 14.5075 14.124 14.4155H14.12ZM14.888 15.0036C14.888 14.8756 15.012 14.8916 15.012 14.7636C15.012 14.7035 14.98 14.6035 14.916 14.6035C14.8826 14.6054 14.8512 14.6195 14.8276 14.6431C14.804 14.6668 14.7899 14.6982 14.788 14.7316C14.76 14.8556 14.888 14.8756 14.888 15.0036ZM15.796 14.6395C15.984 14.6395 15.964 14.8916 15.876 15.0196C15.876 14.9276 15.716 14.8916 15.716 14.8276C15.716 14.7316 15.86 14.7316 15.796 14.6395ZM17.876 14.4155C18.072 14.3795 18.164 14.6035 18.1 14.7316C18.072 14.6675 17.94 14.6675 17.912 14.6035C17.876 14.5075 17.94 14.5075 17.876 14.4155ZM17.12 14.9996C17.12 14.8716 16.992 14.8876 16.992 14.7596C16.992 14.6995 17.024 14.5995 17.088 14.5995C17.1213 14.6014 17.1528 14.6155 17.1764 14.6391C17.2 14.6628 17.2141 14.6942 17.216 14.7276C17.244 14.8516 17.116 14.8716 17.116 14.9996H17.12ZM16.2 14.6395C16.012 14.6395 16.032 14.8916 16.12 15.0196C16.12 14.9276 16.28 14.8916 16.28 14.8276C16.28 14.7316 16.136 14.7316 16.2 14.6395Z" fill="white" stroke="#C09300" stroke-width="0.329056" stroke-linecap="round" stroke-linejoin="round"/>
<path d="M14.188 14.48C14.252 14.48 14.348 14.508 14.376 14.544L14.188 14.48ZM14.504 14.576C14.536 14.576 14.664 14.604 14.724 14.64L14.504 14.576ZM15.648 14.704C15.588 14.704 15.46 14.704 15.428 14.732L15.648 14.7V14.704ZM15.3 14.704C15.264 14.668 15.14 14.668 15.076 14.704H15.3ZM17.812 14.48C17.7441 14.4808 17.6783 14.5033 17.624 14.544L17.812 14.48ZM17.5 14.576C17.46 14.576 17.34 14.604 17.276 14.64L17.5 14.576ZM16.352 14.704C16.412 14.704 16.54 14.704 16.576 14.732L16.352 14.7V14.704ZM16.7 14.704C16.736 14.668 16.86 14.668 16.924 14.704H16.7Z" fill="white" stroke="#C09300" stroke-width="0.227808" stroke-linecap="round" stroke-linejoin="round"/>
<path d="M14.132 14.9841C14.112 14.9801 14.1 14.9601 14.108 14.9441C14.112 14.9161 14.132 14.9041 14.148 14.9121C14.164 14.9121 14.184 14.9361 14.184 14.9441L14.168 14.9721L14.16 14.9761C14.16 14.9841 14.144 14.9841 14.132 14.9841ZM16.332 15.1401C16.324 15.1401 16.308 15.1201 16.308 15.1121C16.308 15.0961 16.332 15.0721 16.348 15.0721L16.38 15.0881C16.392 15.1001 16.392 15.1241 16.376 15.1361C16.368 15.1441 16.344 15.1441 16.332 15.1361V15.1401ZM16.344 15.2402C16.328 15.2322 16.324 15.2242 16.32 15.2082C16.32 15.1882 16.32 15.1842 16.34 15.1722L16.356 15.1642L16.372 15.1722C16.388 15.1802 16.4 15.1882 16.4 15.2042C16.4 15.2162 16.388 15.2282 16.372 15.2362C16.36 15.2442 16.356 15.2442 16.344 15.2362V15.2402Z" fill="#C09300"/>
<path d="M14.3121 14.7998C14.2961 14.7998 14.2761 14.8158 14.2641 14.8238C14.2401 14.8278 14.2081 14.8438 14.1841 14.8238C14.1601 14.8198 14.1281 14.8238 14.1241 14.8558C14.1281 14.8838 14.1641 14.8958 14.1881 14.8798C14.2041 14.8598 14.2481 14.8438 14.2561 14.8798C14.2361 14.9118 14.2401 14.9478 14.2241 14.9758C14.2241 14.9958 14.2121 15.0118 14.2041 15.0279C14.1841 15.0279 14.1641 15.0279 14.1481 15.0399C14.1357 15.0399 14.1234 15.0427 14.1123 15.0483C14.1012 15.0539 14.0915 15.0619 14.0841 15.0719C14.0681 15.0959 14.0521 15.1199 14.0481 15.1519C14.0521 15.1759 14.0881 15.1839 14.1121 15.1879L14.1921 15.2119L14.3201 15.2479C14.3841 15.2679 14.4481 15.2759 14.5121 15.2919L14.5321 15.2959C14.5601 15.3039 14.5721 15.2759 14.5721 15.2559L14.6121 15.1119C14.6201 15.0919 14.6321 15.0519 14.5961 15.0599C14.5761 15.0719 14.5561 15.0919 14.5321 15.0919C14.4961 15.0919 14.5161 15.1319 14.5321 15.1439C14.5321 15.1679 14.5241 15.1959 14.5121 15.2159C14.4881 15.2279 14.4641 15.2159 14.4401 15.2079C14.4201 15.2079 14.3721 15.1959 14.3921 15.1679L14.4121 15.0959C14.4241 15.0719 14.4241 15.0439 14.4321 15.0158C14.4161 14.9878 14.3921 15.0278 14.3721 15.0319C14.3561 15.0399 14.3081 15.0439 14.3321 15.0719C14.3561 15.0879 14.3401 15.1159 14.3321 15.1399C14.3321 15.1679 14.3001 15.1799 14.2761 15.1679C14.2521 15.1679 14.2161 15.1479 14.2361 15.1239L14.2561 15.0519L14.2841 14.9718C14.2841 14.9438 14.2961 14.9238 14.3081 14.8998C14.3081 14.8718 14.3281 14.8478 14.3281 14.8198C14.3281 14.8078 14.3201 14.8038 14.3121 14.8038V14.7998ZM14.1641 15.0919C14.1659 15.0908 14.168 15.0903 14.1701 15.0903C14.1722 15.0903 14.1743 15.0908 14.1761 15.0919C14.1841 15.0999 14.1841 15.1079 14.1761 15.1159L14.1641 15.1239C14.1441 15.1239 14.1401 15.1199 14.1401 15.1119C14.1401 15.1079 14.1401 15.1039 14.1521 15.0999C14.157 15.0964 14.1624 15.0937 14.1681 15.0919H14.1641ZM14.1241 15.2919C14.1041 15.2759 14.1081 15.2639 14.1361 15.2399C14.1521 15.2319 14.1561 15.2319 14.1721 15.2439C14.1961 15.2639 14.1961 15.2759 14.1721 15.2959C14.1641 15.3039 14.1601 15.3039 14.1521 15.3039C14.1401 15.3039 14.1361 15.3039 14.1241 15.2959V15.2919ZM14.2441 15.3319C14.2352 15.3291 14.2277 15.323 14.2232 15.3148C14.2187 15.3066 14.2176 15.2969 14.2201 15.2879C14.2281 15.2719 14.2321 15.2679 14.2561 15.2679C14.2841 15.2679 14.2881 15.2719 14.2921 15.2959C14.2921 15.3119 14.2921 15.3159 14.2801 15.3239C14.2756 15.3274 14.2705 15.33 14.265 15.3314C14.2594 15.3327 14.2537 15.3329 14.2481 15.3319H14.2441ZM17.8121 15.3319C17.8041 15.3279 17.8001 15.3239 17.8001 15.3119C17.8001 15.2959 17.8081 15.2839 17.8321 15.2759C17.8561 15.2639 17.8721 15.2639 17.8801 15.2839C17.8921 15.3079 17.8921 15.3159 17.8761 15.3319C17.8681 15.3439 17.8641 15.3439 17.8441 15.3439C17.8241 15.3439 17.8201 15.3439 17.8121 15.3359V15.3319ZM14.4121 15.3799C14.3961 15.3799 14.3881 15.3639 14.3881 15.3479C14.3881 15.3359 14.3881 15.3319 14.3961 15.3239L14.4201 15.3159L14.4441 15.3199C14.4641 15.3359 14.4681 15.3519 14.4561 15.3679C14.4441 15.3839 14.4321 15.3839 14.4081 15.3799H14.4121ZM15.2841 15.4199L15.2761 15.4079C15.2761 15.3839 15.2761 15.3639 15.2841 15.3399C15.2881 15.3199 15.2841 15.2999 15.2921 15.2799L15.3081 15.1679C15.3081 15.1479 15.3081 15.1279 15.3161 15.1119C15.3201 15.0799 15.3161 15.0519 15.3241 15.0238C15.3241 15.0118 15.3361 14.9838 15.3481 14.9998C15.3641 15.0238 15.3841 15.0399 15.4041 15.0599C15.4201 15.0719 15.4041 15.0879 15.3921 15.0919C15.3761 15.0959 15.3721 15.1159 15.3721 15.1319L15.3641 15.1799C15.3641 15.2079 15.3641 15.2319 15.3561 15.2599L15.3521 15.3319L15.3441 15.3799C15.3441 15.3959 15.3441 15.4159 15.3281 15.4239C15.3161 15.4319 15.2961 15.4319 15.2881 15.4199H15.2841ZM16.4721 15.0279L16.4201 15.0759C16.3961 15.0959 16.4401 15.1039 16.4441 15.1199C16.4521 15.1439 16.4521 15.1679 16.4521 15.1919C16.4601 15.2159 16.4641 15.2359 16.4601 15.2599C16.4601 15.2879 16.4281 15.2799 16.4121 15.2959C16.3921 15.3039 16.3841 15.3239 16.3721 15.3359C16.3626 15.356 16.3571 15.3777 16.3561 15.3999C16.3561 15.4199 16.3441 15.4399 16.3561 15.4559L16.3601 15.4639H16.3801L16.4401 15.4599C16.4881 15.4519 16.5401 15.4519 16.5881 15.4479L16.6761 15.4399C16.7001 15.4439 16.7121 15.4199 16.7121 15.3999C16.6961 15.3719 16.7081 15.3439 16.6961 15.3199C16.6881 15.2879 16.6921 15.2599 16.6881 15.2319C16.6881 15.2079 16.6601 15.1999 16.6481 15.2159C16.6321 15.2319 16.6081 15.2359 16.6001 15.2519C16.5881 15.2759 16.6241 15.2759 16.6321 15.2919L16.6361 15.3519C16.6401 15.3759 16.6161 15.3759 16.5961 15.3799C16.5761 15.3879 16.5481 15.3919 16.5361 15.3679C16.5281 15.3479 16.5281 15.3279 16.5281 15.3079C16.5281 15.2679 16.5161 15.2359 16.5161 15.1999C16.5161 15.1599 16.5041 15.1159 16.5041 15.0719C16.5041 15.0519 16.5001 15.0238 16.4721 15.0279ZM16.4481 15.3559H16.4601V15.3879L16.4481 15.3919C16.4429 15.3936 16.4375 15.3949 16.4321 15.3959C16.4294 15.396 16.4268 15.396 16.4241 15.3959C16.4161 15.3879 16.4161 15.3759 16.4281 15.3639L16.4481 15.3559ZM15.2481 14.9878C15.2361 14.9878 15.2161 15.0158 15.2001 15.0118C15.1641 15.0158 15.1681 15.0519 15.1961 15.0639V15.0959C15.2001 15.1279 15.1801 15.1559 15.1841 15.1879C15.1841 15.2199 15.1721 15.2559 15.1721 15.2919C15.1601 15.3279 15.1601 15.3639 15.1561 15.3999C15.1521 15.4319 15.1281 15.4199 15.1081 15.4119V15.3719C15.1121 15.3359 15.0881 15.3279 15.0601 15.3239C15.0321 15.3239 15.0201 15.3039 15.0281 15.2799C15.0401 15.2639 15.0681 15.2679 15.0881 15.2679C15.1281 15.2759 15.1241 15.2239 15.1041 15.2039C15.0881 15.1799 15.0561 15.1639 15.0481 15.1399C15.0481 15.1079 15.0281 15.0719 15.0001 15.0559C14.9561 15.0519 14.9201 15.0879 14.9081 15.1279C14.8881 15.1279 14.8681 15.1359 14.8521 15.1439C14.8241 15.1519 14.7841 15.1999 14.8241 15.2199C14.8441 15.2239 14.9121 15.2399 14.8801 15.2679C14.8641 15.2999 14.8321 15.2999 14.8041 15.2919C14.7761 15.2919 14.7441 15.2759 14.7441 15.2439C14.7401 15.2119 14.7401 15.1799 14.7281 15.1519C14.7201 15.1199 14.6841 15.1279 14.6801 15.1599C14.6521 15.1799 14.6561 15.2159 14.6761 15.2399C14.6881 15.2679 14.6761 15.3039 14.6641 15.3279C14.6561 15.3679 14.6161 15.3679 14.5881 15.3759C14.5761 15.3839 14.5241 15.3759 14.5441 15.4039C14.5741 15.4177 14.6076 15.4219 14.6401 15.4159C14.6721 15.4159 14.7001 15.3879 14.7201 15.3599C14.7401 15.3399 14.7761 15.3519 14.8081 15.3519C14.8361 15.3519 14.8681 15.3719 14.9001 15.3559C14.9081 15.3359 14.9481 15.2959 14.9601 15.3359C14.9601 15.3719 14.9881 15.3879 15.0201 15.3839C15.0561 15.3839 15.0401 15.4079 15.0401 15.4319C15.0401 15.4679 15.0681 15.4879 15.1001 15.5039H15.1321C15.1601 15.4919 15.1921 15.4799 15.2041 15.4479C15.2161 15.4199 15.2161 15.3879 15.2241 15.3599C15.2321 15.3159 15.2401 15.2679 15.2401 15.2239C15.2521 15.1839 15.2481 15.1399 15.2561 15.0959L15.2681 15.0038C15.2681 14.9838 15.2601 14.9838 15.2481 14.9878ZM14.9801 15.1519C14.9841 15.1519 14.9881 15.1599 14.9881 15.1719C14.9881 15.1879 14.9961 15.1999 15.0081 15.2039V15.2159L14.9761 15.2239C14.9561 15.2239 14.9401 15.2159 14.9281 15.2039L14.9201 15.1959L14.9321 15.1879L14.9521 15.1679C14.9641 15.1559 14.9721 15.1519 14.9801 15.1519ZM17.6201 14.8358C17.5971 14.8375 17.5743 14.8415 17.5521 14.8478C17.5121 14.8478 17.4921 14.8878 17.5321 14.9118C17.5561 14.9718 17.5921 14.8958 17.6321 14.9038C17.6881 14.9118 17.6921 14.9758 17.7041 15.0238C17.7041 15.0679 17.7201 15.1119 17.7321 15.1559C17.7721 15.1999 17.7041 15.2279 17.6761 15.1959C17.6521 15.1679 17.5961 15.1359 17.5681 15.1719C17.5321 15.1879 17.5281 15.2359 17.5001 15.2519C17.4521 15.2639 17.4481 15.2039 17.4201 15.1799C17.3961 15.1439 17.3521 15.1399 17.3161 15.1319C17.3001 15.0959 17.3081 15.0359 17.2761 15.0118C17.2441 15.0238 17.1881 15.0799 17.2361 15.1079C17.2761 15.1479 17.2161 15.1639 17.1961 15.1879C17.1641 15.2239 17.1561 15.2679 17.1561 15.3079C17.1041 15.3359 17.0961 15.2759 17.0881 15.2399C17.0881 15.1959 17.0481 15.2079 17.0201 15.2239C16.9801 15.2399 16.9641 15.2759 16.9401 15.3039V15.3839C16.9481 15.4199 16.9881 15.4039 17.0121 15.3999C17.0521 15.3839 17.0681 15.4279 17.0361 15.4519C17.0121 15.4759 16.9481 15.4639 16.9561 15.5079H17.0201C17.0601 15.4959 17.1081 15.4639 17.1121 15.4159C17.1201 15.3759 17.1801 15.3799 17.2121 15.3719C17.2521 15.3599 17.3041 15.3559 17.3161 15.4119C17.3441 15.4399 17.4041 15.4719 17.4361 15.4319C17.4513 15.4223 17.4635 15.4085 17.4713 15.3922C17.4791 15.376 17.4821 15.3578 17.4801 15.3399C17.4761 15.3079 17.5321 15.3079 17.5481 15.3279C17.5681 15.3599 17.6321 15.3519 17.6641 15.3279C17.6961 15.3079 17.7041 15.2639 17.7521 15.2639L17.9681 15.2039C18.0241 15.1919 17.9601 15.1559 17.9441 15.1319C17.9041 15.1119 17.8641 15.1999 17.8161 15.1559C17.7761 15.1279 17.7801 15.0759 17.7681 15.0319C17.7561 14.9758 17.7601 14.9118 17.7201 14.8718C17.6961 14.8438 17.6561 14.8358 17.6201 14.8358ZM17.3481 15.2159C17.3521 15.2159 17.3601 15.2159 17.3681 15.2239C17.3841 15.2319 17.3961 15.2479 17.3961 15.2639C17.3961 15.2719 17.3961 15.2719 17.3841 15.2759L17.3641 15.2839C17.3561 15.2839 17.3361 15.2719 17.3361 15.2639V15.2479C17.3281 15.2319 17.3281 15.2319 17.3361 15.2239L17.3481 15.2159ZM17.6081 15.2319C17.6241 15.2319 17.6321 15.2319 17.6401 15.2439C17.6441 15.2599 17.6401 15.2679 17.6241 15.2759L17.6041 15.2839L17.5881 15.2719C17.5801 15.2679 17.5761 15.2639 17.5761 15.2559C17.5761 15.2439 17.5921 15.2319 17.6081 15.2279V15.2319ZM17.2481 15.2319C17.2561 15.2319 17.2601 15.2319 17.2641 15.2399C17.2721 15.2479 17.2761 15.2519 17.2761 15.2639V15.2879C17.2761 15.2999 17.2761 15.2959 17.2521 15.2959C17.2281 15.2959 17.2241 15.2959 17.2241 15.2719C17.2241 15.2559 17.2241 15.2519 17.2361 15.2439C17.2401 15.2359 17.2481 15.2359 17.2521 15.2359L17.2481 15.2319ZM17.0321 15.2919C17.0359 15.293 17.0393 15.2951 17.0421 15.2979C17.0449 15.3007 17.0469 15.3041 17.0481 15.3079C17.0481 15.3199 17.0481 15.3279 17.0401 15.3319C17.0281 15.3359 17.0081 15.3399 17.0001 15.3319C17 15.3306 17 15.3292 17.0001 15.3279C16.9921 15.3239 16.9921 15.3199 17.0001 15.3159V15.3119L17.0081 15.2999C17.0106 15.296 17.0143 15.2931 17.0187 15.2916C17.023 15.2902 17.0278 15.2903 17.0321 15.2919ZM17.4001 15.3399L17.4201 15.3439V15.3679H17.3721L17.3681 15.3599C17.3681 15.3519 17.3681 15.3479 17.3761 15.3439L17.4001 15.3399ZM16.7161 15.5319C16.7121 15.5319 16.7041 15.5279 16.7121 15.5239C16.7161 15.5119 16.7321 15.5079 16.7441 15.4999C16.7659 15.4916 16.7852 15.4779 16.8001 15.4599C16.8001 15.4439 16.8161 15.4359 16.8161 15.4199L16.8121 15.3639C16.8067 15.3471 16.7953 15.3329 16.7801 15.3239C16.7681 15.3199 16.7521 15.3159 16.7481 15.2999C16.7481 15.2879 16.7601 15.2759 16.7641 15.2639L16.7881 15.2159C16.8001 15.2039 16.8161 15.2159 16.8201 15.2239L16.8401 15.2639C16.8521 15.2759 16.8601 15.2879 16.8641 15.3039C16.8721 15.3199 16.8801 15.3319 16.8801 15.3439L16.8881 15.3959C16.8881 15.4159 16.8881 15.4399 16.8801 15.4599L16.8561 15.4919C16.8441 15.5039 16.8321 15.5159 16.8161 15.5199C16.8041 15.5239 16.7961 15.536 16.7801 15.536H16.7201L16.7161 15.5319ZM16.4401 15.548C16.4321 15.54 16.4281 15.536 16.4281 15.5239C16.4281 15.5119 16.4281 15.5119 16.4401 15.4999C16.4561 15.4839 16.4641 15.4839 16.4961 15.4999C16.5241 15.5159 16.5361 15.5159 16.5361 15.5039C16.5401 15.4959 16.5561 15.4839 16.5761 15.4839C16.5835 15.4842 16.5906 15.487 16.5961 15.4919C16.6041 15.4999 16.6081 15.5039 16.6081 15.5199C16.6081 15.54 16.6081 15.54 16.5961 15.552C16.5841 15.56 16.5841 15.56 16.5681 15.56C16.561 15.5596 16.5542 15.5571 16.5485 15.5528C16.5428 15.5485 16.5385 15.5427 16.5361 15.536C16.5361 15.5279 16.5361 15.5239 16.5281 15.5319L16.5201 15.536C16.5121 15.536 16.4961 15.548 16.4881 15.556L16.4681 15.56C16.4521 15.56 16.4521 15.56 16.4401 15.548ZM15.6481 15.1919C15.6201 15.1919 15.5921 15.2159 15.5881 15.2439C15.5961 15.2719 15.6201 15.3039 15.6041 15.3319C15.6161 15.3719 15.5721 15.3879 15.5441 15.3679C15.5281 15.3279 15.5201 15.2879 15.4921 15.2479C15.4601 15.2399 15.4481 15.2919 15.4241 15.3119C15.4361 15.3399 15.4681 15.3679 15.4721 15.4039C15.4801 15.4439 15.4561 15.4839 15.4281 15.4999C15.4001 15.5279 15.3601 15.5199 15.3281 15.5239C15.2881 15.548 15.3561 15.556 15.3761 15.556C15.4161 15.56 15.4601 15.556 15.4961 15.5239C15.5241 15.5119 15.5201 15.4559 15.5561 15.4519L15.7481 15.4639C15.7801 15.4719 15.8321 15.4599 15.8561 15.4839C15.8561 15.5239 15.8961 15.556 15.9321 15.572C15.9521 15.58 15.9721 15.552 15.9921 15.548C16.0321 15.536 16.0201 15.4879 16.0441 15.4679H16.2441C16.2521 15.4679 16.2561 15.4479 16.2681 15.4399L16.2601 15.3639C16.2481 15.3319 16.2601 15.2919 16.2401 15.2639C16.2041 15.2559 16.1761 15.2839 16.1441 15.2879C16.1041 15.3039 16.0761 15.3399 16.0721 15.3799C16.0521 15.4159 16.0161 15.3719 16.0321 15.3399L16.0281 15.2999C16.0081 15.2799 15.9721 15.2879 15.9441 15.2839L15.8241 15.2759C15.7841 15.2759 15.7481 15.2799 15.7161 15.2719C15.6761 15.2719 15.6761 15.2319 15.6761 15.1999C15.6681 15.1938 15.6581 15.1909 15.6481 15.1919ZM15.7281 15.3399L15.7681 15.3439H15.8201C15.8601 15.3519 15.9001 15.3519 15.9401 15.3519C15.9481 15.3519 15.9561 15.3599 15.9641 15.3679V15.4479C15.9641 15.4599 15.9641 15.4759 15.9561 15.4799C15.954 15.4831 15.9513 15.4858 15.9481 15.4879C15.9422 15.4869 15.9367 15.4846 15.9318 15.4811C15.927 15.4776 15.923 15.4731 15.9201 15.4679V15.4119C15.9122 15.4052 15.9024 15.401 15.8921 15.3999L15.7881 15.3959L15.7081 15.3919C15.6961 15.3879 15.6801 15.3919 15.6721 15.3759C15.6641 15.3679 15.6761 15.3519 15.6881 15.3479C15.7007 15.3423 15.7143 15.3396 15.7281 15.3399ZM16.1801 15.3519C16.1841 15.3519 16.1881 15.3519 16.1881 15.3639L16.1961 15.3839C16.1961 15.3879 16.1961 15.3919 16.1881 15.3919C16.1681 15.3999 16.1481 15.3999 16.1401 15.3919C16.1401 15.3879 16.1401 15.3719 16.1481 15.3679L16.1801 15.3519Z" fill="#C09300"/>
<path d="M16.0001 13.0891C17.3041 12.0889 17.1921 10.6166 17.1921 10.6166L17.0921 10.6246C16.8161 10.6246 16.1641 10.4646 16.0121 10.2686C15.8521 10.4486 15.1801 10.6286 14.9081 10.6286L14.8081 10.6166C14.8081 10.6166 14.6921 12.0849 16.0001 13.0891Z" fill="white" stroke="#C09300" stroke-width="0.278432"/>
<path d="M17.0879 10.7208H17.0559C16.8079 10.7208 16.2319 10.5968 16.0079 10.4048C15.7759 10.5808 15.1879 10.7248 14.9439 10.7248C14.9331 10.7244 14.9224 10.7231 14.9119 10.7208C14.9141 10.9737 14.949 11.2252 15.0159 11.469C15.1763 12.0565 15.5213 12.5768 15.9999 12.9533C16.4788 12.5754 16.8237 12.0537 16.9839 11.465C17.0504 11.2225 17.0853 10.9723 17.0879 10.7208Z" fill="white" stroke="#C09300" stroke-width="0.227808"/>
<path d="M15.5759 10.6002C15.361 10.6702 15.1376 10.7106 14.9119 10.7202L14.9159 10.8842C14.9295 11.0805 14.963 11.2749 15.0159 11.4644C15.1234 11.8578 15.3144 12.2235 15.5759 12.5366V10.6002ZM16.3999 10.6002V12.5686C16.6739 12.2483 16.8734 11.8712 16.9839 11.4644C17.0366 11.2749 17.0702 11.0805 17.0839 10.8842L17.0879 10.7242H17.0559C16.9039 10.7242 16.6399 10.6762 16.3999 10.5962V10.6002Z" fill="#C09300"/>
<path d="M16.492 10.1207C16.52 10.1247 16.456 9.98062 16.456 9.98062C16.528 10.0526 16.792 10.0726 16.792 10.0726C16.632 10.0006 16.472 9.46852 16.492 9.04044C16.508 8.61635 16.432 8.44832 16.372 8.38431C16.292 8.30429 16.032 8.23228 15.864 8.22427C15.764 8.22027 15.784 8.29629 15.784 8.29629C15.604 8.25228 15.424 8.23227 15.344 8.28829C15.272 8.3363 15.256 8.58835 15.312 8.54434C15.444 8.43632 15.56 8.53634 15.64 8.65236C15.712 8.75238 15.708 9.04044 15.604 9.3805C15.5119 9.63759 15.3766 9.87707 15.204 10.0886C15.364 10.0886 15.588 9.94862 15.588 9.94862L15.536 10.1687C15.704 10.0886 15.836 9.96462 15.836 9.96462L15.996 10.1327C16.048 10.0606 16.156 9.96462 16.156 9.96462C16.156 9.96462 16.288 10.1046 16.492 10.1247V10.1207Z" fill="white" stroke="#C09300" stroke-width="0.303744"/>
<path d="M15.844 9.10448C15.844 9.10448 15.756 9.76061 15.588 9.94464M15.988 9.08447C15.988 9.08447 15.948 9.75261 15.836 9.96465M16.112 9.11248C16.112 9.11248 16.112 9.84062 16.152 9.96465M16.272 9.14849C16.272 9.14849 16.304 9.76061 16.456 9.98065" stroke="#C09300" stroke-width="0.329056"/>
<path d="M15.6799 8.78465C15.6763 8.73826 15.6627 8.6932 15.6399 8.65262C15.5599 8.5326 15.4439 8.43658 15.3119 8.5446C15.3119 8.5446 15.3559 8.40458 15.4559 8.40057C15.5279 8.39657 15.6999 8.45659 15.8519 8.71264C15.8519 8.71264 15.7399 8.68863 15.7119 8.71264C15.6639 8.75264 15.6839 8.78465 15.6839 8.78465H15.6799Z" fill="#C09300" stroke="#C09300" stroke-width="0.0759361"/>
<path d="M15.2959 8.3723C15.3079 8.3323 15.3239 8.30029 15.3479 8.28829C15.4279 8.23227 15.6039 8.24828 15.7839 8.29629C15.7839 8.29629 15.7679 8.22027 15.8639 8.22427C16.0319 8.23228 16.2879 8.30429 16.3679 8.38431C16.3935 8.41244 16.4138 8.44497 16.4279 8.48032C16.3879 8.42431 16.2759 8.42831 16.2479 8.43231C16.2079 8.43632 16.1799 8.43231 16.1239 8.44832C16.0959 8.45632 16.0559 8.46432 16.0319 8.48032C16.0159 8.49633 15.9999 8.54434 15.9759 8.54434C15.9359 8.54434 15.9359 8.53634 15.9239 8.52433C15.9119 8.50433 15.9039 8.48032 15.8879 8.48433C15.8479 8.48833 15.7759 8.45632 15.6879 8.38431C15.5959 8.31229 15.5599 8.29629 15.4479 8.30429C15.3279 8.31229 15.2959 8.3803 15.2959 8.3803V8.3723Z" fill="#C09300" stroke="#C09300" stroke-width="0.0759361"/>
<path d="M15.9519 8.47688C15.9784 8.47688 15.9999 8.45538 15.9999 8.42887C15.9999 8.40235 15.9784 8.38086 15.9519 8.38086C15.9254 8.38086 15.9039 8.40235 15.9039 8.42887C15.9039 8.45538 15.9254 8.47688 15.9519 8.47688Z" fill="white"/>
</svg>
