<svg width="24" height="24" viewBox="0 0 24 24" fill="none" xmlns="http://www.w3.org/2000/svg">
<path fill-rule="evenodd" clip-rule="evenodd" d="M12 0.00012207C14.3734 0.00012207 16.6934 0.70391 18.6668 2.02249C20.6402 3.34106 22.1783 5.21521 23.0865 7.40792C23.9948 9.60063 24.2324 12.0134 23.7694 14.3412C23.3064 16.669 22.1635 18.8072 20.4853 20.4854C18.807 22.1636 16.6689 23.3065 14.3411 23.7695C12.0133 24.2326 9.60051 23.9949 7.4078 23.0867C5.21508 22.1784 3.34094 20.6403 2.02236 18.667C0.703788 16.6936 0 14.3735 0 12.0001C0 8.81752 1.26428 5.76528 3.51472 3.51484C5.76515 1.2644 8.8174 0.00012207 12 0.00012207ZM9.0738 5.13792H14.9268C15.9787 5.13407 16.9894 5.5467 17.738 6.28567C18.4866 7.02463 18.9124 8.02985 18.9222 9.08172V14.9185C18.9124 15.9704 18.4866 16.9756 17.738 17.7146C16.9894 18.4535 15.9787 18.8662 14.9268 18.8623H9.0738C8.02189 18.8662 7.01122 18.4535 6.26259 17.7146C5.51396 16.9756 5.08822 15.9704 5.0784 14.9185V9.08172C5.08838 8.0299 5.51416 7.02477 6.26276 6.28584C7.01136 5.54691 8.02194 5.13423 9.0738 5.13792ZM11.9628 8.29452C12.7279 8.29464 13.4759 8.52164 14.112 8.94682C14.7482 9.372 15.2439 9.97627 15.5367 10.6832C15.8294 11.3902 15.9059 12.168 15.7566 12.9185C15.6072 13.6689 15.2387 14.3582 14.6976 14.8992C14.1566 15.4402 13.4672 15.8086 12.7167 15.9578C11.9663 16.1071 11.1884 16.0304 10.4815 15.7376C9.77464 15.4447 9.17045 14.9489 8.74537 14.3126C8.32028 13.6764 8.0934 12.9285 8.0934 12.1633C8.09372 11.1372 8.5015 10.1533 9.22711 9.4278C9.95271 8.70232 10.9367 8.29468 11.9628 8.29452ZM11.9628 9.60132C12.4695 9.60144 12.9648 9.7518 13.386 10.0334C13.8072 10.315 14.1355 10.7151 14.3293 11.1833C14.5232 11.6515 14.5738 12.1666 14.4749 12.6635C14.376 13.1604 14.1319 13.6169 13.7736 13.9751C13.4153 14.3334 12.9588 14.5773 12.4618 14.6761C11.9648 14.7749 11.4497 14.7242 10.9816 14.5302C10.5135 14.3363 10.1134 14.0079 9.83193 13.5866C9.55044 13.1653 9.4002 12.67 9.4002 12.1633C9.4002 11.4836 9.67017 10.8318 10.1507 10.3511C10.6313 9.8704 11.2831 9.60028 11.9628 9.60012V9.60132ZM15.7056 7.75812C15.8298 7.75812 15.9513 7.79496 16.0546 7.86399C16.1579 7.93302 16.2384 8.03113 16.286 8.14592C16.3335 8.26071 16.346 8.38702 16.3217 8.50887C16.2975 8.63073 16.2377 8.74267 16.1498 8.83052C16.0619 8.91838 15.95 8.97821 15.8282 9.00245C15.7063 9.02669 15.58 9.01425 15.4652 8.9667C15.3504 8.91915 15.2523 8.83864 15.1833 8.73533C15.1142 8.63202 15.0774 8.51057 15.0774 8.38632C15.0776 8.21982 15.1438 8.06018 15.2616 7.9425C15.3794 7.82482 15.5391 7.75812 15.7056 7.75812ZM9.552 6.25812H14.4486C15.332 6.25827 16.1793 6.60801 16.8057 7.23095C17.432 7.85388 17.7863 8.69938 17.7912 9.58272V14.5027C17.7863 15.3861 17.432 16.2316 16.8057 16.8545C16.1793 17.4774 15.332 17.8272 14.4486 17.8273H9.552C8.66864 17.8272 7.82125 17.4774 7.19494 16.8545C6.56863 16.2316 6.21431 15.3861 6.2094 14.5027V9.58272C6.21479 8.69964 6.56929 7.85454 7.19553 7.2319C7.82177 6.60925 8.6689 6.25962 9.552 6.25932V6.25812Z" fill="url(#paint0_linear_1_12610)"/>
<defs>
<linearGradient id="paint0_linear_1_12610" x1="24" y1="22.0801" x2="5.976" y2="1.80012" gradientUnits="userSpaceOnUse">
<stop stop-color="#F58529"/>
<stop offset="0.169" stop-color="#FEDA77"/>
<stop offset="0.478" stop-color="#DD2A7B"/>
<stop offset="0.78" stop-color="#8134AF"/>
<stop offset="1" stop-color="#515BD4"/>
</linearGradient>
</defs>
</svg>
