<svg width="40" height="40" viewBox="0 0 40 40" fill="none" xmlns="http://www.w3.org/2000/svg">
<path fill-rule="evenodd" clip-rule="evenodd" d="M20 0C23.9556 0 27.8224 1.17298 31.1114 3.37061C34.4004 5.56824 36.9638 8.69181 38.4776 12.3463C39.9913 16.0009 40.3874 20.0222 39.6157 23.9018C38.844 27.7814 36.9392 31.3451 34.1421 34.1421C31.3451 36.9392 27.7814 38.844 23.9018 39.6157C20.0222 40.3874 16.0009 39.9913 12.3463 38.4776C8.69181 36.9638 5.56824 34.4004 3.37061 31.1114C1.17298 27.8224 0 23.9556 0 20C0 14.6957 2.10714 9.60859 5.85786 5.85786C9.60859 2.10714 14.6957 0 20 0ZM15.123 8.563H24.878C26.6312 8.55658 28.3156 9.2443 29.5634 10.4759C30.8111 11.7075 31.5206 13.3829 31.537 15.136V24.864C31.5206 26.6171 30.8111 28.2925 29.5634 29.5241C28.3156 30.7557 26.6312 31.4434 24.878 31.437H15.123C13.3698 31.4434 11.6854 30.7557 10.4376 29.5241C9.18993 28.2925 8.48037 26.6171 8.464 24.864V15.136C8.48063 13.383 9.19027 11.7078 10.4379 10.4762C11.6856 9.24465 13.3699 8.55684 15.123 8.563ZM19.938 13.824C21.2133 13.8242 22.4598 14.2025 23.52 14.9112C24.5803 15.6198 25.4066 16.6269 25.8945 17.8052C26.3823 18.9834 26.5099 20.2798 26.261 21.5306C26.0121 22.7813 25.3979 23.9301 24.4961 24.8318C23.5943 25.7334 22.4453 26.3475 21.1946 26.5962C19.9438 26.8449 18.6474 26.7171 17.4692 26.2291C16.2911 25.741 15.2841 24.9146 14.5756 23.8542C13.8671 22.7939 13.489 21.5473 13.489 20.272C13.4895 18.5619 14.1692 16.922 15.3785 15.7128C16.5879 14.5037 18.2279 13.8243 19.938 13.824ZM19.938 16.002C20.7825 16.0022 21.6079 16.2528 22.31 16.7221C23.0121 17.1914 23.5592 17.8584 23.8823 18.6386C24.2053 19.4189 24.2897 20.2774 24.1248 21.1056C23.96 21.9339 23.5532 22.6946 22.956 23.2917C22.3588 23.8888 21.5979 24.2953 20.7697 24.46C19.9414 24.6247 19.0829 24.5401 18.3027 24.2169C17.5225 23.8937 16.8557 23.3464 16.3866 22.6442C15.9174 21.942 15.667 21.1165 15.667 20.272C15.667 19.1392 16.1169 18.0527 16.9179 17.2516C17.7188 16.4505 18.8052 16.0003 19.938 16V16.002ZM26.176 12.93C26.3831 12.93 26.5855 12.9914 26.7577 13.1065C26.9299 13.2215 27.0641 13.385 27.1433 13.5763C27.2225 13.7676 27.2433 13.9782 27.2029 14.1813C27.1625 14.3844 27.0628 14.5709 26.9163 14.7173C26.7699 14.8638 26.5834 14.9635 26.3803 15.0039C26.1772 15.0443 25.9666 15.0235 25.7753 14.9443C25.584 14.8651 25.4205 14.7309 25.3055 14.5587C25.1904 14.3865 25.129 14.1841 25.129 13.977C25.1293 13.6995 25.2397 13.4334 25.436 13.2373C25.6323 13.0412 25.8985 12.93 26.176 12.93ZM15.92 10.43H24.081C25.5533 10.4302 26.9656 11.0131 28.0094 12.0514C29.0533 13.0896 29.6438 14.4988 29.652 15.971V24.171C29.6438 25.6432 29.0533 27.0524 28.0094 28.0906C26.9656 29.1289 25.5533 29.7118 24.081 29.712H15.92C14.4477 29.7118 13.0354 29.1289 11.9916 28.0906C10.9477 27.0524 10.3572 25.6432 10.349 24.171V15.971C10.358 14.4992 10.9488 13.0907 11.9926 12.053C13.0363 11.0152 14.4482 10.4325 15.92 10.432V10.43Z" fill="url(#paint0_linear_27_2667)"/>
<defs>
<linearGradient id="paint0_linear_27_2667" x1="40" y1="36.8" x2="9.96" y2="3" gradientUnits="userSpaceOnUse">
<stop stop-color="#F58529"/>
<stop offset="0.169" stop-color="#FEDA77"/>
<stop offset="0.478" stop-color="#DD2A7B"/>
<stop offset="0.78" stop-color="#8134AF"/>
<stop offset="1" stop-color="#515BD4"/>
</linearGradient>
</defs>
</svg>
