<svg width="24" height="24" viewBox="0 0 24 24" fill="none" xmlns="http://www.w3.org/2000/svg">
<path d="M12 22.0001C17.5228 22.0001 22 17.523 22 12.0001C22 6.47727 17.5228 2.00012 12 2.00012C6.47715 2.00012 2 6.47727 2 12.0001C2 17.523 6.47715 22.0001 12 22.0001Z" fill="#0077B5"/>
<path fill-rule="evenodd" clip-rule="evenodd" d="M9.38733 7.14207C9.38733 7.76462 8.91333 8.26842 8.17208 8.26842C7.45968 8.26842 6.98563 7.76462 7.00033 7.14207C6.98563 6.48927 7.45963 6.00012 8.18628 6.00012C8.91333 6.00012 9.37313 6.48927 9.38733 7.14207ZM7.05993 16.4097V9.15822H9.31353V16.4092L7.05993 16.4097Z" fill="white"/>
<path fill-rule="evenodd" clip-rule="evenodd" d="M11.1197 11.4724C11.1197 10.568 11.0899 9.79686 11.0601 9.15921H13.0176L13.1216 10.1526H13.1661C13.4627 9.69281 14.204 8.99646 15.4051 8.99646C16.8876 8.99646 17.9998 9.97521 17.9998 12.1096V16.4106H15.7461V12.392C15.7461 11.4573 15.4202 10.8201 14.6047 10.8201C13.9817 10.8201 13.6112 11.2501 13.4632 11.665C13.4036 11.8135 13.3742 12.0207 13.3742 12.2288V16.4106H11.1206V11.4724H11.1197Z" fill="white"/>
</svg>
