<svg width="40" height="40" viewBox="0 0 40 40" fill="none" xmlns="http://www.w3.org/2000/svg">
<path fill-rule="evenodd" clip-rule="evenodd" d="M20 0C23.9556 0 27.8224 1.17298 31.1114 3.37061C34.4004 5.56824 36.9638 8.69181 38.4776 12.3463C39.9913 16.0009 40.3874 20.0222 39.6157 23.9018C38.844 27.7814 36.9392 31.3451 34.1421 34.1421C31.3451 36.9392 27.7814 38.844 23.9018 39.6157C20.0222 40.3874 16.0009 39.9913 12.3463 38.4776C8.69181 36.9638 5.56824 34.4004 3.37061 31.1114C1.17298 27.8224 0 23.9556 0 20C0 14.6957 2.10714 9.60859 5.85786 5.85786C9.60859 2.10714 14.6957 0 20 0ZM18.333 16.667H21.666V18.334C22.0185 17.7801 22.5149 17.3325 23.1022 17.0388C23.6894 16.7452 24.3454 16.6167 25 16.667C28.662 16.667 28.333 18.703 28.333 21.667V28.334H25V23.334C25 22.057 25.187 20 23.333 20C21.45 20 21.666 21.9 21.666 23.333V28.333H18.333V16.667ZM15 13.333C15.0199 13.5569 14.9904 13.7825 14.9137 13.9937C14.837 14.205 14.7148 14.3969 14.5559 14.5559C14.3969 14.7148 14.205 14.837 13.9937 14.9137C13.7825 14.9904 13.5569 15.0199 13.333 15C13.1091 15.0199 12.8835 14.9904 12.6723 14.9137C12.461 14.837 12.2691 14.7148 12.1101 14.5559C11.9512 14.3969 11.829 14.205 11.7523 13.9937C11.6756 13.7825 11.6461 13.5569 11.666 13.333C11.6461 13.1091 11.6756 12.8835 11.7523 12.6723C11.829 12.461 11.9512 12.2691 12.1101 12.1101C12.2691 11.9512 12.461 11.829 12.6723 11.7523C12.8835 11.6756 13.1091 11.6461 13.333 11.666C13.5569 11.6461 13.7825 11.6756 13.9937 11.7523C14.205 11.829 14.3969 11.9512 14.5559 12.1101C14.7148 12.2691 14.837 12.461 14.9137 12.6723C14.9904 12.8835 15.0199 13.1091 15 13.333ZM11.667 16.666H15V28.333H11.667V16.666Z" fill="#0077B5"/>
</svg>
