
<svg width="32" height="32" viewBox="0 0 32 32" fill="none" xmlns="http://www.w3.org/2000/svg">
    <g clip-path="url(#clip0_9_2217)">
        <mask id="mask0_9_2217" style="mask-type:luminance" maskUnits="userSpaceOnUse" x="5" y="0" width="27" height="23">
            <path d="M20.3488 3.98311e-07C19.9857 -0.000208872 19.6273 0.0820468 19.3006 0.240565C18.9739 0.399083 18.6875 0.629731 18.463 0.915088L18.3549 1.05948L18.3456 1.07338L15.7842 4.58698L11.4219 10.5678L11.4157 10.5771C11.0749 11.0323 10.6353 11.4043 10.1301 11.6652C9.6248 11.9261 9.06698 12.0691 8.49851 12.0834C7.93005 12.0978 7.36572 11.9831 6.84794 11.748C6.33016 11.5129 5.8724 11.1635 5.50903 10.7261L8.40795 14.7008L12.9069 20.8708L13.0312 21.0414C13.3504 21.4583 13.7601 21.7972 14.2293 22.0327C14.6985 22.2682 15.2151 22.3941 15.7401 22.4008C16.2651 22.4076 16.7847 22.2951 17.2599 22.0718C17.735 21.8485 18.1533 21.5202 18.4831 21.1117L18.6846 20.8345L23.1558 14.7023L30.9892 3.95994L31.2162 3.65106C31.4369 3.28675 31.5568 2.87031 31.5636 2.44441C31.5704 2.01851 31.4638 1.59847 31.2547 1.22733C31.0457 0.856194 30.7418 0.547311 30.3741 0.332323C30.0063 0.117334 29.5881 0.00397274 29.1621 0.00386527L20.3488 3.98311e-07Z" fill="white"/>
        </mask>
        <g mask="url(#mask0_9_2217)">
            <path d="M21.2994 -12.7318L-5.43945 8.82837L15.7741 35.1374L42.513 13.5773L21.2994 -12.7318Z" fill="url(#paint0_linear_9_2217)"/>
        </g>
        <mask id="mask1_9_2217" style="mask-type:luminance" maskUnits="userSpaceOnUse" x="0" y="0" width="16" height="13">
            <path d="M2.40151 0C1.9761 0.000562072 1.55845 0.113963 1.19118 0.328646C0.823907 0.543328 0.520162 0.851608 0.310934 1.22201C0.101707 1.59242 -0.00551164 2.0117 0.000218182 2.43707C0.005948 2.86245 0.124421 3.27869 0.34355 3.64333L0.575215 3.95917L5.2317 10.3477L5.24637 10.367L5.50043 10.7176L5.50584 10.7238V10.7284C5.8692 11.1659 6.32697 11.5152 6.84475 11.7503C7.36253 11.9854 7.92685 12.1001 8.49532 12.0857C9.06379 12.0714 9.62161 11.9284 10.1269 11.6675C10.6321 11.4066 11.0717 11.0346 11.4125 10.5794L11.4187 10.5701L15.781 4.5893L13.2149 1.06799L13.2095 1.0618L13.1168 0.935166V0.929755C12.8926 0.640615 12.605 0.40673 12.2762 0.246088C11.9474 0.0854467 11.5862 0.00232404 11.2203 0.00309189L2.40151 0Z" fill="white"/>
        </mask>
        <g mask="url(#mask1_9_2217)">
            <path d="M12.0514 -6.69375L-5.14136 2.85596L3.71016 18.7917L20.9029 9.24199L12.0514 -6.69375Z" fill="url(#paint1_linear_9_2217)"/>
        </g>
        <mask id="mask2_9_2217" style="mask-type:luminance" maskUnits="userSpaceOnUse" x="15" y="0" width="17" height="15">
            <path d="M20.3485 3.98312e-07C19.9854 -0.000208872 19.627 0.0820468 19.3004 0.240565C18.9737 0.399083 18.6873 0.629731 18.4628 0.915088L18.3547 1.05948L18.3454 1.07338L15.7839 4.58698L23.1602 14.7031L30.9936 3.96072L31.2206 3.65183C31.4413 3.28752 31.5612 2.87108 31.568 2.44518C31.5747 2.01928 31.4681 1.59924 31.2591 1.22811C31.0501 0.856967 30.7462 0.548065 30.3784 0.333077C30.0107 0.118088 29.5925 0.00474572 29.1665 0.00463824L20.3485 3.98312e-07Z" fill="white"/>
        </mask>
        <g mask="url(#mask2_9_2217)">
            <path d="M31.5688 0H15.7847V14.7008H31.5688V0Z" fill="url(#paint2_linear_9_2217)"/>
        </g>
        <mask id="mask3_9_2217" style="mask-type:luminance" maskUnits="userSpaceOnUse" x="12" y="23" width="8" height="9">
            <path d="M12.2188 26.7636V28.4347C12.2188 29.3803 12.5944 30.2871 13.263 30.9557C13.9316 31.6244 14.8385 32 15.7841 32C16.7297 32 17.6365 31.6244 18.3052 30.9557C18.9738 30.2871 19.3494 29.3803 19.3494 28.4347V26.7636C19.3494 25.818 18.9738 24.9111 18.3052 24.2425C17.6365 23.5739 16.7297 23.1982 15.7841 23.1982C14.8385 23.1982 13.9316 23.5739 13.263 24.2425C12.5944 24.9111 12.2188 25.818 12.2188 26.7636Z" fill="white"/>
        </mask>
        <g mask="url(#mask3_9_2217)">
            <path d="M12.9216 21.0682L9.59839 31.1284L18.6496 34.1183L21.9728 24.0581L12.9216 21.0682Z" fill="url(#paint3_linear_9_2217)"/>

            Aya Eltantawy, [20/11/2024 5:26 ุต]
        </g>
        <mask id="mask4_9_2217" style="mask-type:luminance" maskUnits="userSpaceOnUse" x="12" y="23" width="8" height="7">
            <path d="M12.2188 26.7636V26.9543C12.586 26.6176 13.0198 26.3616 13.4921 26.2028C13.9643 26.044 14.4646 25.9859 14.9607 26.0322C15.4568 26.0786 15.9377 26.2284 16.3724 26.4719C16.8071 26.7154 17.1859 27.0473 17.4845 27.4462L17.4899 27.4555L19.1185 29.688C19.2711 29.2877 19.3496 28.863 19.3502 28.4347V26.7636C19.3502 25.818 18.9746 24.9111 18.3059 24.2425C17.6373 23.5739 16.7304 23.1982 15.7849 23.1982C14.8393 23.1982 13.9324 23.5739 13.2638 24.2425C12.5952 24.9111 12.2195 25.818 12.2195 26.7636" fill="white"/>
        </mask>
        <g mask="url(#mask4_9_2217)">
            <path d="M14.6965 19.7923L9.13867 27.428L16.888 33.0685L22.4459 25.4328L14.6965 19.7923Z" fill="url(#paint4_linear_9_2217)"/>
        </g>
    </g>
    <defs>
        <linearGradient id="paint0_linear_9_2217" x1="-5.28814" y1="30.9746" x2="24.5422" y2="6.92177" gradientUnits="userSpaceOnUse">
            <stop stop-color="#030942"/>
            <stop offset="1" stop-color="#2E57EF"/>
        </linearGradient>
        <linearGradient id="paint1_linear_9_2217" x1="9.50547" y1="9.20499" x2="1.93017" y2="-4.43314" gradientUnits="userSpaceOnUse">
            <stop stop-color="#020233"/>
            <stop offset="1" stop-color="#2E41EF"/>
        </linearGradient>
        <linearGradient id="paint2_linear_9_2217" x1="16.1631" y1="6.88608" x2="31.9528" y2="6.88608" gradientUnits="userSpaceOnUse">
            <stop stop-color="#2D14E0"/>
            <stop offset="0.01" stop-color="#2D14E0"/>
            <stop offset="1" stop-color="#2575F4"/>
        </linearGradient>
        <linearGradient id="paint3_linear_9_2217" x1="16.2664" y1="26.5467" x2="13.9296" y2="33.6207" gradientUnits="userSpaceOnUse">
            <stop stop-color="#2D14E0"/>
            <stop offset="0.01" stop-color="#2D14E0"/>
            <stop offset="1" stop-color="#2575F4"/>
        </linearGradient>
        <linearGradient id="paint4_linear_9_2217" x1="10.5753" y1="22.0275" x2="18.4566" y2="27.7641" gradientUnits="userSpaceOnUse">
            <stop stop-color="#020233"/>
            <stop offset="1" stop-color="#2E41EF"/>
        </linearGradient>
        <clipPath id="clip0_9_2217">
            <rect width="32" height="32" fill="white"/>
        </clipPath>
    </defs>
</svg>