<svg width="45" height="45" viewBox="0 0 45 45" fill="none" xmlns="http://www.w3.org/2000/svg">
<rect width="45" height="45" rx="22.5" fill="#F2F2F2"/>
<path fill-rule="evenodd" clip-rule="evenodd" d="M20.44 13.75H24.5601C26.4014 13.75 27.8596 13.75 29.0007 13.9031C30.1749 14.0607 31.1251 14.3926 31.8746 15.1408C32.9888 16.2529 33.1946 17.8275 33.2496 19.9752C33.2685 20.7115 32.686 21.1634 32.199 21.2908C31.6601 21.4317 31.2648 21.9214 31.2648 22.5C31.2648 23.0786 31.6601 23.5683 32.199 23.7092C32.686 23.8366 33.2685 24.2885 33.2496 25.0248C33.1946 27.1725 32.9888 28.7471 31.8746 29.8592C31.1251 30.6074 30.1749 30.9393 29.0007 31.0969C27.8596 31.25 26.4014 31.25 24.5601 31.25H20.44C18.5987 31.25 17.1405 31.25 15.9994 31.0969C14.8252 30.9393 13.8749 30.6074 13.1254 29.8592C12.0112 28.7471 11.8055 27.1725 11.7504 25.0248C11.7316 24.2885 12.3141 23.8366 12.801 23.7092C13.34 23.5683 13.7352 23.0786 13.7352 22.5C13.7352 21.9214 13.34 21.4317 12.801 21.2908C12.3141 21.1634 11.7316 20.7115 11.7504 19.9752C11.8055 17.8275 12.0112 16.2529 13.1254 15.1408C13.8749 14.3926 14.8252 14.0607 15.9994 13.9031C17.1405 13.75 18.5987 13.75 20.44 13.75ZM16.1989 15.3898C15.1905 15.5251 14.6094 15.7789 14.1851 16.2024C13.5573 16.8291 13.3175 17.7777 13.2542 19.8599C14.3977 20.1934 15.2352 21.2475 15.2352 22.5C15.2352 23.7525 14.3977 24.8066 13.2542 25.1401C13.3175 27.2223 13.5573 28.1709 14.1851 28.7976C14.6094 29.2211 15.1905 29.4749 16.1989 29.6102C17.2287 29.7484 18.5861 29.75 20.4963 29.75H24.5037C26.414 29.75 27.7714 29.7484 28.8012 29.6102C29.8095 29.4749 30.3907 29.2211 30.8149 28.7976C31.4428 28.1709 31.6826 27.2223 31.7458 25.1401C30.6024 24.8066 29.7648 23.7525 29.7648 22.5C29.7648 21.2475 30.6024 20.1934 31.7458 19.8599C31.6826 17.7777 31.4428 16.8291 30.8149 16.2024C30.3907 15.7789 29.8095 15.5251 28.8012 15.3898C27.7714 15.2516 26.414 15.25 24.5037 15.25H20.4963C18.5861 15.25 17.2287 15.2516 16.1989 15.3898ZM22.5 20.5345C22.4419 20.6351 22.3773 20.751 22.3011 20.8877L22.2028 21.064C22.1958 21.0765 22.1884 21.0901 22.1804 21.1047C22.1019 21.2483 21.9719 21.4861 21.755 21.6507C21.5336 21.8188 21.2673 21.8766 21.1116 21.9104C21.096 21.9138 21.0815 21.9169 21.0683 21.9199L20.8774 21.9631C20.7022 22.0028 20.5595 22.0351 20.4375 22.0658C20.5169 22.1634 20.62 22.2847 20.7541 22.4415L20.8842 22.5937C20.8934 22.6045 20.9035 22.6161 20.9142 22.6284C21.0221 22.7527 21.1964 22.9535 21.277 23.2126C21.3566 23.4687 21.3291 23.7324 21.3118 23.8988C21.3101 23.9154 21.3084 23.931 21.307 23.9456L21.2874 24.1487C21.2691 24.3369 21.2549 24.4872 21.2455 24.6094C21.3497 24.5635 21.4682 24.5089 21.6091 24.4441L21.7878 24.3618C21.8001 24.3561 21.8136 24.3498 21.8282 24.3429C21.9717 24.2752 22.2214 24.1575 22.5 24.1575C22.7787 24.1575 23.0284 24.2752 23.1719 24.3429C23.1865 24.3498 23.2 24.3561 23.2123 24.3618L23.391 24.4441C23.5318 24.5089 23.6504 24.5635 23.7546 24.6094C23.7451 24.4872 23.731 24.3369 23.7127 24.1487L23.693 23.9456C23.6916 23.9311 23.69 23.9154 23.6883 23.8988C23.6709 23.7324 23.6435 23.4687 23.7231 23.2126C23.8037 22.9535 23.978 22.7527 24.0859 22.6284C24.0966 22.6161 24.1066 22.6045 24.1159 22.5937L24.246 22.4415C24.3801 22.2847 24.4832 22.1634 24.5625 22.0658C24.4405 22.0351 24.2978 22.0028 24.1227 21.9631L23.9318 21.9199C23.9185 21.9169 23.904 21.9138 23.8885 21.9104C23.7327 21.8766 23.4664 21.8188 23.2451 21.6507C23.0282 21.4861 22.8982 21.2483 22.8196 21.1047C22.8117 21.0901 22.8042 21.0765 22.7973 21.064L22.699 20.8877C22.6228 20.751 22.5582 20.6351 22.5 20.5345ZM21.5135 19.2996C21.6857 19.0748 21.9983 18.75 22.5 18.75C23.0017 18.75 23.3144 19.0748 23.4865 19.2996C23.6509 19.5142 23.8164 19.8112 23.986 20.1158C23.9937 20.1296 24.0015 20.1435 24.0092 20.1573L24.1075 20.3337C24.1303 20.3746 24.1482 20.4068 24.1639 20.4343C24.1913 20.4407 24.2231 20.4479 24.2628 20.4569L24.4537 20.5001C24.4693 20.5036 24.485 20.5072 24.5006 20.5107C24.8284 20.5848 25.1542 20.6584 25.4043 20.7569C25.6804 20.8658 26.0547 21.0777 26.199 21.5416C26.3407 21.9973 26.1619 22.3834 26.0057 22.6315C25.8611 22.8611 25.6414 23.1179 25.4165 23.3807C25.4064 23.3926 25.3962 23.4045 25.386 23.4164L25.2559 23.5686C25.2214 23.6089 25.1954 23.6394 25.1735 23.6657C25.1765 23.702 25.1806 23.7443 25.186 23.8009L25.2057 24.004C25.2072 24.0195 25.2087 24.0349 25.2102 24.0504C25.2444 24.4023 25.2774 24.7424 25.2653 25.0145C25.2526 25.2997 25.1841 25.7315 24.797 26.0254C24.3976 26.3286 23.9565 26.2626 23.6767 26.1824C23.419 26.1086 23.1145 25.9682 22.8077 25.8269C22.7931 25.8201 22.7784 25.8134 22.7637 25.8066L22.5849 25.7243C22.5515 25.7089 22.524 25.6963 22.5 25.6854C22.4761 25.6963 22.4486 25.7089 22.4152 25.7243L22.2364 25.8066C22.2217 25.8134 22.207 25.8201 22.1923 25.8269C21.8856 25.9682 21.5811 26.1086 21.3233 26.1824C21.0436 26.2626 20.6025 26.3286 20.2031 26.0254C19.8159 25.7315 19.7475 25.2997 19.7348 25.0145C19.7226 24.7424 19.7557 24.4023 19.7899 24.0504C19.7914 24.0349 19.7929 24.0195 19.7944 24.004L19.814 23.8009C19.8195 23.7443 19.8236 23.702 19.8266 23.6657C19.8047 23.6394 19.7787 23.6089 19.7442 23.5686L19.6141 23.4164C19.6039 23.4045 19.5937 23.3926 19.5835 23.3807C19.3586 23.1179 19.1389 22.8611 18.9944 22.6315C18.8382 22.3834 18.6594 21.9973 18.8011 21.5416C18.9454 21.0777 19.3197 20.8658 19.5958 20.7569C19.8459 20.6584 20.1717 20.5848 20.4995 20.5107C20.5151 20.5072 20.5308 20.5036 20.5464 20.5001L20.7373 20.4569C20.777 20.4479 20.8088 20.4407 20.8361 20.4343C20.8518 20.4068 20.8698 20.3746 20.8926 20.3337L20.9909 20.1573C20.9986 20.1435 21.0063 20.1296 21.0141 20.1158C21.1837 19.8112 21.3492 19.5142 21.5135 19.2996Z" fill="#020659"/>
</svg>
