<svg width="44" height="32" viewBox="0 0 44 32" fill="none" xmlns="http://www.w3.org/2000/svg">
<rect width="44" height="32" rx="4" fill="url(#paint0_linear_13_2682)"/>
<g clip-path="url(#clip0_13_2682)">
<path d="M27.3551 24.357C27.1751 24.357 27.0025 24.2893 26.8753 24.1687C26.748 24.0482 26.6765 23.8846 26.6765 23.7141C26.6765 23.5436 26.748 23.3801 26.8753 23.2596C27.0025 23.139 27.1751 23.0713 27.3551 23.0713C27.5351 23.0713 27.7076 23.139 27.8349 23.2596C27.9622 23.3801 28.0337 23.5436 28.0337 23.7141C28.0337 23.8846 27.9622 24.0482 27.8349 24.1687C27.7076 24.2893 27.5351 24.357 27.3551 24.357Z" stroke="white" stroke-width="1.42857" stroke-linecap="round" stroke-linejoin="round"/>
<path d="M18.5338 24.357C18.3538 24.357 18.1812 24.2893 18.054 24.1687C17.9267 24.0482 17.8552 23.8846 17.8552 23.7141C17.8552 23.5436 17.9267 23.3801 18.054 23.2596C18.1812 23.139 18.3538 23.0713 18.5338 23.0713C18.7138 23.0713 18.8864 23.139 19.0136 23.2596C19.1409 23.3801 19.2124 23.5436 19.2124 23.7141C19.2124 23.8846 19.1409 24.0482 19.0136 24.1687C18.8864 24.2893 18.7138 24.357 18.5338 24.357Z" stroke="white" stroke-width="1.42857" stroke-linecap="round" stroke-linejoin="round"/>
<path d="M25.5338 15.3572H21.4624" stroke="white" stroke-width="1.42857" stroke-linecap="round" stroke-linejoin="round"/>
<path d="M23.4983 13.4285V17.2856" stroke="white" stroke-width="1.42857" stroke-linecap="round" stroke-linejoin="round"/>
<path d="M13.1785 7.64282H16.5713L16.9283 10.8571M16.9283 10.8571L17.8009 18.7064C17.8361 19.0222 17.9934 19.3144 18.2424 19.5269C18.4915 19.7393 18.8147 19.857 19.1499 19.8571H27.727C28.0296 19.8571 28.3235 19.7613 28.562 19.585C28.8005 19.4086 28.9699 19.1619 29.0435 18.8838L30.7399 12.4553C30.79 12.2657 30.7939 12.0678 30.7512 11.8766C30.7084 11.6854 30.6203 11.5059 30.4933 11.3518C30.3664 11.1978 30.2041 11.0731 30.0187 10.9874C29.8333 10.9017 29.6298 10.8571 29.4235 10.8571H16.9283Z" stroke="white" stroke-width="1.42857" stroke-linecap="round" stroke-linejoin="round"/>
</g>
<defs>
<linearGradient id="paint0_linear_13_2682" x1="0" y1="15.8881" x2="44" y2="15.8881" gradientUnits="userSpaceOnUse">
<stop stop-color="#020659"/>
<stop offset="1" stop-color="#031780"/>
</linearGradient>
<clipPath id="clip0_13_2682">
<rect width="19" height="18" fill="white" transform="translate(12.5 7)"/>
</clipPath>
</defs>
</svg>
