<svg width="16" height="24" viewBox="0 0 16 24" fill="none" xmlns="http://www.w3.org/2000/svg">
    <path
        d="M15.6 7.97465C15.6 12.3788 7.8 24 7.8 24C7.8 24 0 12.3788 0 7.97465C0 3.57046 3.49227 0 7.8 0C12.1077 0 15.6 3.57046 15.6 7.97465Z"
        fill="#BD242B" />
    <path
        d="M10.3925 10.2736C11.8243 8.80977 11.8243 6.43639 10.3925 4.97254C8.96071 3.50868 6.63931 3.50868 5.20751 4.97254C3.77572 6.43639 3.77572 8.80976 5.20751 10.2736C6.63931 11.7375 8.96071 11.7375 10.3925 10.2736Z"
        fill="white" />
    <path
        d="M1.33695 8.67508C1.33695 4.84911 4.37056 1.74757 8.11274 1.74757C10.3002 1.74757 12.245 2.80763 13.484 4.45219C12.3139 2.37563 10.1211 0.977356 7.60858 0.977356C3.86604 0.977356 0.832428 4.07889 0.832428 7.90486C0.832428 9.4944 1.35645 10.9588 2.23728 12.1278C1.66451 11.1113 1.33695 9.93231 1.33695 8.67508Z"
        fill="#CD4A45" />
    <path
        d="M5.96069 20.9498C7.02354 22.7705 7.8 24 7.8 24C7.8 24 15.6 12.3788 15.6 7.97465C15.6 7.74351 15.5881 7.51496 15.5693 7.28899C15.2616 8.51262 14.8264 9.70375 14.2919 10.841C12.8156 13.9831 10.6321 15.9962 8.30668 18.5454C7.55695 19.3669 6.77651 20.1796 5.96033 20.9502L5.96069 20.9498Z"
        fill="#AC262B" />
</svg>
