<svg width="20" height="20" viewBox="0 0 20 20" fill="none" xmlns="http://www.w3.org/2000/svg">
<path fill-rule="evenodd" clip-rule="evenodd" d="M9.12334 1.04175H10.8767C11.6254 1.04172 12.2498 1.0417 12.7454 1.10834C13.2686 1.17868 13.7409 1.33341 14.1205 1.71296C14.5 2.09252 14.6547 2.56486 14.7251 3.08802C14.7783 3.48392 14.789 3.96194 14.7912 4.51987C15.4118 4.63667 15.9427 4.85666 16.3764 5.29037C16.878 5.79197 17.0937 6.42353 17.1946 7.17362C17.2917 7.8961 17.2917 8.8147 17.2917 9.95436V10.9136C17.2917 11.8873 17.2917 12.666 17.2261 13.3001C17.1583 13.9559 17.0164 14.5098 16.7005 15.021C16.3846 15.5322 15.9526 15.9068 15.3964 16.2607C14.8586 16.6029 14.1621 16.9512 13.2911 17.3866L13.2609 17.4017C13.2134 17.4255 13.1665 17.449 13.1201 17.4722C11.7941 18.1357 10.9364 18.565 10 18.565C9.06365 18.565 8.20587 18.1357 6.87991 17.4722C6.83355 17.449 6.78661 17.4255 6.73908 17.4017L6.70892 17.3866C5.83796 16.9512 5.14146 16.6029 4.60365 16.2607C4.04743 15.9068 3.61545 15.5322 3.29952 15.021C2.98359 14.5098 2.84169 13.9559 2.77389 13.3001C2.70833 12.666 2.70834 11.8873 2.70834 10.9136L2.70834 9.95435C2.70833 8.8147 2.70831 7.8961 2.80545 7.17362C2.90629 6.42353 3.12204 5.79197 3.62364 5.29037C4.05735 4.85666 4.58822 4.63667 5.20887 4.51987C5.21101 3.96194 5.22171 3.48392 5.27494 3.08802C5.34527 2.56486 5.5 2.09252 5.87956 1.71296C6.25912 1.33341 6.73145 1.17868 7.25461 1.10834C7.75026 1.0417 8.37461 1.04172 9.12334 1.04175ZM6.4597 4.39643C6.99209 4.37506 7.59956 4.37507 8.28761 4.37508H11.7124C12.4005 4.37507 13.0079 4.37506 13.5403 4.39643C13.537 3.91127 13.5255 3.5468 13.4862 3.25458C13.4345 2.87003 13.3452 2.70544 13.2366 2.59685C13.128 2.48825 12.9634 2.3989 12.5789 2.3472C12.1763 2.29308 11.6367 2.29175 10.8333 2.29175H9.16668C8.36333 2.29175 7.8237 2.29308 7.42117 2.3472C7.03662 2.3989 6.87204 2.48825 6.76344 2.59685C6.65484 2.70544 6.56549 2.87003 6.51379 3.25458C6.4745 3.5468 6.46304 3.91127 6.4597 4.39643ZM5.67344 5.71104C5.06197 5.79325 4.73816 5.94362 4.50752 6.17426C4.27688 6.40489 4.12651 6.7287 4.0443 7.34018C3.95967 7.96964 3.95834 8.8039 3.95834 10.0001V10.8799C3.95834 11.895 3.95912 12.6092 4.01726 13.1715C4.07391 13.7195 4.18093 14.0695 4.36283 14.3638C4.54473 14.6581 4.80993 14.9104 5.27469 15.2061C5.75167 15.5096 6.39009 15.8297 7.2981 16.2837C8.81723 17.0433 9.39532 17.315 10 17.315C10.6047 17.315 11.1828 17.0433 12.7019 16.2837C13.6099 15.8297 14.2483 15.5096 14.7253 15.2061C15.1901 14.9104 15.4553 14.6581 15.6372 14.3638C15.8191 14.0695 15.9261 13.7195 15.9828 13.1715C16.0409 12.6092 16.0417 11.895 16.0417 10.8799V10.0001C16.0417 8.8039 16.0403 7.96964 15.9557 7.34018C15.8735 6.7287 15.7231 6.40489 15.4925 6.17426C15.2619 5.94362 14.9381 5.79325 14.3266 5.71104C13.6971 5.62641 12.8629 5.62508 11.6667 5.62508H8.33334C7.13716 5.62508 6.3029 5.62641 5.67344 5.71104ZM10 9.19549C9.95156 9.27936 9.89769 9.37594 9.83421 9.48982L9.75229 9.63679C9.7465 9.64716 9.74031 9.65849 9.73367 9.67063C9.66823 9.79031 9.55986 9.9885 9.37915 10.1257C9.19467 10.2657 8.97276 10.3139 8.843 10.3421C8.83 10.3449 8.81793 10.3475 8.80691 10.35L8.64782 10.386C8.50185 10.419 8.38294 10.446 8.28126 10.4715C8.34739 10.553 8.4333 10.654 8.54504 10.7847L8.65349 10.9115C8.66119 10.9205 8.66955 10.9302 8.67847 10.9404C8.76841 11.044 8.91363 11.2113 8.98079 11.4273C9.04715 11.6407 9.02426 11.8604 9.00982 11.9991C9.00838 12.0129 9.00702 12.026 9.00584 12.0381L8.98945 12.2073C8.97424 12.3642 8.96242 12.4894 8.95455 12.5912C9.04139 12.553 9.14018 12.5075 9.25753 12.4535L9.40649 12.3849C9.41674 12.3802 9.42798 12.3749 9.44013 12.3692C9.55972 12.3128 9.76779 12.2146 10 12.2146C10.2322 12.2146 10.4403 12.3128 10.5599 12.3692C10.572 12.3749 10.5833 12.3802 10.5935 12.3849L10.7425 12.4535C10.8598 12.5075 10.9586 12.553 11.0455 12.5912C11.0376 12.4894 11.0258 12.3642 11.0106 12.2073L10.9942 12.0381C10.993 12.026 10.9916 12.0129 10.9902 11.9991C10.9758 11.8604 10.9529 11.6407 11.0192 11.4273C11.0864 11.2113 11.2316 11.044 11.3216 10.9404C11.3305 10.9302 11.3388 10.9205 11.3465 10.9115L11.455 10.7847C11.5667 10.654 11.6526 10.553 11.7188 10.4715C11.6171 10.446 11.4982 10.419 11.3522 10.386L11.1931 10.35C11.1821 10.3475 11.17 10.3449 11.157 10.3421C11.0273 10.3139 10.8054 10.2657 10.6209 10.1257C10.4402 9.9885 10.3318 9.79031 10.2663 9.67063C10.2597 9.65849 10.2535 9.64716 10.2477 9.63679L10.1658 9.48982C10.1023 9.37594 10.0485 9.27936 10 9.19549ZM9.17792 8.16644C9.3214 7.97909 9.58193 7.70842 10 7.70842C10.4181 7.70842 10.6786 7.97909 10.8221 8.16644C10.959 8.34526 11.0969 8.59278 11.2383 8.84655C11.2448 8.85809 11.2512 8.86964 11.2576 8.8812L11.3396 9.02816C11.3586 9.06224 11.3735 9.08906 11.3866 9.11199C11.4094 9.11734 11.4359 9.12335 11.469 9.13084L11.6281 9.16683C11.6411 9.16978 11.6541 9.17273 11.6671 9.17567C11.9403 9.2374 12.2118 9.29875 12.4202 9.38087C12.6503 9.47156 12.9622 9.64817 13.0825 10.0348C13.2006 10.4145 13.0515 10.7362 12.9214 10.943C12.8009 11.1343 12.6178 11.3483 12.4304 11.5674C12.4219 11.5773 12.4135 11.5872 12.405 11.5971L12.2965 11.7239C12.2678 11.7575 12.2461 11.7829 12.2279 11.8048C12.2304 11.8351 12.2338 11.8704 12.2383 11.9175L12.2547 12.0867C12.256 12.0996 12.2573 12.1125 12.2585 12.1254C12.287 12.4187 12.3145 12.7021 12.3044 12.9288C12.2938 13.1665 12.2368 13.5264 11.9141 13.7713C11.5813 14.024 11.2137 13.9689 10.9806 13.9021C10.7658 13.8405 10.512 13.7236 10.2564 13.6058C10.2442 13.6002 10.2319 13.5946 10.2197 13.5889L10.0707 13.5203C10.0429 13.5075 10.02 13.497 10 13.4879C9.98005 13.497 9.95715 13.5075 9.92928 13.5203L9.78032 13.5889C9.76808 13.5946 9.75583 13.6002 9.74359 13.6058C9.48799 13.7236 9.23421 13.8405 9.01943 13.9021C8.78632 13.9689 8.41874 14.024 8.0859 13.7713C7.76326 13.5264 7.70621 13.1665 7.69562 12.9288C7.68552 12.7021 7.71304 12.4187 7.74152 12.1254C7.74277 12.1125 7.74402 12.0996 7.74527 12.0867L7.76167 11.9175C7.76624 11.8704 7.76964 11.8351 7.77213 11.8048C7.75389 11.7829 7.73223 11.7575 7.70349 11.7239L7.59504 11.5971C7.58655 11.5872 7.57807 11.5773 7.5696 11.5674C7.38217 11.3483 7.1991 11.1343 7.07864 10.943C6.94849 10.7362 6.79946 10.4145 6.91756 10.0348C7.03777 9.64817 7.34969 9.47156 7.57981 9.38087C7.78821 9.29875 8.0597 9.2374 8.33287 9.17567C8.3459 9.17273 8.35894 9.16978 8.37197 9.16683L8.53106 9.13084C8.56416 9.12335 8.59065 9.11734 8.61343 9.112C8.62651 9.08906 8.64147 9.06224 8.66047 9.02816L8.74239 8.8812C8.74883 8.86964 8.75527 8.8581 8.76169 8.84656C8.90308 8.59279 9.04099 8.34526 9.17792 8.16644Z" fill="#020659"/>
</svg>
