<svg width="24" height="24" viewBox="0 0 24 24" fill="none" xmlns="http://www.w3.org/2000/svg">
<rect y="0.00012207" width="24" height="24" rx="12" fill="#202020"/>
<g clip-path="url(#clip0_1_12614)">
<path fill-rule="evenodd" clip-rule="evenodd" d="M10.1376 6.12144C9.96956 6.17469 9.80357 6.23521 9.64013 6.30291C8.89195 6.61281 8.21215 7.06704 7.63952 7.63967C7.06689 8.2123 6.61266 8.89211 6.30275 9.64028C6.05681 10.234 5.90559 10.8616 5.85365 11.5002H8.84063C8.86197 10.7696 8.93 10.0496 9.04306 9.36721C9.18168 8.53055 9.38649 7.75959 9.65015 7.10042C9.79411 6.74054 9.95674 6.41111 10.1376 6.12144ZM12 4.8335C11.0589 4.8335 10.1269 5.01887 9.25745 5.37903C8.38795 5.73918 7.5979 6.26708 6.93241 6.93256C6.26693 7.59805 5.73903 8.3881 5.37887 9.2576C5.01871 10.1271 4.83334 11.059 4.83334 12.0002C4.83334 12.9413 5.01871 13.8732 5.37887 14.7427C5.73903 15.6122 6.26692 16.4023 6.93241 17.0678C7.5979 17.7332 8.38795 18.2611 9.25744 18.6213C10.1269 18.9815 11.0589 19.1668 12 19.1668C12.9411 19.1668 13.8731 18.9815 14.7426 18.6213C15.6121 18.2611 16.4021 17.7332 17.0676 17.0678C17.7331 16.4023 18.261 15.6122 18.6211 14.7427C18.9813 13.8732 19.1667 12.9413 19.1667 12.0002C19.1667 11.059 18.9813 10.1271 18.6211 9.2576C18.261 8.3881 17.7331 7.59805 17.0676 6.93256C16.4021 6.26708 15.6121 5.73919 14.7426 5.37903C13.8731 5.01887 12.9411 4.8335 12 4.8335ZM12 5.8335C11.8258 5.8335 11.6008 5.91736 11.3392 6.18829C11.0756 6.46123 10.8118 6.889 10.5786 7.47181C10.3471 8.05076 10.159 8.74965 10.0296 9.53067C9.92578 10.1573 9.86212 10.8222 9.84109 11.5002L14.1589 11.5002C14.1379 10.8222 14.0742 10.1573 13.9704 9.53067C13.841 8.74965 13.653 8.05076 13.4214 7.47181C13.1883 6.889 12.9244 6.46123 12.6608 6.18829C12.3992 5.91736 12.1742 5.8335 12 5.8335ZM15.1594 11.5002C15.1381 10.7696 15.07 10.0496 14.957 9.36721C14.8183 8.53055 14.6135 7.75959 14.3499 7.10042C14.2059 6.74054 14.0433 6.41111 13.8624 6.12144C14.0305 6.17469 14.1965 6.23521 14.3599 6.30291C15.1081 6.61281 15.7879 7.06704 16.3605 7.63967C16.9331 8.2123 17.3874 8.89211 17.6973 9.64028C17.9432 10.234 18.0944 10.8616 18.1464 11.5002H15.1594ZM14.1589 12.5002L9.84109 12.5002C9.86212 13.1781 9.92578 13.843 10.0296 14.4697C10.159 15.2507 10.3471 15.9496 10.5786 16.5285C10.8118 17.1113 11.0756 17.5391 11.3392 17.812C11.6008 18.083 11.8258 18.1668 12 18.1668C12.1742 18.1668 12.3992 18.083 12.6608 17.812C12.9244 17.5391 13.1883 17.1113 13.4214 16.5285C13.653 15.9496 13.841 15.2507 13.9704 14.4697C14.0742 13.843 14.1379 13.1781 14.1589 12.5002ZM13.8624 17.8789C14.0433 17.5892 14.2059 17.2598 14.3499 16.8999C14.6135 16.2407 14.8183 15.4698 14.957 14.6331C15.07 13.9508 15.1381 13.2308 15.1594 12.5002H18.1464C18.0944 13.1387 17.9432 13.7663 17.6973 14.36C17.3874 15.1082 16.9331 15.788 16.3605 16.3607C15.7879 16.9333 15.1081 17.3875 14.3599 17.6974C14.1965 17.7651 14.0305 17.8256 13.8624 17.8789ZM10.1376 17.8789C9.95674 17.5892 9.79411 17.2598 9.65015 16.8999C9.38649 16.2407 9.18168 15.4698 9.04306 14.6331C8.93 13.9508 8.86197 13.2308 8.84063 12.5002H5.85365C5.90559 13.1387 6.05681 13.7663 6.30275 14.36C6.61266 15.1082 7.06689 15.788 7.63952 16.3607C8.21215 16.9333 8.89195 17.3875 9.64013 17.6974C9.80357 17.7651 9.96956 17.8256 10.1376 17.8789Z" fill="white"/>
</g>
<defs>
<clipPath id="clip0_1_12614">
<rect width="16" height="16" fill="white" transform="translate(4 4.00012)"/>
</clipPath>
</defs>
</svg>
