<svg width="44" height="45" viewBox="0 0 44 45" fill="none" xmlns="http://www.w3.org/2000/svg">
<rect width="44" height="45" rx="22" fill="#F2F2F2"/>
<path d="M23.6203 30.326C23.6557 30.464 23.6743 30.6086 23.6743 30.758C23.6743 31.7199 22.8943 32.4999 21.9324 32.4999C20.9704 32.4999 20.1904 31.7199 20.1904 30.758C20.1904 30.596 20.2124 30.4386 20.2544 30.2893" stroke="#020659" stroke-width="1.5" stroke-miterlimit="10" stroke-linecap="round" stroke-linejoin="round"/>
<path d="M15.1965 26.7083H28.8114" stroke="#020659" stroke-width="1.5" stroke-miterlimit="10" stroke-linecap="round" stroke-linejoin="round"/>
<path d="M20.6263 14.4366V13.8833C20.6263 13.1193 21.2457 12.5 22.0096 12.5C22.7736 12.5 23.3929 13.1193 23.3929 13.8833V14.4366" stroke="#020659" stroke-width="1.5" stroke-miterlimit="10" stroke-linecap="round" stroke-linejoin="round"/>
<path d="M13.5 30.2301C13.5 30.2301 15.4473 28.7255 15.4473 21.1011C15.4473 17.3365 18.3512 14.616 21.9324 14.616C25.5136 14.616 28.4175 17.5199 28.4175 21.1011V21.1484C28.4175 28.7728 30.3901 30.2295 30.3901 30.2295H13.5V30.2301Z" stroke="#020659" stroke-width="1.5" stroke-miterlimit="10" stroke-linecap="round" stroke-linejoin="round"/>
</svg>
