<svg width="30" height="30" viewBox="0 0 30 30" fill="none" xmlns="http://www.w3.org/2000/svg">
<path d="M17.0254 24.7826C17.0695 24.9551 17.0929 25.136 17.0929 25.3226C17.0929 26.5251 16.1179 27.5001 14.9154 27.5001C13.713 27.5001 12.738 26.5251 12.738 25.3226C12.738 25.1201 12.7655 24.9235 12.818 24.7368" stroke="#2C2F73" stroke-width="1.5" stroke-miterlimit="10" stroke-linecap="round" stroke-linejoin="round"/>
<path d="M6.49573 20.2603H23.5143" stroke="#2C2F73" stroke-width="1.5" stroke-miterlimit="10" stroke-linecap="round" stroke-linejoin="round"/>
<path d="M13.283 4.92075V4.22911C13.283 3.27414 14.0571 2.5 15.0121 2.5C15.967 2.5 16.7412 3.27414 16.7412 4.22911V4.92075" stroke="#2C2F73" stroke-width="1.5" stroke-miterlimit="10" stroke-linecap="round" stroke-linejoin="round"/>
<path d="M4.375 24.6626C4.375 24.6626 6.80908 22.7818 6.80908 13.2513C6.80908 8.54562 10.439 5.1449 14.9155 5.1449C19.392 5.1449 23.0219 8.77478 23.0219 13.2513V13.3105C23.0219 22.841 25.4876 24.6618 25.4876 24.6618H4.375V24.6626Z" stroke="#2C2F73" stroke-width="1.5" stroke-miterlimit="10" stroke-linecap="round" stroke-linejoin="round"/>
</svg>
