<svg width="155" height="140" viewBox="0 0 155 140" fill="none" xmlns="http://www.w3.org/2000/svg">
<path d="M77.147 49.7546C82.8402 49.7546 88.3001 52.0162 92.3258 56.0419C96.3514 60.0676 98.613 65.5275 98.613 71.2206V122.651H55.681V71.2206C55.681 68.4017 56.2363 65.6104 57.315 63.006C58.3938 60.4016 59.975 58.0352 61.9683 56.0419C63.9616 54.0486 66.328 52.4674 68.9323 51.3886C71.5367 50.3099 74.3281 49.7546 77.147 49.7546Z" fill="#E6E6E6"/>
<path d="M69.7221 75.6978H65.8671V88.4898H69.7221V75.6978Z" fill="white"/>
<path d="M83.543 89.5066H70.751V101.072H83.543V89.5066Z" fill="white"/>
<path d="M83.543 75.6978H70.751V88.4898H83.543V75.6978Z" fill="white"/>
<path d="M84.571 74.6776H88.426V74.4146C88.4277 72.8046 88.0845 71.213 87.4196 69.7469C86.7546 68.2807 85.7833 66.9739 84.571 65.9146V74.6776Z" fill="white"/>
<path d="M70.751 74.6817H83.543V65.1008C81.6609 63.8043 79.4285 63.1118 77.1431 63.1157C74.8576 63.1118 72.6251 63.8042 70.743 65.1008L70.751 74.6817Z" fill="white"/>
<path d="M69.722 89.5066H65.8671V98.2676C65.8671 99.0102 66.1621 99.7224 66.6872 100.247C67.2123 100.773 67.9244 101.068 68.6671 101.068H69.7181L69.722 89.5066Z" fill="white"/>
<path d="M84.571 89.5066V101.072H85.6221C86.3647 101.072 87.0768 100.777 87.6019 100.252C88.127 99.7264 88.4221 99.0142 88.4221 98.2716V89.5106L84.571 89.5066Z" fill="white"/>
<path d="M69.7221 74.6777V65.9167C68.5098 66.9761 67.5386 68.2828 66.8736 69.749C66.2086 71.2152 65.8654 72.8068 65.8671 74.4167V74.6797L69.7221 74.6777Z" fill="white"/>
<path d="M88.426 75.6978H84.571V88.4898H88.426V75.6978Z" fill="white"/>
<path d="M95.501 92.6766C96.7591 92.6766 97.779 91.6567 97.779 90.3986C97.779 89.1405 96.7591 88.1206 95.501 88.1206C94.2429 88.1206 93.223 89.1405 93.223 90.3986C93.223 91.6567 94.2429 92.6766 95.501 92.6766Z" fill="url(#paint0_linear_1_15579)"/>
<path d="M23.9141 68.5767H20.8881V78.6167H23.9141V68.5767Z" fill="#F2F2F2"/>
<path d="M34.715 68.5767H24.675V78.6167H34.715V68.5767Z" fill="#F2F2F2"/>
<path d="M38.543 68.5767H35.517V78.6167H38.543V68.5767Z" fill="#F2F2F2"/>
<path d="M35.517 67.7747H38.545V67.5687C38.5461 66.3053 38.2766 65.0563 37.7547 63.9058C37.2327 62.7553 36.4704 61.7299 35.519 60.8987L35.517 67.7747Z" fill="#F2F2F2"/>
<path d="M34.715 79.4158H24.675V88.4928H34.715V79.4158Z" fill="#F2F2F2"/>
<path d="M23.914 79.4158H20.8881V86.2928C20.8881 86.8762 21.1198 87.4358 21.5324 87.8484C21.945 88.261 22.5046 88.4927 23.088 88.4927H23.9131L23.914 79.4158Z" fill="#F2F2F2"/>
<path d="M35.517 79.4158V88.4927H36.342C36.9255 88.4927 37.4851 88.261 37.8976 87.8484C38.3102 87.4358 38.542 86.8762 38.542 86.2928V79.4158H35.517Z" fill="#F2F2F2"/>
<path d="M23.9131 67.7747V60.8987C22.9618 61.73 22.1995 62.7553 21.6775 63.9059C21.1556 65.0564 20.886 66.3053 20.8871 67.5687V67.7747H23.9131Z" fill="#F2F2F2"/>
<path d="M24.675 67.7777H34.7151V60.2587C33.2387 59.2417 31.4877 58.6983 29.695 58.7007C27.9023 58.6983 26.1514 59.2417 24.675 60.2587V67.7777Z" fill="#F2F2F2"/>
<path d="M42.581 89.5816H17C16.8359 89.5813 16.6787 89.516 16.5626 89.4C16.4466 89.2839 16.3813 89.1267 16.381 88.9626V87.3126C16.3813 87.1485 16.4466 86.9912 16.5626 86.8752C16.6787 86.7592 16.8359 86.6939 17 86.6936H42.581C42.7451 86.6939 42.9024 86.7592 43.0184 86.8752C43.1345 86.9912 43.1998 87.1485 43.2 87.3126V88.9626C43.1998 89.1267 43.1345 89.2839 43.0184 89.4C42.9024 89.516 42.7451 89.5813 42.581 89.5816Z" fill="#E6E6E6"/>
<path d="M118.782 68.5767H115.756V78.6167H118.782V68.5767Z" fill="#F2F2F2"/>
<path d="M129.623 68.5767H119.583V78.6167H129.623V68.5767Z" fill="#F2F2F2"/>
<path d="M133.411 68.5767H130.385V78.6167H133.411V68.5767Z" fill="#F2F2F2"/>
<path d="M130.385 67.7747H133.413V67.5687C133.414 66.3053 133.145 65.0564 132.623 63.9059C132.101 62.7553 131.338 61.73 130.387 60.8987L130.385 67.7747Z" fill="#F2F2F2"/>
<path d="M129.623 79.4158H119.583V88.4928H129.623V79.4158Z" fill="#F2F2F2"/>
<path d="M118.782 79.4158H115.756V86.2928C115.756 86.8762 115.988 87.4358 116.4 87.8484C116.813 88.261 117.373 88.4927 117.956 88.4927H118.781L118.782 79.4158Z" fill="#F2F2F2"/>
<path d="M130.385 79.4158V88.4927H131.21C131.794 88.4927 132.353 88.261 132.766 87.8484C133.178 87.4358 133.41 86.8762 133.41 86.2928V79.4158H130.385Z" fill="#F2F2F2"/>
<path d="M118.781 67.7747V60.8987C117.83 61.73 117.067 62.7553 116.545 63.9059C116.024 65.0564 115.754 66.3053 115.755 67.5687V67.7747H118.781Z" fill="#F2F2F2"/>
<path d="M119.583 67.7777H129.623V60.2587C128.147 59.2417 126.396 58.6983 124.603 58.7007C122.81 58.6983 121.059 59.2417 119.583 60.2587V67.7777Z" fill="#F2F2F2"/>
<path d="M137.362 89.5816H111.781C111.617 89.5813 111.46 89.516 111.344 89.4C111.228 89.2839 111.162 89.1267 111.162 88.9626V87.3126C111.162 87.1485 111.228 86.9912 111.344 86.8752C111.46 86.7592 111.617 86.6939 111.781 86.6936H137.362C137.526 86.6939 137.683 86.7592 137.799 86.8752C137.915 86.9912 137.981 87.1485 137.981 87.3126V88.9626C137.981 89.1267 137.915 89.2839 137.799 89.4C137.683 89.516 137.526 89.5813 137.362 89.5816Z" fill="#E6E6E6"/>
<path d="M144.966 122.826H9.32703C7.79597 122.822 6.32888 122.211 5.24757 121.127C4.16626 120.043 3.55902 118.575 3.55902 117.044V28.9026C3.55875 27.3714 4.16589 25.9026 5.24722 24.8184C6.32856 23.7343 7.7958 23.1233 9.32703 23.1196H144.966C146.497 23.1233 147.964 23.7343 149.046 24.8184C150.127 25.9026 150.734 27.3714 150.734 28.9026V117.044C150.734 118.575 150.127 120.044 149.046 121.128C147.964 122.212 146.497 122.823 144.966 122.827V122.826ZM9.32703 23.4696C7.88854 23.4728 6.51007 24.0465 5.49413 25.0649C4.47818 26.0833 3.90775 27.4632 3.90802 28.9016V117.043C3.90775 118.481 4.47818 119.861 5.49413 120.879C6.51007 121.898 7.88854 122.471 9.32703 122.475H144.966C146.404 122.471 147.783 121.897 148.799 120.879C149.814 119.861 150.385 118.481 150.385 117.043V28.9026C150.385 27.4642 149.814 26.0845 148.799 25.0662C147.783 24.0479 146.404 23.4741 144.966 23.4706L9.32703 23.4696Z" fill="#CCCCCC"/>
<path d="M5.74404 34.9797C4.29599 34.9657 2.90554 34.4105 1.84606 33.4233C0.78659 32.4361 0.13474 31.0883 0.0186711 29.6448C-0.0973978 28.2013 0.330702 26.7667 1.21882 25.6229C2.10694 24.4791 3.39083 23.7088 4.81805 23.4637L75.718 0.113669C76.6395 -0.0378896 77.5796 -0.0378896 78.501 0.113669L149.488 23.4677C151.005 23.7158 152.36 24.5562 153.257 25.8039C154.154 27.0517 154.519 28.6047 154.271 30.1212C154.022 31.6377 153.182 32.9935 151.934 33.8904C150.687 34.7873 149.134 35.1518 147.617 34.9037C146.852 34.7937 77.775 24.9037 77.145 24.8817C76.517 24.9077 7.37304 34.8037 6.67504 34.9037C6.36727 34.9541 6.05592 34.9795 5.74404 34.9797Z" fill="#CCCCCC"/>
<path d="M107.555 108.981C107.702 108.79 107.805 108.57 107.857 108.336C107.909 108.101 107.91 107.858 107.858 107.624C107.806 107.389 107.703 107.169 107.557 106.978C107.411 106.788 107.225 106.631 107.012 106.521L107.337 102.78L105.112 102.028L104.728 107.317C104.565 107.687 104.544 108.104 104.668 108.489C104.792 108.874 105.054 109.2 105.402 109.406C105.751 109.611 106.163 109.681 106.56 109.602C106.957 109.524 107.31 109.303 107.555 108.981Z" fill="#FFB8B8"/>
<path d="M118.632 137.988H116.632L115.679 130.261H118.636L118.632 137.988Z" fill="#FFB8B8"/>
<path d="M115.199 137.415H119.062V139.848H112.762C112.762 139.528 112.825 139.211 112.948 138.916C113.07 138.62 113.25 138.352 113.476 138.126C113.702 137.9 113.971 137.721 114.267 137.599C114.562 137.477 114.879 137.414 115.199 137.415Z" fill="#2F2E41"/>
<path d="M114.097 132.858L112.152 133.336L109.382 126.058L112.253 125.352L114.097 132.858Z" fill="#FFB8B8"/>
<path d="M110.624 133.123L114.379 132.199L114.961 134.561L108.844 136.067C108.689 135.44 108.79 134.778 109.124 134.226C109.458 133.674 109.998 133.277 110.624 133.123Z" fill="#2F2E41"/>
<path d="M116.291 135.525C116.108 135.525 115.932 135.457 115.796 135.335C115.66 135.213 115.575 135.044 115.556 134.863L113.251 113.388L111.245 119.955L114.086 130.212C114.135 130.387 114.117 130.575 114.036 130.739C113.955 130.902 113.816 131.03 113.647 131.098L111.388 131.998C111.295 132.035 111.196 132.053 111.095 132.05C110.995 132.048 110.897 132.025 110.806 131.984C110.715 131.942 110.633 131.883 110.565 131.809C110.498 131.735 110.446 131.648 110.413 131.554L106.931 121.564C106.549 120.473 106.379 119.318 106.431 118.164L106.917 107.383L119.717 107.925L119.517 134.598C119.515 134.783 119.443 134.961 119.316 135.097C119.19 135.233 119.017 135.316 118.832 135.332L116.346 135.519L116.291 135.525Z" fill="#2F2E41"/>
<path d="M114.172 83.6717C116.549 83.6717 118.476 81.7448 118.476 79.3677C118.476 76.9907 116.549 75.0637 114.172 75.0637C111.795 75.0637 109.868 76.9907 109.868 79.3677C109.868 81.7448 111.795 83.6717 114.172 83.6717Z" fill="#FFB8B8"/>
<path d="M117.336 108.721C116.203 108.721 114.794 108.628 113.336 108.532C111.479 108.37 109.615 108.311 107.751 108.355C107.544 108.375 107.334 108.342 107.143 108.259C106.952 108.176 106.785 108.045 106.659 107.879C105.075 105.851 107.518 97.9417 107.623 97.6057L109.611 88.7618C109.786 87.8495 110.225 87.0086 110.873 86.3432C111.522 85.6777 112.351 85.2169 113.258 85.0177C114.087 84.8509 114.948 84.9348 115.729 85.2585C116.511 85.5823 117.178 86.1313 117.647 86.8357C117.703 86.9144 117.759 86.9951 117.814 87.0777C121.24 92.1517 119.302 104.758 119.172 105.572C119.353 105.789 120.332 107.014 120.063 107.866C119.991 108.051 119.872 108.213 119.716 108.336C119.561 108.459 119.375 108.538 119.179 108.566C118.572 108.686 117.954 108.738 117.336 108.721Z" fill="#CCCCCC"/>
<path d="M107.836 108.724C107.272 108.679 106.721 108.53 106.211 108.285C105.911 108.158 104.979 107.772 106.105 97.9336C106.658 93.1006 107.45 88.3016 107.458 88.2536L107.466 88.2076L107.509 88.1886C107.529 88.1796 109.553 87.2516 109.909 86.0606C109.921 86.0193 109.935 85.9793 109.95 85.9406C110.047 85.6756 110.242 85.4584 110.496 85.3341C110.749 85.2098 111.04 85.1881 111.309 85.2736C111.593 85.3415 111.84 85.5149 112.001 85.7585C112.162 86.0022 112.224 86.2978 112.175 86.5856C112.052 87.3628 111.817 88.1178 111.475 88.8266C110.523 90.7906 109.875 95.9986 109.875 96.0506C109.839 96.4956 108.975 107.033 108.808 107.833C108.792 107.991 108.74 108.144 108.658 108.28C108.575 108.416 108.462 108.532 108.329 108.62C108.178 108.694 108.012 108.73 107.844 108.725L107.836 108.724Z" fill="#2F2E41"/>
<path d="M112.517 108.321C112.439 108.321 112.362 108.295 112.3 108.247C111.034 107.285 113.083 95.6207 114.3 91.5967C114.543 90.7907 114.76 90.0968 114.944 89.5458C115.28 88.5492 115.514 87.5214 115.644 86.4778C115.711 85.9128 115.856 85.5898 116.089 85.4908C116.187 85.4607 116.291 85.4577 116.39 85.4822C116.49 85.5067 116.58 85.5577 116.653 85.6298C117.788 85.6535 118.898 85.9661 119.878 86.5378L120.788 86.9918L121.809 105.067C121.78 106.221 119.509 107.035 118.514 107.087C116.921 107.17 114.062 107.43 112.801 108.228C112.717 108.286 112.619 108.318 112.517 108.321Z" fill="#2F2E41"/>
<path d="M106.856 104.935H106.811L104.749 104.808C104.646 104.801 104.546 104.774 104.455 104.726C104.363 104.679 104.283 104.614 104.218 104.534C104.153 104.453 104.106 104.361 104.079 104.262C104.052 104.162 104.047 104.058 104.062 103.957L104.995 97.7747L106.752 89.1007C106.795 88.887 106.883 88.6848 107.009 88.5071C107.136 88.3295 107.298 88.1804 107.486 88.0696C107.674 87.9587 107.882 87.8885 108.099 87.8635C108.316 87.8385 108.535 87.8594 108.743 87.9247C109.099 88.0381 109.402 88.2749 109.598 88.5923C109.794 88.9098 109.871 89.2869 109.813 89.6557L108.413 98.3467L107.587 104.296C107.562 104.472 107.474 104.633 107.34 104.751C107.206 104.868 107.034 104.933 106.856 104.935Z" fill="#2F2E41"/>
<path d="M114.956 83.5678C115.604 83.5822 116.248 83.4592 116.845 83.207C117.442 82.9548 117.979 82.5791 118.42 82.1046C118.862 81.63 119.197 81.0674 119.406 80.4537C119.614 79.84 119.691 79.1892 119.629 78.544C119.568 77.8987 119.371 77.2738 119.051 76.7101C118.731 76.1465 118.296 75.6569 117.773 75.2737C117.25 74.8904 116.653 74.6222 116.019 74.4866C115.385 74.3509 114.73 74.351 114.096 74.4868C113.164 73.8734 112.061 73.5712 110.946 73.6238C110.392 73.6587 109.857 73.8425 109.398 74.156C108.94 74.4695 108.574 74.9009 108.34 75.4048C108.13 75.9186 108.123 76.4927 108.319 77.012C108.514 77.5312 108.899 77.9573 109.396 78.2048C110.081 78.4025 110.806 78.4129 111.496 78.2348C112.189 78.0569 112.923 78.1218 113.574 78.4188C114.185 78.7808 114.459 79.7518 113.912 80.2038C113.622 80.4532 113.415 80.7851 113.319 81.155C113.223 81.525 113.241 81.9156 113.372 82.2748C113.501 82.6096 113.714 82.9051 113.992 83.1319C114.27 83.3587 114.602 83.509 114.956 83.5678Z" fill="#2F2E41"/>
<path d="M105.44 83.9277C104.318 83.9277 103.242 84.3735 102.448 85.167C101.655 85.9605 101.209 87.0366 101.209 88.1588C101.209 89.2809 101.655 90.357 102.448 91.1505C103.242 91.944 104.318 92.3898 105.44 92.3898C106.562 92.3898 107.638 91.944 108.432 91.1505C109.225 90.357 109.671 89.2809 109.671 88.1588C109.671 87.0366 109.225 85.9605 108.432 85.167C107.638 84.3735 106.562 83.9277 105.44 83.9277Z" fill="url(#paint1_linear_1_15579)"/>
<path d="M105.04 89.9167C104.929 89.9177 104.821 89.8825 104.731 89.8167H104.725L103.561 88.9267C103.507 88.8854 103.462 88.8339 103.428 88.7751C103.394 88.7163 103.372 88.6514 103.363 88.5841C103.354 88.5168 103.358 88.4483 103.376 88.3827C103.393 88.3171 103.424 88.2556 103.465 88.2017C103.506 88.1478 103.558 88.1026 103.617 88.0686C103.675 88.0346 103.74 88.0125 103.808 88.0036C103.875 87.9947 103.943 87.9991 104.009 88.0166C104.075 88.0341 104.136 88.0644 104.19 88.1057L104.944 88.6837L106.725 86.3607C106.766 86.3065 106.817 86.2609 106.876 86.2265C106.935 86.1921 106.999 86.1697 107.067 86.1604C107.134 86.1511 107.203 86.1551 107.268 86.1723C107.334 86.1896 107.396 86.2196 107.45 86.2607C107.504 86.3017 107.55 86.353 107.584 86.4117C107.619 86.4703 107.641 86.5351 107.65 86.6025C107.66 86.6698 107.656 86.7384 107.638 86.8041C107.621 86.8699 107.591 86.9316 107.55 86.9857L105.452 89.7167C105.403 89.7793 105.341 89.8299 105.27 89.8646C105.199 89.8993 105.119 89.9171 105.04 89.9167Z" fill="white"/>
<path d="M114.344 95.6116H99.4941C99.0963 95.6116 98.7147 95.7696 98.4334 96.0509C98.1521 96.3322 97.9941 96.7137 97.9941 97.1116V111.962C97.9941 112.359 98.1521 112.741 98.4334 113.022C98.7147 113.304 99.0963 113.462 99.4941 113.462H114.344C114.742 113.462 115.123 113.304 115.405 113.022C115.686 112.741 115.844 112.359 115.844 111.962V97.1156C115.844 96.7178 115.686 96.3362 115.405 96.0549C115.123 95.7736 114.742 95.6156 114.344 95.6156V95.6116Z" fill="url(#paint2_linear_1_15579)"/>
<path d="M111.003 106.724L103.992 108.089C103.576 108.169 103.145 108.081 102.794 107.845C102.443 107.608 102.2 107.241 102.118 106.826L101.579 104.058C101.499 103.642 101.586 103.211 101.823 102.86C102.06 102.508 102.426 102.265 102.842 102.184L109.85 100.82C110.266 100.739 110.697 100.827 111.048 101.064C111.399 101.301 111.643 101.667 111.724 102.083L112.263 104.851C112.343 105.266 112.256 105.696 112.02 106.047C111.784 106.398 111.418 106.641 111.003 106.724Z" fill="white"/>
<path d="M109.603 103.459L104.253 104.501C104.204 104.511 104.154 104.512 104.105 104.502C104.056 104.493 104.009 104.474 103.968 104.446C103.926 104.419 103.891 104.383 103.863 104.342C103.835 104.3 103.816 104.254 103.807 104.205C103.797 104.156 103.797 104.106 103.807 104.057C103.817 104.008 103.837 103.962 103.865 103.921C103.893 103.879 103.929 103.844 103.971 103.817C104.013 103.79 104.06 103.772 104.109 103.763L109.46 102.721C109.557 102.703 109.657 102.725 109.739 102.781C109.82 102.836 109.877 102.922 109.896 103.019C109.915 103.116 109.895 103.216 109.84 103.299C109.785 103.381 109.701 103.438 109.604 103.459H109.603Z" fill="#020659"/>
<path d="M108.564 104.999L105.796 105.538C105.747 105.548 105.697 105.549 105.648 105.539C105.599 105.53 105.552 105.511 105.511 105.483C105.469 105.456 105.434 105.42 105.406 105.379C105.378 105.337 105.359 105.291 105.35 105.242C105.34 105.193 105.34 105.143 105.35 105.094C105.36 105.045 105.38 104.999 105.408 104.957C105.436 104.916 105.472 104.881 105.514 104.854C105.556 104.827 105.603 104.809 105.652 104.8L108.42 104.261C108.469 104.25 108.519 104.25 108.568 104.259C108.617 104.269 108.664 104.288 108.705 104.315C108.747 104.343 108.782 104.378 108.81 104.42C108.838 104.461 108.857 104.508 108.867 104.557C108.876 104.606 108.876 104.656 108.866 104.705C108.856 104.754 108.836 104.8 108.808 104.841C108.78 104.882 108.744 104.917 108.702 104.944C108.66 104.971 108.613 104.99 108.564 104.999Z" fill="#020659"/>
<path d="M115.847 97.1426V99.1166H97.9901V97.1426C97.9901 96.7448 98.1481 96.3632 98.4294 96.0819C98.7107 95.8006 99.0922 95.6426 99.4901 95.6426H114.34C114.538 95.6417 114.733 95.6798 114.916 95.7548C115.099 95.8297 115.265 95.9401 115.405 96.0795C115.545 96.2189 115.656 96.3845 115.732 96.567C115.808 96.7494 115.847 96.945 115.847 97.1426Z" fill="#3F3D56"/>
<path d="M113.874 98.1697C114 97.9649 114.169 97.7903 114.369 97.658C114.57 97.5257 114.797 97.439 115.035 97.404C115.273 97.369 115.515 97.3866 115.745 97.4554C115.975 97.5243 116.188 97.6429 116.367 97.8027L119.748 96.1697L121.242 97.9827L116.435 100.222C116.147 100.505 115.764 100.673 115.36 100.693C114.957 100.714 114.559 100.585 114.244 100.333C113.928 100.08 113.716 99.7198 113.648 99.3212C113.581 98.9226 113.66 98.5128 113.874 98.1697Z" fill="#FFB8B8"/>
<path d="M118.562 99.9327C118.396 99.9326 118.234 99.8766 118.103 99.7735C117.972 99.6705 117.88 99.5265 117.841 99.3647L117.35 97.3227C117.312 97.169 117.325 97.0074 117.386 96.8615C117.448 96.7157 117.554 96.5934 117.69 96.5127L120.652 94.7397L119.138 89.1966C119.031 88.8025 119.055 88.3846 119.204 88.0047C119.347 87.6446 119.597 87.3373 119.921 87.1246C120.245 86.9119 120.626 86.8042 121.013 86.8161C121.4 86.828 121.775 86.959 122.085 87.1912C122.395 87.4234 122.626 87.7455 122.746 88.1137L124.418 93.2137C124.623 93.8358 124.625 94.5072 124.423 95.1303C124.22 95.7535 123.825 96.2959 123.293 96.6787L118.993 99.7867C118.868 99.8794 118.717 99.9305 118.562 99.9327Z" fill="#2F2E41"/>
<path d="M123.465 139.999H105.591C105.545 139.999 105.5 139.98 105.467 139.947C105.434 139.915 105.416 139.87 105.416 139.824C105.416 139.777 105.434 139.733 105.467 139.7C105.5 139.667 105.545 139.649 105.591 139.649H123.465C123.511 139.649 123.556 139.667 123.589 139.7C123.622 139.733 123.64 139.777 123.64 139.824C123.64 139.87 123.622 139.915 123.589 139.947C123.556 139.98 123.511 139.999 123.465 139.999Z" fill="#CCCCCC"/>
<defs>
<linearGradient id="paint0_linear_1_15579" x1="93.223" y1="90.3827" x2="97.779" y2="90.3827" gradientUnits="userSpaceOnUse">
<stop stop-color="#020659"/>
<stop offset="1" stop-color="#031780"/>
</linearGradient>
<linearGradient id="paint1_linear_1_15579" x1="101.209" y1="88.1292" x2="109.671" y2="88.1292" gradientUnits="userSpaceOnUse">
<stop stop-color="#020659"/>
<stop offset="1" stop-color="#031780"/>
</linearGradient>
<linearGradient id="paint2_linear_1_15579" x1="97.9941" y1="104.474" x2="115.844" y2="104.474" gradientUnits="userSpaceOnUse">
<stop stop-color="#020659"/>
<stop offset="1" stop-color="#031780"/>
</linearGradient>
</defs>
</svg>
