<svg width="45" height="45" viewBox="0 0 45 45" fill="none" xmlns="http://www.w3.org/2000/svg">
<rect width="45" height="45" rx="22.5" fill="#F2F2F2"/>
<path d="M22.4998 23.7999C22.3698 23.7999 22.2398 23.7699 22.1198 23.6999L13.2899 18.5899C12.9299 18.3799 12.8098 17.9199 13.0198 17.5599C13.2298 17.1999 13.6798 17.0799 14.0498 17.2899L22.4998 22.1799L30.8998 17.3199C31.2598 17.1099 31.7198 17.2399 31.9298 17.5899C32.1398 17.9499 32.0098 18.4099 31.6598 18.6199L22.8899 23.6999C22.7599 23.7599 22.6298 23.7999 22.4998 23.7999Z" fill="#020659"/>
<path d="M22.5 32.86C22.09 32.86 21.75 32.52 21.75 32.11V23.04C21.75 22.63 22.09 22.29 22.5 22.29C22.91 22.29 23.25 22.63 23.25 23.04V32.11C23.25 32.52 22.91 32.86 22.5 32.86Z" fill="#020659"/>
<path d="M22.4999 33.25C21.6199 33.25 20.7399 33.06 20.0599 32.67L14.7199 29.71C13.2699 28.91 12.1299 26.98 12.1299 25.32V19.66C12.1299 18 13.2699 16.08 14.7199 15.27L20.0599 12.31C21.4199 11.55 23.5599 11.55 24.9299 12.31L30.2699 15.27C31.7199 16.07 32.8599 18 32.8599 19.66V25.32C32.8599 25.39 32.8599 25.49 32.8299 25.62C32.7699 25.88 32.5799 26.09 32.3299 26.17C32.0799 26.25 31.7999 26.2 31.5999 26.02C30.4599 25.02 28.6799 24.98 27.4599 25.95C26.6899 26.56 26.2399 27.49 26.2399 28.48C26.2399 29.07 26.3999 29.65 26.7099 30.15C26.7899 30.29 26.8699 30.4 26.9599 30.5C27.1099 30.67 27.1699 30.9 27.1299 31.12C27.0899 31.34 26.9499 31.54 26.7499 31.64L24.9199 32.65C24.2499 33.06 23.3799 33.25 22.4999 33.25ZM22.4999 13.25C21.8799 13.25 21.2499 13.38 20.7999 13.63L15.4599 16.59C14.4899 17.13 13.6499 18.56 13.6499 19.66V25.32C13.6499 26.42 14.4999 27.86 15.4599 28.39L20.7999 31.35C21.7099 31.86 23.2999 31.86 24.2099 31.35L25.3299 30.73C24.9599 30.06 24.7599 29.28 24.7599 28.48C24.7599 27.02 25.4099 25.67 26.5399 24.77C27.9099 23.68 29.8499 23.45 31.3699 24.11V19.65C31.3699 18.55 30.5199 17.11 29.5599 16.58L24.2199 13.62C23.7499 13.38 23.1199 13.25 22.4999 13.25Z" fill="#020659"/>
<path d="M29.5 33.25C26.88 33.25 24.75 31.12 24.75 28.5C24.75 27.04 25.4 25.69 26.53 24.79C27.37 24.12 28.43 23.75 29.5 23.75C32.12 23.75 34.25 25.88 34.25 28.5C34.25 29.86 33.66 31.16 32.63 32.06C31.76 32.83 30.65 33.25 29.5 33.25ZM29.5 25.25C28.76 25.25 28.06 25.5 27.47 25.97C26.7 26.58 26.25 27.51 26.25 28.5C26.25 30.29 27.71 31.75 29.5 31.75C30.28 31.75 31.04 31.46 31.65 30.94C32.35 30.32 32.75 29.44 32.75 28.5C32.75 26.71 31.29 25.25 29.5 25.25Z" fill="#020659"/>
<path d="M28.4999 30.25C28.2499 30.25 27.9999 30.12 27.8599 29.89C27.6499 29.53 27.7599 29.07 28.1199 28.86L29.0099 28.33V27.25C29.0099 26.84 29.3499 26.5 29.7599 26.5C30.1699 26.5 30.5099 26.84 30.5099 27.25V28.75C30.5099 29.01 30.3699 29.26 30.1499 29.39L28.8999 30.14C28.7599 30.22 28.6299 30.25 28.4999 30.25Z" fill="#020659"/>
</svg>
