<svg width="45" height="285" viewBox="0 0 45 285" fill="none" xmlns="http://www.w3.org/2000/svg">
<rect x="22" y="44" width="2" height="241" fill="#D9D9D9"/>
<g clip-path="url(#clip0_29_2135)">
<path d="M45 22.5C45 10.0736 34.9264 0 22.5 0C10.0736 0 0 10.0736 0 22.5C0 34.9264 10.0736 45 22.5 45C34.9264 45 45 34.9264 45 22.5Z" fill="#020659"/>
<path d="M31 14L33 18V31C33 31.2652 32.8946 31.5196 32.7071 31.7071C32.5196 31.8946 32.2652 32 32 32H14C13.7348 32 13.4804 31.8946 13.2929 31.7071C13.1054 31.5196 13 31.2652 13 31V18L15 14H31ZM31 20H15V30H31V20ZM23 21L27 25H24V29H22V25H19L23 21ZM29.764 16H16.236L15.236 18H30.764L29.764 16Z" fill="white"/>
</g>
<path d="M45 102.5C45 90.0736 34.9264 80 22.5 80C10.0736 80 0 90.0736 0 102.5C0 114.926 10.0736 125 22.5 125C34.9264 125 45 114.926 45 102.5Z" fill="#DEDEDE"/>
<path d="M29.5371 110.567C27.6131 112.226 25.1289 113.089 22.5907 112.98C20.0524 112.871 17.6512 111.799 15.8763 109.981C14.1013 108.164 13.0863 105.737 13.0379 103.197C12.9896 100.657 13.9116 98.1943 15.6161 96.3104C17.3206 94.4264 19.6793 93.2633 22.2116 93.0581C24.7438 92.8528 27.2591 93.6208 29.2448 95.2055C31.2304 96.7903 32.5372 99.0726 32.8986 101.587C33.26 104.102 32.649 106.66 31.1901 108.74L28.0001 103H31.0001C30.9999 101.156 30.3629 99.3688 29.1967 97.9407C28.0306 96.5125 26.4069 95.531 24.6004 95.1621C22.7939 94.7933 20.9154 95.0598 19.2827 95.9165C17.6501 96.7733 16.3635 98.1677 15.6406 99.8639C14.9177 101.56 14.8029 103.454 15.3156 105.225C15.8282 106.996 16.937 108.536 18.4541 109.583C19.9713 110.631 21.8039 111.123 23.6417 110.975C25.4796 110.827 27.2099 110.049 28.5401 108.772L29.5371 110.567Z" fill="white"/>
<path d="M45 182.5C45 170.074 34.9264 160 22.5 160C10.0736 160 0 170.074 0 182.5C0 194.926 10.0736 205 22.5 205C34.9264 205 45 194.926 45 182.5Z" fill="#DEDEDE"/>
<path d="M24.414 177L26.243 178.828L24.828 180.243L20.586 176L24.828 171.757L26.243 173.172L24.414 175H27C28.3261 175 29.5979 175.527 30.5355 176.464C31.4732 177.402 32 178.674 32 180V184H30V180C30 179.204 29.6839 178.441 29.1213 177.879C28.5587 177.316 27.7956 177 27 177H24.414ZM26 182V192C26 192.265 25.8946 192.519 25.7071 192.707C25.5196 192.894 25.2652 193 25 193H15C14.7348 193 14.4804 192.894 14.2929 192.707C14.1054 192.519 14 192.265 14 192V182C14 181.735 14.1054 181.48 14.2929 181.293C14.4804 181.105 14.7348 181 15 181H25C25.2652 181 25.5196 181.105 25.7071 181.293C25.8946 181.48 26 181.735 26 182ZM24 183H16V191H24V183Z" fill="white"/>
<g clip-path="url(#clip1_29_2135)">
<path d="M45 262.5C45 250.074 34.9264 240 22.5 240C10.0736 240 0 250.074 0 262.5C0 274.926 10.0736 285 22.5 285C34.9264 285 45 274.926 45 262.5Z" fill="#DEDEDE"/>
<path d="M22.6 264.76L24.012 266.172L32.48 257.706L33.894 259.12L24.014 269L17.65 262.636L19.064 261.222L21.189 263.347L22.6 264.759V264.76ZM22.6 261.932L27.552 256.979L28.962 258.389L24.01 263.342L22.6 261.932ZM19.777 267.587L18.364 269L12 262.636L13.414 261.222L14.827 262.635L19.778 267.586L19.777 267.587Z" fill="white"/>
</g>
<defs>
<clipPath id="clip0_29_2135">
<rect width="45" height="45" fill="white"/>
</clipPath>
<clipPath id="clip1_29_2135">
<rect width="45" height="45" fill="white" transform="translate(0 240)"/>
</clipPath>
</defs>
</svg>
