<svg width="45" height="45" viewBox="0 0 45 45" fill="none" xmlns="http://www.w3.org/2000/svg">
<circle cx="22.5" cy="22.5" r="22.5" fill="#F2F2F2"/>
<path fill-rule="evenodd" clip-rule="evenodd" d="M20.4436 13.75H24.5564C26.3942 13.75 27.8498 13.75 28.989 13.9031C30.1614 14.0608 31.1104 14.3929 31.8588 15.1412C32.6071 15.8896 32.9392 16.8386 33.0969 18.011C33.1873 18.6838 33.2244 19.4671 33.2395 20.3743C33.2464 20.4152 33.25 20.4572 33.25 20.5C33.25 20.5353 33.2476 20.5699 33.2429 20.6039C33.25 21.1696 33.25 21.7818 33.25 22.4436V22.5564C33.25 24.3942 33.25 25.8498 33.0969 26.989C32.9392 28.1614 32.6071 29.1104 31.8588 29.8588C31.1104 30.6071 30.1614 30.9392 28.989 31.0969C27.8498 31.25 26.3942 31.25 24.5564 31.25H20.4436C18.6058 31.25 17.1502 31.25 16.011 31.0969C14.8386 30.9392 13.8896 30.6071 13.1412 29.8588C12.3929 29.1104 12.0608 28.1614 11.9031 26.989C11.75 25.8498 11.75 24.3942 11.75 22.5564V22.4436C11.75 21.7818 11.75 21.1696 11.7571 20.6039C11.7524 20.5699 11.75 20.5352 11.75 20.5C11.75 20.4572 11.7536 20.4152 11.7605 20.3743C11.7756 19.4671 11.8127 18.6838 11.9031 18.011C12.0608 16.8386 12.3929 15.8896 13.1412 15.1412C13.8896 14.3929 14.8386 14.0608 16.011 13.9031C17.1502 13.75 18.6058 13.75 20.4436 13.75ZM13.252 21.25C13.2501 21.6384 13.25 22.0541 13.25 22.5C13.25 24.4068 13.2516 25.7615 13.3898 26.7892C13.525 27.7952 13.7787 28.3749 14.2019 28.7981C14.6251 29.2213 15.2048 29.475 16.2108 29.6102C17.2385 29.7484 18.5932 29.75 20.5 29.75H24.5C26.4068 29.75 27.7615 29.7484 28.7892 29.6102C29.7952 29.475 30.3749 29.2213 30.7981 28.7981C31.2213 28.3749 31.475 27.7952 31.6102 26.7892C31.7484 25.7615 31.75 24.4068 31.75 22.5C31.75 22.0541 31.7499 21.6384 31.748 21.25H13.252ZM31.7239 19.75H13.2761C13.2956 19.1633 13.3299 18.6563 13.3898 18.2108C13.525 17.2048 13.7787 16.6251 14.2019 16.2019C14.6251 15.7787 15.2048 15.525 16.2108 15.3898C17.2385 15.2516 18.5932 15.25 20.5 15.25H24.5C26.4068 15.25 27.7615 15.2516 28.7892 15.3898C29.7952 15.525 30.3749 15.7787 30.7981 16.2019C31.2213 16.6251 31.475 17.2048 31.6102 18.2108C31.6701 18.6563 31.7044 19.1633 31.7239 19.75ZM26.4553 22.75H26.5447C26.9776 22.7499 27.3744 22.7499 27.6972 22.7933C28.0527 22.8411 28.4284 22.9535 28.7374 23.2626C29.0465 23.5716 29.1589 23.9473 29.2067 24.3028C29.2501 24.6256 29.2501 25.0224 29.25 25.4553V25.5447C29.2501 25.9776 29.2501 26.3744 29.2067 26.6972C29.1589 27.0527 29.0465 27.4284 28.7374 27.7374C28.4284 28.0465 28.0527 28.1589 27.6972 28.2067C27.3744 28.2501 26.9776 28.2501 26.5447 28.25H26.4553C26.0224 28.2501 25.6256 28.2501 25.3028 28.2067C24.9473 28.1589 24.5716 28.0465 24.2626 27.7374C23.9535 27.4284 23.8411 27.0527 23.7933 26.6972C23.7499 26.3744 23.7499 25.9776 23.75 25.5447V25.4553C23.7499 25.0224 23.7499 24.6256 23.7933 24.3028C23.8411 23.9473 23.9535 23.5716 24.2626 23.2626C24.5716 22.9535 24.9473 22.8411 25.3028 22.7933C25.6256 22.7499 26.0224 22.7499 26.4553 22.75ZM25.3257 24.3219L25.3232 24.3232L25.3219 24.3257C25.3209 24.3276 25.3192 24.3309 25.3172 24.336C25.3082 24.3577 25.2929 24.4061 25.2799 24.5027C25.2516 24.7134 25.25 25.0074 25.25 25.5C25.25 25.9926 25.2516 26.2866 25.2799 26.4973C25.2929 26.5939 25.3082 26.6423 25.3172 26.664C25.318 26.6661 25.3195 26.6694 25.3195 26.6694C25.3205 26.6716 25.3219 26.6743 25.3219 26.6743L25.3232 26.6768L25.3257 26.6781C25.3276 26.6791 25.3309 26.6808 25.336 26.6828C25.3577 26.6918 25.4061 26.7071 25.5027 26.7201C25.7134 26.7484 26.0074 26.75 26.5 26.75C26.9926 26.75 27.2866 26.7484 27.4973 26.7201C27.5939 26.7071 27.6423 26.6918 27.664 26.6828C27.6691 26.6808 27.6724 26.6791 27.6743 26.6781L27.6768 26.6768L27.6781 26.6743C27.6791 26.6724 27.6808 26.6691 27.6828 26.664C27.6918 26.6423 27.7071 26.5939 27.7201 26.4973C27.7484 26.2866 27.75 25.9926 27.75 25.5C27.75 25.0074 27.7484 24.7134 27.7201 24.5027C27.7071 24.4061 27.6918 24.3577 27.6828 24.336C27.6816 24.333 27.6806 24.3307 27.6797 24.3288L27.6781 24.3257L27.6768 24.3232L27.6743 24.3219C27.6724 24.3209 27.6691 24.3192 27.664 24.3172C27.6423 24.3082 27.5939 24.2929 27.4973 24.2799C27.2866 24.2516 26.9926 24.25 26.5 24.25C26.0074 24.25 25.7134 24.2516 25.5027 24.2799C25.4061 24.2929 25.3577 24.3082 25.336 24.3172C25.3309 24.3192 25.3276 24.3209 25.3257 24.3219ZM15.75 24C15.75 23.5858 16.0858 23.25 16.5 23.25H18.5C18.9142 23.25 19.25 23.5858 19.25 24C19.25 24.4142 18.9142 24.75 18.5 24.75H16.5C16.0858 24.75 15.75 24.4142 15.75 24ZM15.75 27C15.75 26.5858 16.0858 26.25 16.5 26.25H20.5C20.9142 26.25 21.25 26.5858 21.25 27C21.25 27.4142 20.9142 27.75 20.5 27.75H16.5C16.0858 27.75 15.75 27.4142 15.75 27Z" fill="#2C2F73"/>
</svg>
