<svg width="38" height="34" viewBox="0 0 38 34" fill="none" xmlns="http://www.w3.org/2000/svg">
<path d="M0.332995 22.597C0.321798 20.6772 0.79186 18.7852 1.70023 17.0939C2.6086 15.4026 3.92632 13.9659 5.53299 12.915C5.8965 9.58189 7.46623 6.49671 9.94651 4.24058C12.4268 1.98446 15.6464 0.713115 18.999 0.666016C22.3517 0.712873 25.5716 1.98411 28.0521 4.24025C30.5326 6.4964 32.1025 9.58172 32.466 12.915C34.4577 14.2257 35.996 16.1195 36.8707 18.3376C37.7455 20.5556 37.9139 22.9896 37.353 25.307C36.8368 27.6096 35.6028 29.6889 33.829 31.2452C32.0553 32.8016 29.8332 33.7546 27.483 33.967L10.514 34C7.69821 33.7173 5.09065 32.3895 3.20589 30.2785C1.32113 28.1675 0.296073 25.4267 0.332995 22.597ZM27.226 30.466C28.8537 30.3187 30.3925 29.6583 31.6206 28.5799C32.8487 27.5015 33.7025 26.061 34.059 24.466C34.4469 22.8612 34.3296 21.1758 33.7232 19.6402C33.1167 18.1045 32.0507 16.7937 30.671 15.887L29.302 15.005L29.102 13.352C28.8284 10.8532 27.6505 8.54078 25.7901 6.85026C23.9298 5.15975 21.5155 4.20789 19.002 4.17402C16.4885 4.20789 14.0742 5.15975 12.2139 6.85026C10.3535 8.54078 9.17559 10.8532 8.902 13.352L8.702 15.005L7.33299 15.892C5.95348 16.7979 4.88732 18.1076 4.2802 19.6422C3.67308 21.1769 3.55461 22.8615 3.94099 24.466C4.29751 26.0606 5.15111 27.5009 6.37876 28.5792C7.60641 29.6575 9.14472 30.3182 10.772 30.466L11.066 30.489H26.933L27.226 30.466ZM20.696 19.966V26.983H17.302V19.966H12.211L18.999 11.194L25.787 19.966H20.696Z" fill="#020659"/>
</svg>
