<svg width="45" height="45" viewBox="0 0 45 45" fill="none" xmlns="http://www.w3.org/2000/svg">
<rect width="45" height="45" rx="22.5" fill="#F2F2F2"/>
<path d="M22.4998 23.7999C22.3698 23.7999 22.2398 23.7699 22.1198 23.6999L13.2899 18.5899C12.9299 18.3799 12.8098 17.9199 13.0198 17.5599C13.2298 17.1999 13.6899 17.0799 14.0399 17.2899L22.4898 22.1799L30.8899 17.3199C31.2499 17.1099 31.7098 17.2399 31.9098 17.5899C32.1198 17.9499 31.9899 18.4099 31.6399 18.6199L22.8698 23.6999C22.7598 23.7599 22.6298 23.7999 22.4998 23.7999Z" fill="#020659"/>
<path d="M22.5 32.8598C22.09 32.8598 21.75 32.5198 21.75 32.1098V23.0398C21.75 22.6298 22.09 22.2898 22.5 22.2898C22.91 22.2898 23.25 22.6298 23.25 23.0398V32.1098C23.25 32.5198 22.91 32.8598 22.5 32.8598Z" fill="#020659"/>
<path d="M22.4999 33.2499C21.6199 33.2499 20.7399 33.0599 20.0599 32.6699L14.7199 29.7099C13.2699 28.9099 12.1299 26.9799 12.1299 25.3199V19.6599C12.1299 17.9999 13.2699 16.0799 14.7199 15.2699L20.0599 12.3099C21.4199 11.5399 23.5599 11.5399 24.9299 12.3099L30.2699 15.2699C31.7199 16.0699 32.8599 17.9999 32.8599 19.6599V25.3199C32.8599 25.4199 32.8599 25.4999 32.8399 25.5999C32.7899 25.8599 32.5999 26.0799 32.3499 26.1599C32.0999 26.2499 31.8199 26.1899 31.6099 26.0199C30.4599 25.0199 28.6799 24.9799 27.4699 25.9499C26.6999 26.5599 26.2499 27.4899 26.2499 28.4799C26.2499 29.0699 26.4099 29.6499 26.7199 30.1499C26.7999 30.2899 26.8799 30.3999 26.9699 30.5099C27.1199 30.6799 27.1799 30.9099 27.1399 31.1299C27.0999 31.3499 26.9599 31.5399 26.7599 31.6499L24.9299 32.6599C24.2499 33.0599 23.3799 33.2499 22.4999 33.2499ZM22.4999 13.2499C21.8799 13.2499 21.2499 13.3799 20.7999 13.6299L15.4599 16.59C14.4899 17.12 13.6499 18.5599 13.6499 19.6599V25.3199C13.6499 26.4199 14.4999 27.8599 15.4599 28.3899L20.7999 31.3499C21.7099 31.8599 23.2999 31.8599 24.2099 31.3499L25.3299 30.7299C24.9599 30.0599 24.7599 29.2799 24.7599 28.4799C24.7599 27.0199 25.4099 25.6699 26.5399 24.7699C27.8999 23.6799 29.8499 23.4499 31.3699 24.0999V19.6399C31.3699 18.5399 30.5199 17.0999 29.5599 16.5699L24.2199 13.6099C23.7499 13.3799 23.1199 13.2499 22.4999 13.2499Z" fill="#020659"/>
<path d="M29.5 33.25C27.84 33.25 26.28 32.37 25.44 30.94C24.99 30.22 24.75 29.37 24.75 28.5C24.75 27.04 25.4 25.69 26.53 24.79C27.37 24.12 28.43 23.75 29.5 23.75C32.12 23.75 34.25 25.88 34.25 28.5C34.25 29.37 34.01 30.22 33.56 30.95C33.32 31.37 32.99 31.75 32.61 32.07C31.78 32.83 30.67 33.25 29.5 33.25ZM29.5 25.25C28.76 25.25 28.06 25.5 27.47 25.97C26.7 26.58 26.25 27.51 26.25 28.5C26.25 29.09 26.41 29.67 26.72 30.17C27.31 31.17 28.35 31.75 29.5 31.75C30.29 31.75 31.05 31.46 31.63 30.94C31.89 30.72 32.11 30.46 32.27 30.18C32.59 29.67 32.75 29.09 32.75 28.5C32.75 26.71 31.29 25.25 29.5 25.25Z" fill="#020659"/>
<path d="M30.5699 30.2901C30.3799 30.2901 30.1899 30.2201 30.0399 30.0701L27.9299 27.9601C27.6399 27.6701 27.6399 27.1901 27.9299 26.9001C28.2199 26.6101 28.6999 26.6101 28.9899 26.9001L31.0999 29.0101C31.3899 29.3001 31.3899 29.7801 31.0999 30.0701C30.9499 30.2201 30.7599 30.2901 30.5699 30.2901Z" fill="#020659"/>
<path d="M28.4301 30.3199C28.2401 30.3199 28.0501 30.2499 27.9001 30.0999C27.6101 29.8099 27.6101 29.3299 27.9001 29.0399L30.0101 26.9299C30.3001 26.6399 30.7801 26.6399 31.0701 26.9299C31.3601 27.2199 31.3601 27.6999 31.0701 27.9899L28.9601 30.0999C28.8101 30.2499 28.6201 30.3199 28.4301 30.3199Z" fill="#020659"/>
</svg>
