<svg width="32" height="24" viewBox="0 0 32 24" fill="none" xmlns="http://www.w3.org/2000/svg">
<g clip-path="url(#clip0_1_15021)">
<mask id="mask0_1_15021" style="mask-type:luminance" maskUnits="userSpaceOnUse" x="0" y="0" width="32" height="24">
<path d="M0.00170898 0H31.9986V24H0.00170898V0Z" fill="white"/>
</mask>
<g mask="url(#mask0_1_15021)">
<path fill-rule="evenodd" clip-rule="evenodd" d="M-2 0H34V24H-2V0Z" fill="#165D31"/>
<path fill-rule="evenodd" clip-rule="evenodd" d="M7.07039 6.80155C7.03289 7.36405 6.97664 8.34843 7.45946 8.45155C8.03602 8.5078 7.71727 7.47655 7.92821 7.28905C7.96571 7.1953 8.03602 7.1953 8.04071 7.31249V8.18905C8.04071 8.4703 8.22821 8.55468 8.36883 8.61093C8.51883 8.60155 8.62196 8.61093 8.67821 8.75155L8.75321 10.2656C8.75321 10.2656 9.10008 10.3687 9.11883 9.41718C9.13289 8.85468 9.00633 8.39062 9.08133 8.2828C9.08133 8.17499 9.22196 8.1703 9.31571 8.22187C9.46571 8.32499 9.53133 8.45624 9.76571 8.40937C10.122 8.30624 10.3376 8.1328 10.3423 7.86093C10.3352 7.59375 10.2796 7.33008 10.1782 7.0828C10.197 7.03593 10.1126 6.90937 10.1313 6.86249C10.1923 6.96562 10.2907 6.95624 10.3095 6.86249C10.2485 6.66562 10.1548 6.47343 10.0048 6.39374C9.87821 6.28124 9.69071 6.29999 9.62977 6.53437C9.59227 6.80155 9.72352 7.11562 9.91571 7.37812C9.95789 7.47655 10.0141 7.6453 9.99071 7.7953C9.88758 7.85624 9.78446 7.82812 9.69539 7.73905C9.69539 7.73905 9.41414 7.52812 9.41414 7.47655C9.48914 6.99843 9.42821 6.94218 9.38602 6.80624C9.35789 6.62343 9.26883 6.56249 9.19852 6.44062C9.12821 6.36562 9.03446 6.36562 8.98758 6.44062C8.86102 6.65624 8.92196 7.1203 9.01102 7.33124C9.07664 7.52343 9.17508 7.6453 9.12821 7.6453C9.09071 7.75312 9.01102 7.72499 8.95008 7.59843C8.88148 7.33208 8.84838 7.05783 8.85164 6.7828C8.82821 6.56718 8.80008 6.1078 8.65477 5.98593C8.57039 5.87343 8.44383 5.92968 8.39696 6.0328C8.38458 6.24221 8.38928 6.45228 8.41102 6.66093C8.50477 7.0078 8.53758 7.31718 8.58446 7.66874C8.59852 8.14218 8.31258 7.87499 8.32664 7.63593C8.38814 7.33539 8.38334 7.02505 8.31258 6.72655C8.26571 6.60468 8.21414 6.57655 8.09696 6.5953C8.00789 6.5953 7.77821 6.84374 7.71258 7.26562C7.71258 7.26562 7.65633 7.48124 7.63289 7.67343C7.60008 7.88905 7.45946 8.04843 7.35633 7.6453C7.27196 7.34999 7.21571 6.6328 7.07508 6.80155H7.07039Z" fill="white"/>
<path fill-rule="evenodd" clip-rule="evenodd" d="M8.64062 9.10308L7.14062 9.82495C7.15469 9.48276 7.84844 8.8687 8.32656 8.86401C8.63125 8.8687 8.55625 8.9812 8.63594 9.10308H8.64062Z" fill="white"/>
<path fill-rule="evenodd" clip-rule="evenodd" d="M8.37346 9.5719C7.58596 11.611 10.225 11.8969 10.5203 9.65628C10.5485 9.56253 10.661 9.47346 10.6797 9.62346C10.6188 11.6532 8.63596 11.7891 8.29846 11.1516C8.21906 10.9322 8.17938 10.7005 8.18127 10.4672C8.13439 10.0688 7.92346 10.2235 7.89064 10.6172C7.85783 10.8375 7.86721 10.8985 7.86721 11.1094C7.97033 12.7125 10.525 12.0235 10.9422 10.7016C11.1625 9.97034 10.9047 9.43128 11.0219 9.43128C11.275 9.70315 11.6313 9.46878 11.711 9.37503C11.7438 9.32815 11.8281 9.29534 11.8844 9.35628C12.0813 9.4969 12.4281 9.43128 12.5031 9.18284C12.5453 8.9344 12.5781 8.68128 12.5875 8.42346C12.4235 8.47034 12.3063 8.50315 12.2922 8.57346L12.2594 8.78909C12.2453 8.8594 12.1094 8.8594 12.1 8.77034C12.0391 8.48909 11.786 8.45628 11.6313 8.88753C11.5328 8.9719 11.3453 8.99065 11.3266 8.86409C11.35 8.57346 11.2328 8.53596 10.9985 8.6719L10.7735 6.97503C10.8672 6.97503 10.961 7.04534 11.05 6.93284C10.9563 6.62815 10.7453 6.0094 10.6281 5.96253C10.5766 5.8969 10.5297 5.93909 10.4547 5.95784C10.3328 5.99534 10.2203 6.09846 10.2578 6.30471C10.3985 7.18596 10.4922 7.85628 10.6375 8.74221C10.661 8.84065 10.5766 8.97659 10.4641 8.96253C10.2766 8.83596 10.2297 8.57815 9.90158 8.58753C9.66721 8.58753 9.40471 8.84534 9.37189 9.08909C9.32971 9.28596 9.31564 9.4969 9.37189 9.66565C9.53596 9.86253 9.73283 9.84378 9.90627 9.80159C10.0469 9.74065 10.1641 9.60003 10.2156 9.63284C10.2485 9.67503 10.2203 10.1438 9.54533 10.5C9.13752 10.6875 8.80939 10.725 8.63596 10.3922C8.52814 10.1813 8.64533 9.38909 8.37346 9.5719Z" fill="white"/>
<path fill-rule="evenodd" clip-rule="evenodd" d="M11.7343 7.49997C11.889 7.44372 12.639 6.58122 12.639 6.58122L12.5265 6.48747C12.4843 6.45465 12.489 6.41715 12.5265 6.38434C12.714 6.27184 12.653 6.03747 12.5593 5.92497C12.4956 5.89394 12.4256 5.87821 12.3548 5.87902C12.284 5.87983 12.2144 5.89717 12.1515 5.92965C12.0202 6.05622 11.9921 6.25778 12.0952 6.37965C12.1937 6.42653 12.2921 6.52965 12.2265 6.5859C11.9171 6.91403 11.078 7.48122 11.1765 7.49997C11.1952 7.52809 11.7155 7.52809 11.7296 7.49997H11.7343ZM7.18741 10.5468C6.90616 10.9968 6.88272 11.6672 7.03741 11.8687C7.12178 11.9625 7.25772 12.0047 7.35616 11.9718C7.53428 11.8968 7.61397 11.5359 7.57178 11.4093C7.51085 11.3156 7.46397 11.3015 7.40303 11.3765C7.28116 11.6297 7.2296 11.4562 7.21553 11.3156C7.2021 11.0774 7.21467 10.8385 7.25303 10.6031C7.28585 10.4062 7.25303 10.4625 7.18741 10.5468ZM19.239 9.82965C18.9671 9.23903 18.5874 8.65778 18.4702 8.43747C18.1049 7.85999 17.7171 7.29705 17.3077 6.74997C17.0171 6.40309 17.7858 6.89528 17.214 6.20153L16.7968 5.84997C16.703 5.78434 16.478 5.66247 16.4405 5.85934C16.4218 6.03747 16.4312 6.13122 16.4593 6.27653C16.4827 6.37028 16.6233 6.53434 16.6937 6.62809C17.6547 7.90096 18.4987 9.25804 19.2155 10.6828C19.3374 10.6218 19.3093 9.92809 19.239 9.82965Z" fill="white"/>
<path fill-rule="evenodd" clip-rule="evenodd" d="M18.0437 11.7891C17.9875 11.85 18.175 12.1078 18.4187 12.1078C18.8219 12.061 19.1781 11.836 19.5062 11.236C19.6396 11.0364 19.7246 10.8085 19.7547 10.5703C19.7944 9.43241 19.7031 8.29369 19.4828 7.17659C19.4687 7.08284 19.4828 6.97034 19.4922 6.94222C19.5203 6.9094 19.6094 6.94222 19.6562 6.86253C19.7265 6.79222 19.4687 6.20628 19.3281 5.98597C19.2812 5.88284 19.2578 5.81722 19.1734 5.99534C19.0716 6.19189 19.0231 6.4117 19.0328 6.63284C19.225 7.96878 19.2859 9.13597 19.4078 10.4719C19.4219 10.6032 19.4031 10.7907 19.314 10.8657C18.9603 11.2595 18.5275 11.5741 18.0437 11.7891ZM23.5047 11.7844C23.214 11.9532 23.214 12.1453 23.4484 12.15C23.8515 12.1032 24.3297 12.0703 24.6578 11.5735C24.7737 11.3394 24.8407 11.0842 24.8547 10.8235C24.9137 9.70306 24.8397 8.5796 24.6344 7.47659C24.625 7.38284 24.5828 7.16253 24.5969 7.1344C24.625 7.06878 24.7562 7.13909 24.8031 7.06409C24.8687 6.99378 24.4609 6.46878 24.3156 6.24378C24.2687 6.14065 24.25 6.07503 24.1609 6.25315C24.0665 6.45151 24.037 6.67457 24.0765 6.89065C24.2922 8.34378 24.4515 9.43128 24.4844 10.7157C24.4656 10.8375 24.4609 10.9032 24.4047 11.0578C24.2781 11.2172 24.1375 11.4235 24.0062 11.5219C23.875 11.6157 23.5937 11.7094 23.5047 11.7844Z" fill="white"/>
<path fill-rule="evenodd" clip-rule="evenodd" d="M23.7203 10.486C23.7203 10.1438 23.725 9.85316 23.7156 9.59534C23.7126 9.377 23.6647 9.16161 23.575 8.96253C23.4906 8.77034 23.5422 8.61566 23.5 8.40941C23.4625 8.20316 23.4719 7.89378 23.4156 7.65472C23.3969 7.56097 23.35 7.25628 23.3641 7.22347C23.3875 7.15784 23.4766 7.22347 23.5234 7.14847C23.5891 7.07816 23.2891 6.30472 23.1391 6.08441C23.0875 5.98597 22.9844 6.01878 22.8672 6.17816C22.75 6.28597 22.7922 6.52503 22.8391 6.75472C23.125 8.26878 23.3453 9.64222 23.2984 11.0813C23.2797 11.2032 23.7203 10.7157 23.7203 10.486ZM21.5781 8.61097C21.3953 8.60159 21.0156 8.25003 20.9031 8.04847C20.8847 7.99921 20.8769 7.94662 20.8801 7.89413C20.8833 7.84164 20.8976 7.79041 20.9219 7.74378C20.9922 7.69691 21.0953 7.65003 21.175 7.69691C21.175 7.69691 21.2547 7.80941 21.2406 7.82347C21.3344 7.87034 21.3812 7.84691 21.3906 7.80472C21.3953 7.73441 21.3625 7.69222 21.3625 7.61722C21.4047 7.40159 21.6437 7.36878 21.7375 7.50472C21.8031 7.58909 21.8312 7.76253 21.8359 7.87972C21.8359 7.94066 21.7422 7.87034 21.6812 7.87972C21.6297 7.89847 21.6156 7.96409 21.6109 8.02034C21.6016 8.17503 21.5828 8.42347 21.5781 8.60628V8.61097ZM18.2125 10.861C18.2594 10.4016 18.1937 9.58128 18.1891 9.30941C18.164 8.6102 18.1061 7.91256 18.0156 7.21878C17.9594 6.82503 18.175 7.26097 18.1469 7.03128C18.0766 6.64222 17.8609 6.37503 17.6031 6.02347C17.5234 5.90628 17.5234 5.88284 17.3969 6.05159C17.2562 6.36566 17.3781 6.58597 17.4156 6.83441C17.5984 7.64066 17.7062 8.38128 17.7578 9.11722C17.8118 9.88171 17.818 10.6488 17.7766 11.4141C17.9172 11.4188 18.1328 11.1938 18.2125 10.861Z" fill="white"/>
<path fill-rule="evenodd" clip-rule="evenodd" d="M24.3437 10.125C24.0203 9.58123 23.5375 8.99998 23.4062 8.77967C22.9716 8.17268 22.515 7.58166 22.0375 7.0078C21.639 6.58592 22.225 6.93748 21.9625 6.60936C21.7422 6.3703 21.6812 6.29061 21.489 6.1453C21.3953 6.08436 21.339 5.96717 21.3015 6.16873C21.2866 6.34332 21.2835 6.51872 21.2922 6.69373C21.2922 6.77342 21.3765 6.92811 21.4515 7.02186C22.4218 8.21717 23.4859 9.43592 24.339 10.9687C24.4609 10.9078 24.4187 10.2187 24.339 10.125H24.3437Z" fill="white"/>
<path fill-rule="evenodd" clip-rule="evenodd" d="M9.7468 9.12656C9.72336 9.16875 9.6718 9.22031 9.69055 9.27188C9.72336 9.31875 9.75617 9.33281 9.81242 9.33281C9.86398 9.33281 9.93898 9.34688 9.95305 9.31875C9.98117 9.28594 9.99992 9.225 9.98117 9.16406C9.92492 9.02344 9.77492 9.07969 9.7468 9.12656Z" fill="#165D31"/>
<path fill-rule="evenodd" clip-rule="evenodd" d="M20.6032 16.9922C21.0344 17.011 21.3157 17.0157 21.6954 17.0579L22.1454 17.011C22.6422 16.9641 22.661 17.7188 22.661 17.7188C22.661 18.1641 22.4875 18.1875 22.2672 18.2344C22.1407 18.2532 22.0797 18.1594 22.0094 18.0657C21.9034 18.0996 21.7905 18.1061 21.6813 18.0844C21.4985 18.075 21.3204 18.075 21.1422 18.061C20.9547 18.0469 20.8516 18.0844 20.6594 18.0657C20.6219 18.1266 20.5657 18.211 20.4532 18.1875C20.3594 18.1735 20.2422 17.9063 20.275 17.6954C20.3454 17.5454 20.3219 17.5969 20.3219 17.5313C18.5594 17.4844 16.7829 17.4047 15.0579 17.4282C13.7079 17.4329 12.3766 17.4891 11.0407 17.5454C10.3282 17.536 9.78442 17.4235 9.40942 16.875C9.44692 16.875 11.2282 16.9735 11.7485 16.9407C12.7094 16.9313 13.5907 16.8516 14.5704 16.8235C16.5016 16.8563 18.4188 16.8563 20.35 16.9922C20.1625 16.8657 20.1625 16.5704 20.4438 16.4954C20.4672 16.4766 20.4813 16.6407 20.5235 16.636C20.7532 16.6219 20.65 16.9313 20.6032 16.9922ZM12.8407 6.34223C12.55 7.17661 13.0094 8.09536 13.3282 8.00629C13.5625 8.10004 13.7032 7.65942 13.7969 7.18129C13.8672 7.04536 13.9141 7.03129 13.9469 7.10161C13.9375 7.73911 13.9938 7.88442 14.1579 8.07661C14.5235 8.35786 14.8282 8.11411 14.8516 8.09067L15.1329 7.80473C15.1985 7.73442 15.2829 7.73442 15.3719 7.79067C15.461 7.87036 15.4469 8.00629 15.6344 8.10004C15.7938 8.16567 16.1266 8.11879 16.2063 7.98286C16.3094 7.80004 16.3375 7.73911 16.3844 7.67348C16.4594 7.57504 16.586 7.61723 16.586 7.65004C16.5719 7.70629 16.4969 7.75786 16.5485 7.86098C16.6422 7.92661 16.661 7.88442 16.7125 7.87036C16.9 7.77661 17.0407 7.37348 17.0407 7.37348C17.0454 7.22348 16.961 7.23286 16.9047 7.27036L16.7594 7.36879C16.6657 7.38286 16.4922 7.44379 16.4032 7.30786C16.3141 7.14848 16.3141 6.91879 16.2485 6.75473C16.2485 6.74536 16.1266 6.49692 16.2391 6.48286C16.2954 6.49223 16.4125 6.52504 16.4313 6.42661C16.4875 6.32817 16.3094 6.05161 16.1829 5.91098C16.075 5.79379 15.925 5.77973 15.7797 5.90161C15.6766 5.99536 15.6907 6.09848 15.6719 6.19692C15.6541 6.26746 15.6534 6.34122 15.6697 6.41212C15.686 6.48302 15.7189 6.54903 15.7657 6.60473C15.8688 6.80161 16.0516 7.05942 15.9907 7.42504C15.9907 7.42504 15.8829 7.59379 15.6954 7.57036C15.6157 7.55629 15.4891 7.52348 15.4235 7.01723C15.3719 6.64223 15.4329 6.10786 15.2735 5.85942C15.2125 5.70473 15.1704 5.55942 15.0297 5.81723C14.9922 5.92036 14.8282 6.07504 14.9454 6.38911C15.0563 6.67212 15.0886 6.97983 15.0391 7.27973C14.9688 7.38286 14.9547 7.41567 14.8657 7.51411C14.7438 7.65473 14.6079 7.61723 14.5047 7.56567C14.411 7.50473 14.336 7.47192 14.2891 7.26098C14.2985 6.93286 14.3172 6.39379 14.2563 6.28129C14.1672 6.10317 14.0219 6.16879 13.961 6.22504C13.6821 6.53481 13.4954 6.91635 13.4219 7.32661C13.3375 7.59848 13.2485 7.51879 13.1875 7.41098C13.0375 7.27036 13.0235 6.15942 12.8407 6.34223Z" fill="white"/>
<path fill-rule="evenodd" clip-rule="evenodd" d="M13.7218 8.16095C13.8577 8.0672 13.7968 8.00158 13.9937 8.19845C14.2478 8.64807 14.3953 9.15002 14.4249 9.66564C14.4155 9.78751 14.4999 9.86251 14.5421 9.83439C14.5608 9.55314 15.2499 9.15939 15.8827 9.10314C15.9765 9.0797 15.9296 8.89689 15.9437 8.80314C15.9062 8.45158 16.1405 8.13283 16.4687 8.10939C16.9187 8.17501 17.0687 8.41408 17.078 8.77501C17.0265 9.47814 16.2952 9.59533 15.8874 9.65158C15.8265 9.67501 15.7983 9.70314 15.8874 9.73595L17.603 9.74533L17.6921 9.7922C17.7015 9.83908 17.664 9.80158 17.5983 9.91408C17.504 10.0799 17.4449 10.2634 17.4249 10.4531C16.914 10.6219 16.3843 10.6875 15.8499 10.7578C15.6624 10.8516 15.5687 10.9781 15.6062 11.1188C15.6718 11.2735 16.0843 11.4328 16.0843 11.4375C16.164 11.4844 16.253 11.6016 16.0608 11.8406C15.2265 11.8031 14.5749 11.4469 14.3499 10.9453C14.2843 10.8938 14.2093 10.9453 14.1624 11.011C13.8343 11.4328 13.5155 11.8078 12.9577 12.0141C12.6296 12.0985 12.2874 11.9625 12.128 11.7469C12.0202 11.6203 12.0249 11.4844 11.9874 11.4563C11.8046 11.536 10.2577 12.1922 10.4546 11.8828C10.8296 11.4844 11.4858 11.1844 12.0577 10.7906C12.0999 10.6547 12.1749 10.2047 12.3999 10.0594C12.414 10.0594 12.3671 10.3219 12.3718 10.4344C12.3718 10.5281 12.3624 10.561 12.3812 10.5375C12.4233 10.5141 13.1171 9.96564 13.178 9.79689C13.2437 9.70314 13.1921 9.45939 13.1921 9.45001C13.0608 9.11251 12.878 9.08439 12.8124 8.91564C12.7515 8.69533 12.7796 8.4422 12.9062 8.3672C13.0187 8.26876 13.1499 8.27814 13.2765 8.39064C13.4171 8.5172 13.539 8.76564 13.5765 8.94845C13.553 9.01876 13.389 8.90158 13.3421 8.93439C13.4323 9.03807 13.4923 9.16455 13.5155 9.30001C13.6093 9.68439 13.5812 9.83439 13.4874 10.0828C13.178 10.7344 12.7843 10.9266 12.4374 11.1703C12.428 11.1703 12.4233 11.3344 12.5499 11.4235C12.5968 11.4703 12.7796 11.4938 12.9905 11.4235C13.4412 11.1732 13.8056 10.7924 14.0358 10.3313C14.0757 9.98034 14.0373 9.62494 13.9233 9.29064C13.7874 8.97658 13.628 8.53126 13.628 8.52189C13.6233 8.32501 13.6374 8.25939 13.7218 8.16095ZM9.23116 6.35158C9.42803 6.44533 9.80303 6.40314 9.78428 6.08439L9.77491 5.93908C9.73741 5.84533 9.62491 5.86876 9.60147 5.96251C9.5921 5.99533 9.61553 6.04689 9.58741 6.06095C9.56866 6.0797 9.50772 6.07033 9.50772 5.98126C9.50772 5.95314 9.48897 5.92501 9.47491 5.90626C9.46553 5.89689 9.45616 5.89689 9.43272 5.89689C9.4046 5.89689 9.4046 5.90158 9.39053 5.92501C9.38585 5.94845 9.37647 5.97189 9.37647 6.00001C9.37647 6.03283 9.35772 6.0422 9.33897 6.04689C9.31085 6.04689 9.31553 6.04689 9.2921 6.03751C9.28272 6.02345 9.26866 6.01876 9.26866 5.99064L9.2546 5.91564C9.24522 5.90158 9.22647 5.8922 9.20772 5.88751C9.09991 5.88751 9.09053 6.01408 9.09991 6.06095C9.09053 6.07033 9.08585 6.29064 9.23116 6.35158Z" fill="white"/>
<path fill-rule="evenodd" clip-rule="evenodd" d="M15.0204 8.7984C15.2173 8.89215 15.6907 8.84059 15.5735 8.5359L15.5641 8.3859C15.5219 8.29215 15.4141 8.31558 15.3907 8.41402C15.3813 8.44215 15.4048 8.49371 15.3719 8.50777C15.3579 8.52652 15.2923 8.51715 15.2969 8.43277C15.2969 8.40465 15.2782 8.37183 15.2641 8.35308C15.2501 8.3484 15.2454 8.34371 15.2173 8.34371C15.1938 8.34371 15.1938 8.35308 15.1798 8.37652C15.1704 8.39996 15.1657 8.4234 15.1657 8.45152C15.161 8.47965 15.1469 8.48902 15.1235 8.4984C15.1001 8.4984 15.1048 8.4984 15.086 8.48433C15.0719 8.47027 15.0579 8.46559 15.0579 8.44215L15.0438 8.36715C15.0344 8.35309 15.0157 8.34371 14.9969 8.33902C14.8891 8.33902 14.8798 8.4609 14.8844 8.50777C14.8798 8.51715 14.8751 8.74215 15.0251 8.7984H15.0204ZM18.3954 7.7859C18.5923 7.87965 18.9626 7.83746 18.9485 7.5234L18.9391 7.3734C18.8969 7.27965 18.7891 7.30309 18.7657 7.39684C18.7563 7.42965 18.7798 7.48121 18.7469 7.49996C18.7329 7.51402 18.6673 7.50465 18.6719 7.41558C18.6719 7.38746 18.6532 7.35934 18.6391 7.34059C18.6251 7.33121 18.6204 7.33121 18.5923 7.33121C18.5688 7.33121 18.5688 7.34059 18.5548 7.36402L18.5407 7.43434C18.536 7.46715 18.5219 7.48121 18.4985 7.48121C18.4751 7.48121 18.4798 7.48121 18.461 7.47183C18.4469 7.45777 18.4329 7.45308 18.4329 7.42965C18.4329 7.40621 18.4282 7.36871 18.4188 7.34996C18.4094 7.3359 18.3907 7.33121 18.3719 7.32652C18.2641 7.32652 18.2548 7.4484 18.2594 7.49527C18.2548 7.50465 18.2501 7.72496 18.4001 7.7859H18.3954ZM20.1438 10.3312C19.8016 10.7203 19.9516 11.3625 20.0313 11.5031C20.1438 11.7281 20.2329 11.8734 20.4532 11.9859C20.6548 12.1312 20.8141 12.0421 20.8985 11.939C21.1001 11.7281 21.1048 11.189 21.1985 11.0859C21.2641 10.889 21.4329 10.9218 21.5126 11.0109C21.5871 11.1167 21.6871 11.2021 21.8032 11.2593C21.9907 11.4234 22.2157 11.4562 22.4407 11.3062C22.5907 11.2171 22.6891 11.1093 22.7782 10.889C22.8719 10.6265 22.8251 9.40777 22.8016 8.6859L22.6048 7.67809C22.6048 7.66871 22.5813 7.19996 22.5579 7.09215C22.5579 7.04527 22.5438 7.03121 22.5907 7.0359C22.6423 7.08277 22.6469 7.08277 22.6844 7.09683C22.7313 7.10621 22.7782 7.01715 22.7454 6.94215L22.2766 6.07027C22.2391 6.03277 22.1876 5.99527 22.1266 6.07965C22.0907 6.11219 22.0621 6.15201 22.0427 6.19646C22.0233 6.24091 22.0135 6.28897 22.0141 6.33746C22.0282 6.54371 22.061 6.75465 22.0751 6.9609L22.2626 8.02027C22.3235 8.77027 22.3376 9.38902 22.3985 10.1437C22.3891 10.4625 22.2907 10.739 22.1969 10.7812C22.1969 10.7812 22.0563 10.8609 21.9626 10.7718C21.8923 10.7437 21.6157 10.3078 21.6157 10.3078C21.4751 10.1812 21.3813 10.214 21.2829 10.3078C21.0016 10.5796 20.8798 11.0765 20.6876 11.4234C20.6407 11.5031 20.5001 11.564 20.3501 11.4187C19.9657 10.889 20.1907 10.139 20.1438 10.3312ZM18.4844 5.93902C18.6626 6.00933 18.7844 6.37027 18.7469 6.5484C18.7094 6.75933 18.6157 6.99371 18.5501 6.96559C18.4751 6.93746 18.5969 6.74996 18.5266 6.55309C18.4891 6.42184 18.2454 6.18746 18.2735 6.12184C18.2266 5.97652 18.3766 5.9109 18.4844 5.93433V5.93902Z" fill="white"/>
<path fill-rule="evenodd" clip-rule="evenodd" d="M20.7156 10.5469C20.7485 10.1156 20.6875 9.85313 20.6781 9.60001C20.6688 9.34688 20.3922 7.41563 20.336 7.22813C20.2656 6.8625 20.6031 7.18126 20.5656 6.96563C20.4485 6.70313 20.1625 6.31407 20.0735 6.08438C20.0172 5.99063 20.0406 5.89688 19.9188 6.06094C19.8138 6.34859 19.7769 6.65664 19.811 6.96094C20.1016 8.475 20.3969 9.73126 20.35 11.1703C20.4906 11.1703 20.6453 10.8563 20.7156 10.5469ZM23.7344 6.54844C23.8985 6.62813 23.9922 7.07813 23.9735 7.20469C23.9406 7.43907 23.8563 7.69219 23.7953 7.65938C23.725 7.63125 23.8094 7.3125 23.7766 7.21407C23.7391 7.07344 23.5188 6.82032 23.5422 6.74532C23.4953 6.58594 23.636 6.52032 23.7344 6.54844ZM11.7485 9.73126C11.9031 9.79219 11.9969 10.1203 11.9828 10.2141C11.9453 10.3875 11.8656 10.575 11.8047 10.5469C11.7438 10.5281 11.8188 10.2938 11.7906 10.2188C11.7766 10.0453 11.561 9.95157 11.5656 9.87657C11.5281 9.73594 11.6594 9.71251 11.7531 9.73126H11.7485Z" fill="white"/>
<path fill-rule="evenodd" clip-rule="evenodd" d="M15.4797 10.2282C15.6766 10.2375 15.775 10.3969 15.5922 10.4625C15.4047 10.5235 15.2313 10.575 15.2266 10.8375C15.2969 11.2125 15.1329 11.0813 15.0391 11.0344C14.9266 10.95 14.6079 10.7532 14.561 10.3313C14.5563 10.2329 14.636 10.1438 14.7625 10.1438C14.95 10.1954 15.2313 10.2 15.4797 10.2282Z" fill="#165D31"/>
<path fill-rule="evenodd" clip-rule="evenodd" d="M7.62823 5.83131C7.85323 5.89693 7.86729 6.23443 7.85323 6.33287C7.82042 6.511 7.74073 6.70318 7.68448 6.67975C7.61885 6.65631 7.68448 6.41256 7.65167 6.33756C7.61885 6.23443 7.42667 6.03756 7.44542 5.98131C7.40323 5.86412 7.53917 5.80787 7.62823 5.83131ZM12.1235 7.40631C11.9454 7.50006 11.8798 7.78131 11.9876 7.95006C12.0907 8.09068 12.2501 8.03912 12.2689 8.03912C12.4423 8.05787 12.5454 7.71568 12.5454 7.71568C12.5454 7.71568 12.5501 7.62193 12.3485 7.80475C12.2595 7.81881 12.2548 7.786 12.2314 7.73912C12.2099 7.64988 12.2181 7.55607 12.2548 7.47193C12.2876 7.38756 12.222 7.35006 12.1235 7.40631ZM13.436 5.70006C13.3423 5.761 13.1689 5.94381 13.1642 6.15006C13.1595 6.26725 13.136 6.26725 13.211 6.33756C13.272 6.42193 13.3235 6.41725 13.436 6.35631C13.4641 6.33866 13.4881 6.31538 13.5067 6.28795C13.5253 6.26051 13.5379 6.22952 13.5439 6.19693C13.572 6.06568 13.4032 6.26256 13.3845 6.11256C13.347 5.97193 13.4548 5.91568 13.5579 5.78443C13.5579 5.69068 13.5579 5.62975 13.4314 5.70006H13.436ZM14.486 5.88756C14.4447 6.05825 14.4196 6.23246 14.411 6.40787C14.3829 6.53912 14.5517 6.59537 14.622 6.42662C14.7345 6.12193 14.7345 5.99068 14.7439 5.86412C14.711 5.66256 14.5751 5.66725 14.486 5.88756ZM21.1423 9.27662C21.161 9.25318 22.0798 8.60162 22.0798 8.60162C22.1735 8.56881 22.1501 8.93912 22.1079 8.93443C21.823 9.20903 21.4953 9.43543 21.1376 9.60475C21.0907 9.63756 21.0485 9.35631 21.1376 9.27662H21.1423ZM21.972 9.26725C22.136 9.34693 22.2017 9.82037 22.1829 9.94693C22.1829 10.2001 22.0282 10.3969 21.9626 10.3688C21.897 10.336 21.972 10.0547 21.9392 9.95631C21.9017 9.81568 21.7657 9.55787 21.7892 9.48287C21.7423 9.3235 21.8735 9.23912 21.9767 9.26725H21.972ZM16.5345 11.3016C16.6105 11.2129 16.6989 11.1355 16.797 11.0719C16.8907 11.0251 16.9751 11.1094 16.9704 11.1047C16.9845 11.1985 16.9142 11.2782 16.9376 11.4001C16.9564 11.4469 16.9704 11.5032 17.0595 11.4844C17.2048 11.3672 17.3407 11.3579 17.4814 11.3532C17.5985 11.3579 17.6032 11.5501 17.5282 11.5501C17.261 11.6063 17.1439 11.6813 16.9517 11.7516C16.8579 11.8079 16.7829 11.7376 16.7829 11.7329C16.7829 11.7282 16.7314 11.6813 16.7642 11.5594C16.7735 11.4657 16.736 11.4094 16.6517 11.4188C16.5954 11.4563 16.5392 11.4751 16.511 11.4047C16.497 11.3579 16.4923 11.3297 16.5345 11.3016ZM22.9376 11.5547C22.9751 11.6016 23.0032 11.6485 22.9329 11.7329L22.7595 11.8829C22.7314 11.9297 22.7126 12.0141 22.8064 12.0376C22.9751 12.0844 23.3689 11.8266 23.3689 11.8219C23.4345 11.7751 23.4157 11.6813 23.4064 11.6813C23.3689 11.6391 23.2845 11.6672 23.2282 11.6579C23.2001 11.6579 23.111 11.6485 23.1532 11.5641C23.1847 11.5227 23.21 11.4769 23.2282 11.4282C23.2517 11.3719 23.2282 11.3344 23.1345 11.3016C23.036 11.2829 22.9939 11.2922 22.886 11.3016C22.8298 11.311 22.811 11.3391 22.797 11.4094C22.8017 11.5172 22.8673 11.5126 22.9376 11.5501V11.5547Z" fill="white"/>
<path fill-rule="evenodd" clip-rule="evenodd" d="M16.5672 8.89216C16.5437 8.93903 16.4594 8.93903 16.3797 8.89216C16.3 8.84528 16.2531 8.77028 16.2812 8.7281C16.3094 8.68591 16.389 8.68591 16.4687 8.7281C16.5484 8.77028 16.5906 8.84997 16.5672 8.89216ZM12.3953 6.37966C12.3484 6.39372 12.2828 6.35154 12.2547 6.28591C12.2265 6.22029 12.2406 6.16403 12.2875 6.14997C12.3344 6.13591 12.3953 6.18278 12.4281 6.24372C12.4609 6.30466 12.4422 6.37028 12.3906 6.38435L12.3953 6.37966ZM20.65 17.5781C21.0906 17.5968 21.5031 17.5781 21.939 17.6015C22.0187 17.6718 21.9625 17.8359 21.9109 17.8265L21.5453 17.8125C21.5406 17.6718 21.1844 17.6953 21.1937 17.8172C21.0015 17.8406 20.8281 17.8125 20.6312 17.8031C20.575 17.7328 20.5844 17.6062 20.65 17.5781Z" fill="#165D31"/>
</g>
</g>
<defs>
<clipPath id="clip0_1_15021">
<rect width="32" height="24" fill="white"/>
</clipPath>
</defs>
</svg>
