<svg width="45" height="45" viewBox="0 0 45 45" fill="none" xmlns="http://www.w3.org/2000/svg">
<rect width="45" height="45" rx="22.5" fill="#F2F2F2"/>
<path fill-rule="evenodd" clip-rule="evenodd" d="M22.5 18.75C20.4289 18.75 18.75 20.4289 18.75 22.5C18.75 24.5711 20.4289 26.25 22.5 26.25C24.5711 26.25 26.25 24.5711 26.25 22.5C26.25 20.4289 24.5711 18.75 22.5 18.75ZM20.25 22.5C20.25 21.2574 21.2574 20.25 22.5 20.25C23.7426 20.25 24.75 21.2574 24.75 22.5C24.75 23.7426 23.7426 24.75 22.5 24.75C21.2574 24.75 20.25 23.7426 20.25 22.5Z" fill="#020659"/>
<path fill-rule="evenodd" clip-rule="evenodd" d="M22.4747 11.75C22.0303 11.75 21.6592 11.75 21.3546 11.7708C21.0375 11.7924 20.738 11.839 20.4476 11.9593C19.7738 12.2384 19.2384 12.7738 18.9593 13.4476C18.814 13.7984 18.7747 14.1681 18.7596 14.57C18.7476 14.893 18.5845 15.1625 18.344 15.3014C18.1034 15.4403 17.7884 15.4467 17.5027 15.2957C17.1471 15.1078 16.8073 14.957 16.4308 14.9074C15.7077 14.8122 14.9764 15.0082 14.3978 15.4522C14.1484 15.6435 13.9583 15.8796 13.781 16.1434C13.6107 16.3968 13.4252 16.7181 13.2029 17.1031L13.1777 17.1468C12.9555 17.5317 12.7699 17.853 12.6356 18.1272C12.4958 18.4127 12.3864 18.6954 12.3454 19.007C12.2502 19.7301 12.4462 20.4614 12.8902 21.0401C13.1213 21.3412 13.4217 21.5602 13.7622 21.7741C14.0359 21.9461 14.1879 22.2221 14.1879 22.5C14.1878 22.7778 14.0359 23.0538 13.7622 23.2258C13.4217 23.4397 13.1212 23.6587 12.8901 23.9599C12.4461 24.5385 12.2501 25.2698 12.3453 25.9929C12.3863 26.3045 12.4957 26.5873 12.6355 26.8727C12.7698 27.1469 12.9553 27.4682 13.1776 27.8531L13.2028 27.8969C13.4251 28.2818 13.6106 28.6031 13.7809 28.8565C13.9582 29.1203 14.1483 29.3564 14.3977 29.5477C14.9763 29.9917 15.7076 30.1877 16.4307 30.0925C16.8072 30.0429 17.147 29.8922 17.5025 29.7043C17.7883 29.5532 18.1033 29.5596 18.3439 29.6986C18.5845 29.8375 18.7476 30.107 18.7596 30.4301C18.7747 30.8319 18.814 31.2016 18.9593 31.5524C19.2384 32.2262 19.7738 32.7616 20.4476 33.0407C20.738 33.161 21.0375 33.2076 21.3546 33.2292C21.6592 33.25 22.0303 33.25 22.4747 33.25H22.5252C22.9697 33.25 23.3407 33.25 23.6454 33.2292C23.9625 33.2076 24.262 33.161 24.5524 33.0407C25.2262 32.7616 25.7616 32.2262 26.0407 31.5524C26.186 31.2016 26.2253 30.8319 26.2403 30.43C26.2524 30.107 26.4154 29.8375 26.656 29.6985C26.8966 29.5596 27.2116 29.5532 27.4974 29.7042C27.8529 29.8921 28.1927 30.0429 28.5692 30.0924C29.2923 30.1876 30.0236 29.9917 30.6022 29.5477C30.8516 29.3563 31.0417 29.1203 31.219 28.8565C31.3893 28.6031 31.5748 28.2818 31.797 27.8969L31.8223 27.8531C32.0445 27.4682 32.2301 27.1468 32.3644 26.8726C32.5042 26.5872 32.6135 26.3045 32.6546 25.9929C32.7498 25.2697 32.5538 24.5384 32.1098 23.9598C31.8787 23.6586 31.5782 23.4397 31.2378 23.2258C30.964 23.0538 30.8121 22.7778 30.8121 22.4999C30.8121 22.2221 30.964 21.9462 31.2377 21.7742C31.5783 21.5603 31.8788 21.3414 32.1099 21.0401C32.5539 20.4615 32.7499 19.7302 32.6547 19.0071C32.6136 18.6955 32.5043 18.4127 32.3645 18.1273C32.2302 17.8531 32.0447 17.5318 31.8224 17.147L31.7972 17.1032C31.5749 16.7183 31.3894 16.3969 31.2191 16.1435C31.0418 15.8797 30.8517 15.6436 30.6023 15.4523C30.0237 15.0083 29.2924 14.8123 28.5692 14.9075C28.1928 14.9571 27.853 15.1078 27.4975 15.2957C27.2117 15.4468 26.8967 15.4404 26.6561 15.3014C26.4155 15.1625 26.2524 14.893 26.2403 14.5699C26.2253 14.1681 26.186 13.7984 26.0407 13.4476C25.7616 12.7738 25.2262 12.2384 24.5524 11.9593C24.262 11.839 23.9625 11.7924 23.6454 11.7708C23.3407 11.75 22.9697 11.75 22.5252 11.75H22.4747ZM21.0216 13.3452C21.0988 13.3132 21.216 13.2837 21.4567 13.2673C21.7042 13.2504 22.0238 13.25 22.5 13.25C22.9762 13.25 23.2958 13.2504 23.5432 13.2673C23.784 13.2837 23.9012 13.3132 23.9783 13.3452C24.2846 13.472 24.528 13.7154 24.6548 14.0216C24.6949 14.1183 24.728 14.2689 24.7414 14.626C24.771 15.4183 25.18 16.1813 25.9061 16.6005C26.6321 17.0197 27.4974 16.9924 28.1984 16.6219C28.5143 16.4549 28.6614 16.4083 28.765 16.3947C29.0937 16.3514 29.4261 16.4405 29.6891 16.6423C29.7554 16.6931 29.8395 16.7799 29.9741 16.9802C30.1125 17.186 30.2726 17.4626 30.5107 17.875C30.7488 18.2874 30.9083 18.5644 31.0174 18.7871C31.1235 19.0038 31.1566 19.1201 31.1675 19.2029C31.2108 19.5316 31.1217 19.864 30.9199 20.127C30.8562 20.21 30.7424 20.314 30.4397 20.5041C29.7684 20.926 29.3122 21.6616 29.3121 22.4999C29.3121 23.3383 29.7683 24.074 30.4397 24.4959C30.7423 24.686 30.8561 24.79 30.9198 24.873C31.1216 25.136 31.2107 25.4684 31.1674 25.7971C31.1565 25.8799 31.1234 25.9961 31.0173 26.2128C30.9082 26.4355 30.7487 26.7125 30.5106 27.1249C30.2725 27.5373 30.1124 27.8139 29.974 28.0198C29.8394 28.22 29.7553 28.3068 29.689 28.3576C29.426 28.5595 29.0936 28.6485 28.7649 28.6053C28.6613 28.5916 28.5142 28.545 28.1983 28.3781C27.4973 28.0075 26.632 27.9803 25.9059 28.3995C25.18 28.8187 24.771 29.5816 24.7414 30.374C24.728 30.7311 24.6949 30.8817 24.6548 30.9784C24.528 31.2846 24.2846 31.528 23.9783 31.6549C23.9012 31.6868 23.784 31.7163 23.5432 31.7327C23.2958 31.7496 22.9762 31.75 22.5 31.75C22.0238 31.75 21.7042 31.7496 21.4567 31.7327C21.216 31.7163 21.0988 31.6868 21.0216 31.6549C20.7154 31.528 20.472 31.2846 20.3451 30.9784C20.3051 30.8817 20.2719 30.7311 20.2586 30.374C20.229 29.5817 19.82 28.8187 19.0939 28.3995C18.3678 27.9803 17.5026 28.0076 16.8016 28.3781C16.4856 28.5451 16.3386 28.5917 16.2349 28.6053C15.9063 28.6486 15.5738 28.5595 15.3108 28.3577C15.2446 28.3069 15.1604 28.2201 15.0259 28.0198C14.8875 27.814 14.7274 27.5374 14.4893 27.125C14.2512 26.7126 14.0917 26.4356 13.9826 26.2129C13.8765 25.9962 13.8434 25.8799 13.8325 25.7971C13.7892 25.4684 13.8783 25.136 14.0801 24.873C14.1438 24.7901 14.2576 24.686 14.5602 24.4959C15.2316 24.0741 15.6878 23.3384 15.6879 22.5001C15.6879 21.6616 15.2317 20.9259 14.5602 20.504C14.2577 20.3139 14.1438 20.2099 14.0802 20.1269C13.8784 19.8639 13.7893 19.5315 13.8326 19.2028C13.8435 19.12 13.8766 19.0038 13.9827 18.7871C14.0918 18.5643 14.2513 18.2873 14.4894 17.8749C14.7275 17.4625 14.8876 17.186 15.026 16.9801C15.1605 16.7798 15.2447 16.6931 15.3109 16.6422C15.5739 16.4404 15.9064 16.3513 16.235 16.3946C16.3387 16.4083 16.4858 16.4548 16.8017 16.6218C17.5027 16.9924 18.3679 17.0196 19.0939 16.6005C19.82 16.1813 20.229 15.4184 20.2586 14.626C20.2719 14.2689 20.3051 14.1183 20.3451 14.0216C20.472 13.7154 20.7154 13.472 21.0216 13.3452Z" fill="#020659"/>
</svg>
