<svg width="45" height="45" viewBox="0 0 45 45" fill="none" xmlns="http://www.w3.org/2000/svg">
<rect width="45" height="45" rx="22.5" fill="#F2F2F2"/>
<path fill-rule="evenodd" clip-rule="evenodd" d="M25.624 15.3845C25.6368 15.3959 25.6497 15.4074 25.6626 15.4188L29.6765 18.9867C30.4254 19.6524 31.0463 20.2042 31.4726 20.7052C31.9206 21.2317 32.2396 21.7985 32.2396 22.5C32.2396 23.2014 31.9206 23.7683 31.4726 24.2948C31.0463 24.7957 30.4254 25.3476 29.6765 26.0132L25.6626 29.5811C25.6497 29.5926 25.6368 29.604 25.624 29.6155C25.2996 29.9039 24.9968 30.1732 24.7352 30.3459C24.4783 30.5155 24.0112 30.7618 23.4879 30.5268C22.9647 30.2919 22.8385 29.7791 22.7946 29.4744C22.7499 29.1641 22.7499 28.759 22.75 28.3248C22.75 28.3076 22.75 28.2904 22.75 28.2731V26.7046C21.2985 26.8046 19.8276 27.1901 18.541 27.817C17.0281 28.5542 15.8198 29.5996 15.164 30.8486C15.0037 31.1541 14.6555 31.3108 14.3205 31.2282C13.9854 31.1456 13.75 30.845 13.75 30.5C13.75 25.779 15.1314 22.705 17.1065 20.8152C18.8281 19.168 20.9264 18.492 22.75 18.3506V16.7268C22.75 16.7095 22.75 16.6923 22.75 16.6751C22.7499 16.241 22.7499 15.8358 22.7946 15.5255C22.8385 15.2209 22.9647 14.7081 23.4879 14.4731C24.0112 14.2381 24.4783 14.4845 24.7352 14.6541C24.9968 14.8268 25.2996 15.096 25.624 15.3845ZM24.2531 16.1769C24.3661 16.2738 24.5011 16.3933 24.6661 16.54L28.6384 20.0709C29.4395 20.783 29.98 21.2658 30.3302 21.6773C30.6665 22.0725 30.7396 22.3033 30.7396 22.5C30.7396 22.6967 30.6665 22.9275 30.3302 23.3227C29.98 23.7342 29.4395 24.217 28.6384 24.929L24.6661 28.46C24.5011 28.6066 24.3661 28.7261 24.2531 28.823C24.2504 28.6741 24.25 28.4938 24.25 28.2731V25.9285C24.25 25.5143 23.9142 25.1785 23.5 25.1785C21.5874 25.1785 19.5999 25.6325 17.884 26.4686C16.9652 26.9163 16.1098 27.481 15.3839 28.1568C15.7527 25.1098 16.8424 23.1439 18.1435 21.899C19.7635 20.3489 21.8104 19.8214 23.5 19.8214C23.9142 19.8214 24.25 19.4856 24.25 19.0714V16.7268C24.25 16.5061 24.2504 16.3258 24.2531 16.1769Z" fill="#020659"/>
</svg>
