<svg width="45" height="45" viewBox="0 0 45 45" fill="none" xmlns="http://www.w3.org/2000/svg">
<path d="M22.75 22C22.75 21.5858 22.4142 21.25 22 21.25C21.5858 21.25 21.25 21.5858 21.25 22V24C21.25 24.4142 21.5858 24.75 22 24.75C22.4142 24.75 22.75 24.4142 22.75 24V22Z" fill="#CA0000"/>
<path fill-rule="evenodd" clip-rule="evenodd" d="M23.7247 13.0271L26.1585 13.4327C27.3143 13.6253 28.2506 13.7814 28.9831 13.9994C29.7459 14.2265 30.3761 14.5447 30.8613 15.1175C31.3465 15.6902 31.5568 16.3642 31.6554 17.154C31.75 17.9123 31.75 18.8616 31.75 20.0333V25.9667C31.75 27.1384 31.75 28.0877 31.6554 28.846C31.5568 29.6358 31.3465 30.3097 30.8613 30.8825C30.3761 31.4553 29.7459 31.7734 28.9831 32.0005C28.2506 32.2186 27.3143 32.3746 26.1586 32.5672L23.7247 32.9729C22.6915 33.1451 21.8373 33.2875 21.155 33.304C20.4394 33.3213 19.776 33.2063 19.2225 32.7374C18.7552 32.3416 18.5238 31.827 18.4026 31.25H17.9463C16.8135 31.25 15.8877 31.25 15.1569 31.1518C14.3929 31.0491 13.7306 30.8268 13.2019 30.2981C12.6732 29.7694 12.4509 29.1071 12.3482 28.3431C12.25 27.6123 12.25 26.6865 12.25 25.5537V20.4463C12.25 19.3135 12.25 18.3877 12.3482 17.6569C12.4509 16.8929 12.6732 16.2306 13.2019 15.7019C13.7306 15.1732 14.3929 14.9509 15.1569 14.8482C15.8877 14.7499 16.8135 14.75 17.9463 14.75L18.4026 14.75C18.5238 14.1729 18.7552 13.6584 19.2225 13.2626C19.776 12.7937 20.4394 12.6787 21.155 12.696C21.8373 12.7125 22.6916 12.8549 23.7247 13.0271ZM18.25 28.3351C18.25 28.8511 18.25 29.3231 18.2614 29.75H18C16.8003 29.75 15.976 29.7484 15.3568 29.6652C14.7591 29.5848 14.4661 29.441 14.2626 29.2374C14.059 29.0339 13.9152 28.7409 13.8348 28.1432C13.7516 27.524 13.75 26.6997 13.75 25.5V20.5C13.75 19.3003 13.7516 18.4759 13.8348 17.8567C13.9152 17.2591 14.059 16.9661 14.2626 16.7626C14.4661 16.559 14.7591 16.4152 15.3568 16.3348C15.976 16.2516 16.8003 16.25 18 16.25H18.2614C18.25 16.6769 18.25 17.1489 18.25 17.6649V28.3351ZM21.1188 14.1955C20.5765 14.1824 20.3458 14.2769 20.192 14.4071C20.0383 14.5374 19.9072 14.7494 19.831 15.2865C19.7518 15.8443 19.75 16.603 19.75 17.7218V28.2781C19.75 29.397 19.7518 30.1557 19.831 30.7135C19.9072 31.2506 20.0383 31.4626 20.192 31.5928C20.3458 31.7231 20.5765 31.8175 21.1188 31.8044C21.682 31.7908 22.4307 31.6679 23.5343 31.4839L25.8631 31.0958C27.0793 30.8931 27.9228 30.7511 28.5551 30.5629C29.1672 30.3806 29.4911 30.1794 29.7168 29.9129C29.9425 29.6465 30.0878 29.294 30.1669 28.6602C30.2486 28.0056 30.25 27.1502 30.25 25.9172V20.0827C30.25 18.8497 30.2486 17.9944 30.1669 17.3398C30.0878 16.706 29.9425 16.3535 29.7168 16.087C29.4911 15.8206 29.1672 15.6193 28.5551 15.4371C27.9228 15.2488 27.0793 15.1069 25.8631 14.9042L23.5343 14.516C22.4307 14.3321 21.682 14.2091 21.1188 14.1955Z" fill="#CA0000"/>
</svg>
