<svg width="24" height="24" viewBox="0 0 24 24" fill="none" xmlns="http://www.w3.org/2000/svg">
<path d="M12 24.0001C18.6274 24.0001 24 18.6275 24 12.0001C24 5.3727 18.6274 0.00012207 12 0.00012207C5.37258 0.00012207 0 5.3727 0 12.0001C0 18.6275 5.37258 24.0001 12 24.0001Z" fill="#FFFC00"/>
<path d="M18.6076 15.4729C18.2082 15.8481 17.6137 15.9066 17.0394 15.9634C16.6844 15.9983 16.3177 16.0349 16.1174 16.1451C15.9279 16.2498 15.7321 16.5175 15.5431 16.7763C15.2394 17.1931 14.8946 17.665 14.3489 17.8045C14.2269 17.8355 14.1014 17.8508 13.9754 17.8501C13.5884 17.8501 13.2048 17.7196 12.8561 17.6009C12.5439 17.4946 12.2486 17.3939 12.0005 17.3939C11.7524 17.3939 11.4571 17.4946 11.1449 17.6009C10.6842 17.7578 10.1622 17.9384 9.65206 17.8045C9.10587 17.665 8.76106 17.1931 8.45731 16.7763C8.26831 16.5175 8.07256 16.2498 7.88299 16.1451C7.68274 16.0326 7.31599 15.9983 6.96162 15.9634C6.38674 15.9072 5.79218 15.8481 5.39281 15.4729C5.33667 15.4202 5.295 15.354 5.27178 15.2806C5.24857 15.2071 5.24459 15.129 5.26023 15.0536C5.27586 14.9781 5.31059 14.908 5.36108 14.8499C5.41157 14.7917 5.47615 14.7475 5.54862 14.7214C5.55368 14.7214 6.27087 14.4481 6.97512 13.6527C7.41123 13.154 7.74973 12.5777 7.97299 11.9539L6.88118 11.518C6.8263 11.4959 6.77631 11.4631 6.73409 11.4216C6.69186 11.3801 6.65822 11.3308 6.63508 11.2763C6.61194 11.2218 6.59976 11.1633 6.59923 11.1041C6.5987 11.0449 6.60983 10.9862 6.63199 10.9313C6.65415 10.8764 6.68691 10.8265 6.72838 10.7842C6.76986 10.742 6.81925 10.7084 6.87373 10.6852C6.92821 10.6621 6.98671 10.6499 7.0459 10.6494C7.10508 10.6488 7.1638 10.66 7.21868 10.6821L8.22274 11.0843C8.34449 10.4975 8.40388 9.8994 8.39993 9.30007C8.39993 8.34529 8.77921 7.42962 9.45435 6.75449C10.1295 6.07936 11.0452 5.70007 11.9999 5.70007C12.9547 5.70007 13.8704 6.07936 14.5455 6.75449C15.2206 7.42962 15.5999 8.34529 15.5999 9.30007C15.5961 9.89976 15.6566 10.4981 15.7805 11.0849L16.7812 10.6821C16.8361 10.66 16.8948 10.6488 16.954 10.6494C17.0132 10.6499 17.0717 10.6621 17.1261 10.6852C17.1806 10.7084 17.23 10.742 17.2715 10.7842C17.313 10.8265 17.3457 10.8764 17.3679 10.9313C17.39 10.9862 17.4012 11.0449 17.4006 11.1041C17.4001 11.1633 17.3879 11.2218 17.3648 11.2763C17.3416 11.3308 17.308 11.3801 17.2658 11.4216C17.2235 11.4631 17.1736 11.4959 17.1187 11.518L16.0331 11.9523C16.8251 14.1094 18.4316 14.7136 18.4518 14.7214C18.5243 14.7475 18.5888 14.7917 18.6393 14.8499C18.6898 14.908 18.7246 14.9781 18.7402 15.0536C18.7558 15.129 18.7519 15.2071 18.7286 15.2806C18.7054 15.354 18.6638 15.4202 18.6076 15.4729Z" fill="white"/>
</svg>
