<svg width="25" height="24" viewBox="0 0 25 24" fill="none" xmlns="http://www.w3.org/2000/svg">
<path fill-rule="evenodd" clip-rule="evenodd" d="M15.7635 3.18481L16.0417 3.53617C16.1819 3.71326 16.2609 3.81221 16.3254 3.88167C16.3601 3.91906 16.3784 3.93421 16.3851 3.93913C16.3927 3.94165 16.4132 3.94724 16.4567 3.95359C16.5458 3.96659 16.6662 3.97469 16.8865 3.98844L17.3246 4.01579C18.0073 4.05835 18.6052 4.09562 19.0601 4.19474C19.5419 4.29971 20.0661 4.51585 20.3444 5.07513C20.6193 5.6276 20.4852 6.1772 20.29 6.63138C20.1035 7.06534 19.7848 7.58314 19.4176 8.17968L19.3877 8.22823L19.1844 8.55845C19.0668 8.74956 19.0016 8.85659 18.9586 8.94062C18.9395 8.97803 18.9308 8.99972 18.9267 9.01134C18.9232 9.02126 18.9229 9.02439 18.9229 9.02456C18.9229 9.02477 18.9222 9.02846 18.9227 9.0402C18.9234 9.05373 18.9257 9.07839 18.9334 9.12128C18.9507 9.2169 18.9828 9.34171 19.0403 9.56184L19.14 9.94299L19.1543 9.99757C19.3346 10.6875 19.4904 11.2831 19.5443 11.7554C19.6 12.2422 19.5761 12.8172 19.1452 13.2656C18.7051 13.7236 18.1275 13.7534 17.6433 13.6957C17.1819 13.6407 16.6024 13.4801 15.9404 13.2965L15.5154 13.1787C15.3018 13.1194 15.1845 13.0875 15.0957 13.0706C15.0588 13.0636 15.0383 13.0616 15.0287 13.0611C15.0198 13.0645 15.0009 13.0729 14.968 13.0911C14.8889 13.1349 14.7874 13.2019 14.6029 13.3249L14.2358 13.5697C13.6641 13.951 13.1637 14.2848 12.7426 14.4812C12.3007 14.6873 11.7425 14.8396 11.1813 14.5419C10.8231 14.3518 10.6126 14.0565 10.482 13.741C8.20903 14.7002 6.35129 16.3478 5.70858 18.241C5.59776 18.5674 5.27868 18.7763 4.93518 18.7472C4.59167 18.7182 4.3122 18.4587 4.25779 18.1183C3.31721 12.2345 5.07415 8.68585 7.5981 6.75178C7.77326 6.35595 8.10512 6.09139 8.43376 5.89784C8.83503 5.66151 9.39138 5.43925 10.0267 5.18544C10.0449 5.17819 10.0631 5.17091 10.0814 5.16361L10.4344 5.02255C10.6393 4.94065 10.7512 4.8953 10.8318 4.8551C10.8714 4.83535 10.8892 4.82358 10.8956 4.81883C10.9004 4.81213 10.9131 4.79201 10.9346 4.74533C10.9742 4.65914 11.0184 4.54042 11.0964 4.32837L11.2312 3.96185C11.2379 3.94373 11.2445 3.92567 11.2511 3.90767C11.4945 3.24573 11.7057 2.67159 11.9304 2.25796C12.162 1.83174 12.5173 1.36806 13.1428 1.2678C13.7685 1.16752 14.2509 1.49712 14.6039 1.82978C14.9464 2.15254 15.326 2.63205 15.7635 3.18481ZM7.90982 8.4589C6.48667 9.82971 5.39016 12.049 5.50808 15.566C6.6756 14.0988 8.38232 12.9507 10.2065 12.234C10.1872 11.9865 10.1709 11.7206 10.1536 11.4395L10.126 10.99C10.1121 10.7629 10.1036 10.6342 10.0903 10.538C10.0842 10.4948 10.0788 10.4707 10.0752 10.4576C10.072 10.4463 10.0702 10.4431 10.0701 10.4429C10.07 10.4426 10.0686 10.4396 10.0625 10.4316C10.055 10.4219 10.04 10.4041 10.0102 10.3745C9.94318 10.3081 9.84787 10.2269 9.67654 10.0821L9.33696 9.79503C8.80217 9.34309 8.33791 8.95074 8.02542 8.5967C7.98628 8.55235 7.94754 8.50643 7.90982 8.4589ZM11.7828 12.8376C11.7998 12.7239 11.7907 12.6045 11.7514 12.4881C11.7448 12.4686 11.7375 12.4495 11.7295 12.4309C11.6998 12.1345 11.6764 11.7634 11.6473 11.2913L11.6232 10.898C11.6215 10.8701 11.6198 10.8421 11.6182 10.8139C11.598 10.4691 11.5765 10.1032 11.4131 9.77466C11.2484 9.44365 10.9685 9.2085 10.7081 8.98972C10.6869 8.97187 10.6657 8.95413 10.6448 8.93645L10.3488 8.68625C9.75772 8.18665 9.38061 7.86535 9.15003 7.6041C9.04018 7.47965 8.99635 7.40399 8.97978 7.3653C8.97779 7.36065 8.97632 7.35683 8.97525 7.3538C8.97575 7.3532 8.97627 7.35258 8.97683 7.35192C8.99912 7.32578 9.0575 7.27131 9.19498 7.19033C9.48505 7.0195 9.93158 6.83878 10.6379 6.55652L10.9909 6.41547C11.0162 6.40537 11.0418 6.39524 11.0676 6.38502C11.3756 6.26318 11.7186 6.12745 11.977 5.85856C12.2321 5.59315 12.3588 5.24527 12.475 4.9261C12.4848 4.89922 12.4945 4.87254 12.5042 4.84614L12.639 4.47962C12.9082 3.7477 13.0825 3.27939 13.2484 2.97408C13.3097 2.86136 13.3547 2.79949 13.383 2.76693C13.4201 2.78902 13.482 2.83366 13.5751 2.92141C13.8279 3.15957 14.1394 3.54994 14.6233 4.16118L14.8656 4.46726C14.8831 4.48931 14.9007 4.51163 14.9183 4.53412C15.1282 4.80097 15.3572 5.09202 15.6824 5.26454C16.0119 5.43931 16.3802 5.46106 16.7107 5.48057C16.7384 5.48221 16.7659 5.48383 16.7931 5.48553L17.1724 5.50921C17.9315 5.5566 18.412 5.58872 18.7408 5.66036C18.8966 5.69431 18.9689 5.7278 18.9982 5.74559C18.9988 5.74596 18.9994 5.74632 18.9999 5.74667C18.9998 5.74987 18.9996 5.75391 18.9992 5.75888C18.9955 5.8009 18.9774 5.88654 18.9118 6.03916C18.7742 6.35949 18.516 6.78267 18.1102 7.44202L17.907 7.77224C17.8926 7.79557 17.8781 7.81902 17.8635 7.84262C17.6843 8.13187 17.4918 8.44259 17.4385 8.80839C17.3857 9.17151 17.4794 9.52581 17.5676 9.85973C17.5749 9.88703 17.582 9.91419 17.5891 9.94121L17.6888 10.3224C17.8875 11.0826 18.0137 11.5729 18.054 11.9256C18.0725 12.0869 18.0668 12.1729 18.0596 12.2144C18.0213 12.2193 17.9484 12.2215 17.8207 12.2062C17.4874 12.1665 17.0203 12.0393 16.284 11.8352L15.9161 11.7332C15.8894 11.7258 15.8624 11.7182 15.8352 11.7105C15.5169 11.6211 15.1587 11.5204 14.7912 11.5793C14.4239 11.6382 14.115 11.8457 13.8405 12.0302C13.817 12.046 13.7937 12.0616 13.7707 12.077L13.453 12.2888C12.8171 12.7129 12.413 12.9798 12.1086 13.1217C11.9924 13.1759 11.9225 13.1967 11.8846 13.2041C11.8648 13.1668 11.8327 13.0869 11.8001 12.9286C11.7941 12.8994 11.7883 12.8691 11.7828 12.8376ZM11.8468 13.2068C11.8473 13.2061 11.8523 13.2058 11.8604 13.2076C11.8504 13.2083 11.8464 13.2074 11.8468 13.2068ZM11.8973 13.2252C11.9025 13.2293 11.9047 13.2324 11.9046 13.2329C11.9044 13.2335 11.9018 13.2314 11.8973 13.2252ZM18.0496 12.2477C18.0493 12.2472 18.0504 12.2436 18.0541 12.2381C18.0517 12.2454 18.0499 12.2482 18.0496 12.2477ZM18.0833 12.2102C18.0904 12.2059 18.0953 12.2047 18.0959 12.2052C18.0966 12.2057 18.093 12.2078 18.0833 12.2102ZM13.4187 2.73408C13.4187 2.73466 13.4155 2.73732 13.4092 2.74036C13.4155 2.73503 13.4187 2.73351 13.4187 2.73408ZM13.3499 2.74983C13.3429 2.74892 13.3391 2.74737 13.3389 2.74682C13.3387 2.74627 13.3422 2.74672 13.3499 2.74983Z" fill="white"/>
<path d="M11.0308 16C11.0308 16 11.6635 17.3908 12.4435 17.8692C13.2235 18.3475 14.75 18.2808 14.75 18.2808C14.75 18.2808 13.3592 18.9135 12.8808 19.6935C12.4025 20.4735 12.4692 22 12.4692 22C12.4692 22 11.8365 20.6092 11.0565 20.1308C10.2765 19.6525 8.75 19.7192 8.75 19.7192C8.75 19.7192 10.1408 19.0865 10.6192 18.3065C11.0975 17.5265 11.0308 16 11.0308 16Z" stroke="white" stroke-linejoin="round"/>
<path d="M19.2295 15C19.2295 15 18.8077 15.9272 18.2877 16.2461C17.7677 16.565 16.75 16.5205 16.75 16.5205C16.75 16.5205 17.6772 16.9423 17.9961 17.4623C18.315 17.9823 18.2705 19 18.2705 19C18.2705 19 18.6923 18.0728 19.2123 17.7539C19.7323 17.435 20.75 17.4795 20.75 17.4795C20.75 17.4795 19.8228 17.0577 19.5039 16.5377C19.185 16.0177 19.2295 15 19.2295 15Z" stroke="white" stroke-linejoin="round"/>
</svg>
