<svg width="45" height="45" viewBox="0 0 45 45" fill="none" xmlns="http://www.w3.org/2000/svg">
<rect width="45" height="45" rx="22.5" fill="#F2F2F2"/>
<path fill-rule="evenodd" clip-rule="evenodd" d="M22.5 13.25C17.3914 13.25 13.25 17.3914 13.25 22.5C13.25 27.3562 16.9922 31.3383 21.7501 31.72C21.7524 29.4634 21.7837 28.087 22.1849 26.9403C22.9639 24.7142 24.7142 22.9639 26.9403 22.1849C28.087 21.7837 29.4634 21.7524 31.72 21.7501C31.3383 16.9922 27.3562 13.25 22.5 13.25ZM31.5404 23.251C29.3516 23.2573 28.2912 23.3014 27.4358 23.6007C25.6405 24.2289 24.2289 25.6405 23.6007 27.4358C23.3014 28.2912 23.2573 29.3516 23.251 31.5404C23.4011 31.4552 23.545 31.345 23.6779 31.212L31.212 23.6779C31.345 23.545 31.4552 23.4011 31.5404 23.251ZM11.75 22.5C11.75 16.5629 16.5629 11.75 22.5 11.75C28.4371 11.75 33.25 16.5629 33.25 22.5C33.25 23.3843 32.8423 24.169 32.2727 24.7386L24.7386 32.2727C24.169 32.8423 23.3843 33.25 22.5 33.25C16.5629 33.25 11.75 28.4371 11.75 22.5Z" fill="#020659"/>
</svg>
