<svg width="24" height="24" viewBox="0 0 24 24" fill="none" xmlns="http://www.w3.org/2000/svg">
<path d="M21 7.00011V9.00011C21 9.26532 20.8946 9.51968 20.7071 9.70721C20.5196 9.89475 20.2652 10.0001 20 10.0001C18.595 9.99761 17.2154 9.62512 16 8.92011V15.5001C16.0003 16.6547 15.6931 17.7885 15.1099 18.785C14.5267 19.7815 13.6887 20.6047 12.6819 21.1698C11.6751 21.735 10.5359 22.0219 9.38153 22.0008C8.22713 21.9798 7.09918 21.6516 6.11366 21.0501C5.12814 20.4486 4.32062 19.5954 3.77415 18.5784C3.22768 17.5613 2.96199 16.417 3.00439 15.2632C3.04678 14.1094 3.39575 12.9877 4.01539 12.0135C4.63503 11.0393 5.50299 10.2477 6.53 9.72011C6.68368 9.63824 6.85606 9.59793 7.0301 9.60314C7.20414 9.60836 7.37381 9.65892 7.52231 9.74984C7.6708 9.84076 7.79299 9.96887 7.87677 10.1215C7.96056 10.2741 8.00303 10.446 8 10.6201V13.1401C7.98931 13.375 7.88912 13.5968 7.72 13.7601C7.36087 14.1234 7.12215 14.5883 7.03623 15.0919C6.95031 15.5954 7.02135 16.1132 7.23969 16.575C7.45804 17.0368 7.81314 17.4203 8.25684 17.6734C8.70053 17.9266 9.21134 18.0371 9.72 17.9901C10.3588 17.9088 10.9449 17.5943 11.3658 17.1069C11.7867 16.6196 12.0126 15.9939 12 15.3501V3.00011C12 2.73489 12.1054 2.48054 12.2929 2.293C12.4804 2.10546 12.7348 2.00011 13 2.00011H15.11C15.3482 1.99664 15.5799 2.07835 15.7632 2.23052C15.9465 2.38269 16.0695 2.59531 16.11 2.83011C16.2994 3.72304 16.7885 4.52434 17.4961 5.10097C18.2037 5.6776 19.0872 5.99487 20 6.00011C20.2652 6.00011 20.5196 6.10546 20.7071 6.293C20.8946 6.48054 21 6.73489 21 7.00011Z" fill="black"/>
</svg>
