<svg width="22" height="22" viewBox="0 0 22 22" fill="none" xmlns="http://www.w3.org/2000/svg">
<path fill-rule="evenodd" clip-rule="evenodd" d="M0.75 5.5C0.75 2.87665 2.87665 0.75 5.5 0.75C8.12335 0.75 10.25 2.87665 10.25 5.5C10.25 8.12335 8.12335 10.25 5.5 10.25C2.87665 10.25 0.75 8.12335 0.75 5.5Z" fill="#CECECE"/>
<path fill-rule="evenodd" clip-rule="evenodd" d="M11.75 16.5C11.75 13.8766 13.8766 11.75 16.5 11.75C19.1234 11.75 21.25 13.8766 21.25 16.5C21.25 19.1234 19.1234 21.25 16.5 21.25C13.8766 21.25 11.75 19.1234 11.75 16.5Z" fill="#CECECE"/>
<path fill-rule="evenodd" clip-rule="evenodd" d="M21.25 5.5C21.25 2.87665 19.1234 0.75 16.5 0.75C13.8766 0.75 11.75 2.87665 11.75 5.5C11.75 8.12335 13.8766 10.25 16.5 10.25C19.1234 10.25 21.25 8.12335 21.25 5.5Z" fill="#CECECE"/>
<path fill-rule="evenodd" clip-rule="evenodd" d="M10.25 16.5C10.25 13.8766 8.12335 11.75 5.5 11.75C2.87665 11.75 0.75 13.8766 0.75 16.5C0.75 19.1234 2.87665 21.25 5.5 21.25C8.12335 21.25 10.25 19.1234 10.25 16.5Z" fill="#CECECE"/>
</svg>
