<svg width="45" height="45" viewBox="0 0 45 45" fill="none" xmlns="http://www.w3.org/2000/svg">
<rect width="45" height="45" rx="22.5" fill="#F2F2F2"/>
<path d="M29.5 22.5C29.5 23.0523 29.0523 23.5 28.5 23.5C27.9477 23.5 27.5 23.0523 27.5 22.5C27.5 21.9477 27.9477 21.5 28.5 21.5C29.0523 21.5 29.5 21.9477 29.5 22.5Z" fill="#020659"/>
<path fill-rule="evenodd" clip-rule="evenodd" d="M20.4436 13.75H23.5564C25.3942 13.75 26.8498 13.75 27.989 13.9031C29.1614 14.0608 30.1104 14.3929 30.8588 15.1412C31.7831 16.0656 32.0777 17.3036 32.1847 18.9101C32.7619 19.1641 33.1978 19.7013 33.2458 20.3818C33.2501 20.442 33.25 20.5069 33.25 20.567C33.25 20.5725 33.25 20.5779 33.25 20.5833V24.4167C33.25 24.4221 33.25 24.4275 33.25 24.433C33.25 24.4931 33.2501 24.558 33.2458 24.6182C33.1978 25.2987 32.7619 25.8359 32.1847 26.0899C32.0777 27.6964 31.7831 28.9344 30.8588 29.8588C30.1104 30.6071 29.1614 30.9392 27.989 31.0969C26.8498 31.25 25.3942 31.25 23.5564 31.25H20.4436C18.6058 31.25 17.1502 31.25 16.011 31.0969C14.8386 30.9392 13.8896 30.6071 13.1412 29.8588C12.3929 29.1104 12.0608 28.1614 11.9031 26.989C11.75 25.8498 11.75 24.3942 11.75 22.5564V22.4436C11.75 20.6058 11.75 19.1502 11.9031 18.011C12.0608 16.8386 12.3929 15.8896 13.1412 15.1412C13.8896 14.3929 14.8386 14.0608 16.011 13.9031C17.1502 13.75 18.6058 13.75 20.4436 13.75ZM30.6679 26.25H28.7308C26.5856 26.25 24.75 24.6224 24.75 22.5C24.75 20.3776 26.5856 18.75 28.7308 18.75H30.6679C30.5541 17.4085 30.2966 16.7004 29.7981 16.2019C29.3749 15.7787 28.7952 15.525 27.7892 15.3898C26.7615 15.2516 25.4068 15.25 23.5 15.25H20.5C18.5932 15.25 17.2385 15.2516 16.2108 15.3898C15.2048 15.525 14.6251 15.7787 14.2019 16.2019C13.7787 16.6251 13.525 17.2048 13.3898 18.2108C13.2516 19.2385 13.25 20.5932 13.25 22.5C13.25 24.4068 13.2516 25.7615 13.3898 26.7892C13.525 27.7952 13.7787 28.3749 14.2019 28.7981C14.6251 29.2213 15.2048 29.475 16.2108 29.6102C17.2385 29.7484 18.5932 29.75 20.5 29.75H23.5C25.4068 29.75 26.7615 29.7484 27.7892 29.6102C28.7952 29.475 29.3749 29.2213 29.7981 28.7981C30.2966 28.2996 30.5541 27.5915 30.6679 26.25ZM15.75 18.5C15.75 18.0858 16.0858 17.75 16.5 17.75H20.5C20.9142 17.75 21.25 18.0858 21.25 18.5C21.25 18.9142 20.9142 19.25 20.5 19.25H16.5C16.0858 19.25 15.75 18.9142 15.75 18.5ZM31.4235 20.2502C31.4032 20.25 31.3766 20.25 31.3333 20.25H28.7308C27.3074 20.25 26.25 21.3087 26.25 22.5C26.25 23.6913 27.3074 24.75 28.7308 24.75H31.3333C31.3766 24.75 31.4032 24.75 31.4235 24.7498C31.436 24.7496 31.4426 24.7495 31.4457 24.7493L31.4479 24.7492C31.6541 24.7367 31.7427 24.5976 31.7495 24.5139C31.7495 24.5139 31.7497 24.5076 31.7498 24.4986C31.75 24.4808 31.75 24.4572 31.75 24.4167V20.5833C31.75 20.5428 31.75 20.5192 31.7498 20.5014C31.7497 20.4924 31.7495 20.4861 31.7495 20.4861C31.7427 20.4024 31.6541 20.2633 31.4479 20.2508C31.4479 20.2508 31.443 20.2504 31.4235 20.2502Z" fill="#020659"/>
</svg>
