<svg width="40" height="40" viewBox="0 0 40 40" fill="none" xmlns="http://www.w3.org/2000/svg">
<path d="M20 40C31.0457 40 40 31.0457 40 20C40 8.9543 31.0457 0 20 0C8.9543 0 0 8.9543 0 20C0 31.0457 8.9543 40 20 40Z" fill="#25D366"/>
<path d="M14.9 28.6C16.7979 29.7253 19.0146 30.1913 21.2049 29.9254C23.3952 29.6596 25.4361 28.6768 27.0097 27.1302C28.5832 25.5836 29.6011 23.56 29.9048 21.3747C30.2085 19.1893 29.7809 16.9648 28.6886 15.0478C27.5964 13.1307 25.9008 11.6288 23.8659 10.7758C21.8311 9.92282 19.5713 9.76676 17.4385 10.3319C15.3058 10.8971 13.4198 12.1517 12.0744 13.9004C10.7289 15.6491 9.99962 17.7937 10 20C10.0155 21.7483 10.462 23.4657 11.3 25L10 30L14.9 28.6Z" stroke="white" stroke-width="1.5" stroke-linecap="round" stroke-linejoin="round"/>
<path d="M24.5 22.848C24.4993 23.018 24.4607 23.1858 24.387 23.339C24.3085 23.5064 24.2053 23.6611 24.081 23.798C23.878 24.0286 23.6254 24.2102 23.342 24.329C23.0633 24.4439 22.7645 24.502 22.463 24.5C21.9563 24.4908 21.4566 24.3792 20.994 24.172C20.4454 23.9345 19.9254 23.6356 19.444 23.281C18.9202 22.8983 18.4258 22.4768 17.965 22.02C17.5095 21.5621 17.0893 21.0704 16.708 20.549C16.3577 20.0719 16.0612 19.5574 15.824 19.015C15.6185 18.551 15.5083 18.0504 15.5 17.543C15.4981 17.246 15.5531 16.9513 15.662 16.675C15.7769 16.3888 15.9542 16.1319 16.181 15.923C16.301 15.7935 16.4458 15.6893 16.6067 15.6166C16.7677 15.544 16.9415 15.5043 17.118 15.5C17.2442 15.4995 17.3689 15.5272 17.483 15.581C17.604 15.6363 17.7077 15.7234 17.783 15.833L18.83 17.3C18.9023 17.3975 18.9627 17.5033 19.01 17.615C19.0492 17.7015 19.0707 17.795 19.073 17.89C19.0716 18.0031 19.0387 18.1135 18.978 18.209C18.9087 18.3264 18.8239 18.434 18.726 18.529L18.383 18.884C18.3592 18.9074 18.3405 18.9355 18.3282 18.9664C18.3158 18.9974 18.3099 19.0307 18.311 19.064C18.3116 19.0978 18.3163 19.1314 18.325 19.164C18.339 19.2 18.352 19.227 18.361 19.254C18.482 19.4589 18.6223 19.6518 18.78 19.83C18.98 20.064 19.199 20.302 19.433 20.541C19.667 20.78 19.911 21 20.15 21.202C20.3289 21.3597 20.5236 21.4984 20.731 21.616C20.754 21.625 20.781 21.639 20.812 21.652C20.8483 21.6649 20.8866 21.671 20.925 21.67C20.9592 21.6718 20.9934 21.6665 21.0254 21.6545C21.0574 21.6424 21.0865 21.6239 21.111 21.6L21.454 21.262C21.5489 21.1624 21.6581 21.0774 21.778 21.01C21.8737 20.9491 21.9846 20.9165 22.098 20.916C22.1926 20.9171 22.2861 20.9368 22.373 20.974C22.4839 21.0216 22.5894 21.0806 22.688 21.15L24.18 22.209C24.2887 22.2804 24.3748 22.3814 24.4281 22.5C24.4744 22.6102 24.4988 22.7284 24.5 22.848Z" stroke="white" stroke-width="1.5"/>
</svg>
