<svg width="24" height="24" viewBox="0 0 24 24" fill="none" xmlns="http://www.w3.org/2000/svg">
<path d="M12 24.0001C18.6274 24.0001 24 18.6275 24 12.0001C24 5.3727 18.6274 0.00012207 12 0.00012207C5.37258 0.00012207 0 5.3727 0 12.0001C0 18.6275 5.37258 24.0001 12 24.0001Z" fill="#25D366"/>
<path d="M8.94012 17.1602C10.0788 17.8353 11.4089 18.1149 12.7231 17.9554C14.0372 17.7959 15.2618 17.2063 16.2059 16.2783C17.1501 15.3504 17.7608 14.1362 17.943 12.825C18.1252 11.5137 17.8687 10.1791 17.2133 9.02884C16.5579 7.87862 15.5406 6.97743 14.3197 6.46565C13.0988 5.95386 11.7429 5.86023 10.4632 6.19932C9.18358 6.53841 8.05199 7.2912 7.24474 8.34042C6.43748 9.38963 5.99989 10.6764 6.00012 12.0002C6.00939 13.0491 6.27731 14.0796 6.78012 15.0002L6.00012 18.0002L8.94012 17.1602Z" stroke="white" stroke-width="1.5" stroke-linecap="round" stroke-linejoin="round"/>
<path d="M14.7001 13.709C14.6997 13.811 14.6765 13.9116 14.6323 14.0036C14.5851 14.104 14.5232 14.1968 14.4487 14.279C14.3269 14.4173 14.1753 14.5263 14.0053 14.5976C13.8381 14.6665 13.6588 14.7014 13.4779 14.7002C13.1738 14.6946 12.874 14.6277 12.5965 14.5034C12.2673 14.3609 11.9553 14.1815 11.6665 13.9688C11.3521 13.7392 11.0555 13.4862 10.7791 13.2122C10.5058 12.9374 10.2536 12.6424 10.0249 12.3296C9.81465 12.0433 9.63676 11.7346 9.49448 11.4092C9.37112 11.1308 9.30501 10.8304 9.30008 10.526C9.29891 10.3478 9.33191 10.171 9.39728 10.0052C9.46619 9.83347 9.57258 9.67932 9.70868 9.55397C9.78067 9.47624 9.86751 9.41373 9.96408 9.37014C10.0606 9.32655 10.165 9.30276 10.2709 9.30017C10.3466 9.29988 10.4214 9.31648 10.4899 9.34877C10.5625 9.38193 10.6247 9.4342 10.6699 9.49997L11.2981 10.3802C11.3414 10.4387 11.3777 10.5021 11.4061 10.5692C11.4296 10.6211 11.4424 10.6772 11.4439 10.7342C11.443 10.802 11.4233 10.8683 11.3869 10.9256C11.3453 10.996 11.2944 11.0606 11.2357 11.1176L11.0299 11.3306C11.0156 11.3446 11.0044 11.3614 10.9969 11.38C10.9895 11.3986 10.986 11.4186 10.9867 11.4386C10.987 11.4588 10.9898 11.479 10.9951 11.4986C11.0035 11.5202 11.0113 11.5364 11.0167 11.5526C11.0893 11.6755 11.1735 11.7912 11.2681 11.8982C11.3881 12.0386 11.5195 12.1814 11.6599 12.3248C11.8003 12.4682 11.9467 12.6002 12.0901 12.7214C12.1974 12.816 12.3142 12.8992 12.4387 12.9698C12.4525 12.9752 12.4687 12.9836 12.4873 12.9914C12.509 12.9991 12.532 13.0028 12.5551 13.0022C12.5756 13.0032 12.5961 13.0001 12.6153 12.9928C12.6345 12.9856 12.652 12.9745 12.6667 12.9602L12.8725 12.7574C12.9294 12.6976 12.9949 12.6466 13.0669 12.6062C13.1243 12.5696 13.1908 12.5501 13.2589 12.5498C13.3156 12.5504 13.3717 12.5622 13.4239 12.5846C13.4904 12.6131 13.5537 12.6485 13.6129 12.6902L14.5081 13.3256C14.5733 13.3684 14.6249 13.429 14.6569 13.5002C14.6847 13.5663 14.6994 13.6372 14.7001 13.709Z" stroke="white" stroke-width="1.5"/>
</svg>
