<svg width="24" height="24" viewBox="0 0 24 24" fill="none" xmlns="http://www.w3.org/2000/svg">
<path d="M12 22.0001C17.5228 22.0001 22 17.523 22 12.0001C22 6.47727 17.5228 2.00012 12 2.00012C6.47715 2.00012 2 6.47727 2 12.0001C2 17.523 6.47715 22.0001 12 22.0001Z" fill="#FF0000"/>
<path fill-rule="evenodd" clip-rule="evenodd" d="M17.6503 8.18917C17.8498 8.38872 17.9936 8.63707 18.0673 8.90947C18.4918 10.618 18.3937 13.3163 18.0756 15.0908C18.0019 15.3632 17.8581 15.6115 17.6585 15.8111C17.459 16.0106 17.2106 16.1544 16.9382 16.2281C15.941 16.5001 11.9272 16.5001 11.9272 16.5001C11.9272 16.5001 7.91346 16.5001 6.91621 16.2281C6.64381 16.1544 6.39545 16.0106 6.1959 15.8111C5.99635 15.6115 5.85256 15.3632 5.77886 15.0908C5.35191 13.3897 5.46895 10.6897 5.7706 8.91772C5.8443 8.64527 5.98811 8.39692 6.18766 8.19737C6.38721 7.99782 6.63555 7.85407 6.90795 7.78032C7.9052 7.50837 11.919 7.50012 11.919 7.50012C11.919 7.50012 15.9327 7.50012 16.93 7.77212C17.2024 7.84582 17.4507 7.98962 17.6503 8.18917ZM13.9712 12.0001L10.6415 13.9287V10.0715L13.9712 12.0001Z" fill="white"/>
</svg>
