<svg width="40" height="40" viewBox="0 0 40 40" fill="none" xmlns="http://www.w3.org/2000/svg">
<path fill-rule="evenodd" clip-rule="evenodd" d="M20 0C23.9556 0 27.8224 1.17298 31.1114 3.37061C34.4004 5.56824 36.9638 8.69181 38.4776 12.3463C39.9913 16.0009 40.3874 20.0222 39.6157 23.9018C38.844 27.7814 36.9392 31.3451 34.1421 34.1421C31.3451 36.9392 27.7814 38.844 23.9018 39.6157C20.0222 40.3874 16.0009 39.9913 12.3463 38.4776C8.69181 36.9638 5.56824 34.4004 3.37061 31.1114C1.17298 27.8224 0 23.9556 0 20C0 14.6957 2.10714 9.60859 5.85786 5.85786C9.60859 2.10714 14.6957 0 20 0ZM30.1 15.876C30.0025 15.1359 29.7202 14.4322 29.279 13.83C28.7319 13.278 27.9892 12.964 27.212 12.956C24.328 12.746 19.995 12.746 19.995 12.746H19.987C19.987 12.746 15.657 12.746 12.771 12.956C11.9939 12.9643 11.2513 13.2783 10.704 13.83C10.2633 14.4321 9.98219 15.136 9.887 15.876C9.75919 16.9852 9.69076 18.1005 9.682 19.217V20.78C9.69102 21.8962 9.75945 23.0111 9.887 24.12C9.98442 24.8598 10.2653 25.5634 10.704 26.167C11.3331 26.7239 12.1409 27.0368 12.981 27.049C14.632 27.207 19.996 27.254 19.996 27.254C19.996 27.254 24.332 27.246 27.216 27.04C27.9932 27.0324 28.736 26.7183 29.283 26.166C29.7245 25.5632 30.0069 24.8588 30.104 24.118C30.2318 23.0091 30.3002 21.8942 30.309 20.778V19.215C30.2975 18.0988 30.2277 16.9839 30.1 15.875V15.876ZM17.859 22.676V16.876L23.431 19.784L17.859 22.676Z" fill="#FF0000"/>
</svg>
